<svg fill="none" height="487" viewBox="0 0 295 487" width="295" xmlns="http://www.w3.org/2000/svg" xmlns:xlink="http://www.w3.org/1999/xlink"><clipPath id="a"><path d="m0 0h505.56v486.7h-505.56z"/></clipPath><g clip-path="url(#a)"><g opacity=".3" stroke="#a06569" stroke-miterlimit="10"><path d="m65.1461 243.15c-17.38-1.1-30.27-9.07-38.91-23.75-5.83-9.91-8.96-20.72-7.73-26.57 2.04-1.09 3.57-.38 4.86 1.36 9.08 12.29 21.57 20.03 35.19 26.21 11.36 5.15 23.29 8.42 35.54 10.64.98.18 1.99.13 3.26-.26-18.42-9.56-33.53-22.6-44.01-40.52-10.31-17.62-15.57-36.65-15.99-57.41 1.6-.1 2.74-.52 3.5-.16 11.82 5.67 22.44 13.06 29.11 24.58 6.23 10.77 4.47 21.45-2.82 31.31-.31.41-.7.76-1 1.18-.2.27-.32.6-.65 1.25 5.9 7.93 13.65 14.06 21.72 20.02-3.1-8.58-7.17-16.87-5.93-27.06 2.14.38 3.97.48 5.64 1.05 7.45 2.51 12.85 7.76 17.9099 13.51 6.65 7.56 10.23 16.63 12.81 26.12.64 2.36 1.77 3.48 3.71 4.41 7.83 3.75 16.05 6.17 24.63 7.38.85.12 1.8-.02 2.55.32.84.38 1.5 1.17 2.24 1.78-.73.8-1.41 2.23-2.19 2.28-3.93.26-7.92.54-11.82.13-12.02-1.26-23.7-4.02-34.86-8.76-.28-.12-.66-.02-1.25-.02-.3 3.09-2.5099 4.42-5.2799 5.33-6.86 2.26-13.69 4.6-21 4.98-1.15.06-2.28.48-4.48.96 6.07 1.11 11.12 1.84 16.07 2.99 3.65.85 7.22 2.09 10.71 3.45 2.06.8 4.2299 1.96 3.25 5.26 5.3599-1.77 10.4699-3.57 15.6499-5.14 9.19-2.78 18.61-4.29 28.2-4.65 1.68-.06 3.44.23 5.06.72.78.24 1.29 1.33 1.93 2.03-.81.7-1.56 1.94-2.43 2.03-7.39.72-14.43 2.77-21.36 5.32-.64.24-1.26.56-1.91.77-4.75 1.51-7.11 4.48-8.53 9.58-3.88 13.96-11.48 25.69-24.1299 33.48-3.13 1.93-6.41 4.01-11.14 3.37-1.36-9.41 2.46-17.62 5.67-26.14-8.38 5.19-15.13 11.98-21.47 19.22 1.53 2.36 2.84 4.33 4.11 6.34 5.69 9.02 5.58 21.37-1.34 30.53-6.94 9.2-15.8 16.24-26.3 21.12-.76.35-1.59.58-2.41.77-.29.07-.64-.17-.96-.26-3.71-9.7 4.98-41.97 14.93-57.97 10.99-17.67 25.86-30.86 44.59-39.97-.17-.31-.35-.62-.52-.92-4.33.79-8.72 1.33-12.98 2.4-14.03 3.54-27.55 8.35-39.92 16.07-7.95 4.97-15.11 10.78-20.84 18.25-.31.41-.54 1.01-.96 1.19-1.17.53-2.46 1.29-3.6 1.15-.57-.07-1.43-1.97-1.29-2.92.45-3.2 1.04-6.42 2.01-9.49 3.82-12.03 9.82-22.68 20.4-30.12 6.72-4.73 14.18-7.57 22.52-7.67.5 0 1.01-.15 1.5-.27.11-.03.19-.2.77-.82zm78.0499-4.83c-.76-.19-1.54-.32-2.27-.57-6.68-2.23-13.36-4.46-20.02-6.74-3.35-1.14-5.16-3.42-6.04-6.99-1.79-7.22-4.79-14-8.88-20.26-4.32-6.6-9.6899-12.09-16.8899-15.55-1.75-.84-3.69-1.3-6.47-2.25 1.38 14.09 6.24 25.39 15.63 34.8-13.88-7.7-25.61-17.73-35.76-29.8.97-1.37 1.66-2.34 2.35-3.32 8.88-12.45 8.42-24.17-1.53-35.81-6.03-7.05-13.59-12.12-21.8-16.28-.51-.26-1.23-.13-1.85-.18-1.5 21.75 12.47 55.16 30.83 73.11 20.13 19.68 44.9499 28.44 72.6999 29.82zm-103.3699 113.13c12.41-5.72 23.45-12.76 29.29-25.55 3.2-7.02 2.64-14.14-.83-20.94-1.55-3.04-3.57-5.85-5.66-9.21 9.85-11.76 21.45-21.62 35.08-29.26-9.01 9.5-13.79 20.64-15.05 34.4 2.84-.98 4.83-1.44 6.63-2.31 5.83-2.85 10.53-7.1 14.4299-12.25 5.38-7.11 9-15.09 11.2-23.66.86-3.37 2.57-5.55 5.7-6.67 5.98-2.15 11.99-4.22 17.99-6.29.81-.28 1.7-.35 2.5-.64.75-.28 1.44-.72 2.16-1.09-30.77 2.35-57.8699 12.62-78.3999 36.45-16.47 19.12-23.42 42.02-25.05 67.04zm-19.52-155.88c3.83 17.65 10.84 33.27 28.24 41.27 16 7.36 31.73 3.77 47.24-2.79-28.71-5.98-55.35-15.59-75.49-38.48zm75.94 57.73c-12.3-7.62-35.22-9.79-48.04-3.25-16.99 8.68-24.23 23.79-27.99 41.51 20.07-23.08 46.79-32.79 76.02-38.26z"/><path d="m340.465 249.879c-1.78 10.4-9.08 16.39-16.94 22.76 8.4 1.69 14.92-.68 20.86-5.05 6.29-4.64 13.29-6.93 21.08-6.77 13.7.29 22.51 10.04 24.3 22.19.75 5.08 1.02 10.26 2.21 15.24 1.18 4.96 2.82 9.85 7.4 13.15 3.1 2.23 6.32 2.58 9.76 1.79 1.55-.36 3.06-1.3 3.94.67.99 2.22-.44 3.65-2.24 4.52-4.61 2.22-9.46 2.79-14.49 1.71-.77-.17-1.54-.3-2.74.4 5.24 3.49 10.47 6.98 15.71 10.45 1 .66 2.46 1.05 2.94 1.96.63 1.18 1.01 2.97.56 4.14-.62 1.62-2.22.99-3.53.33-5.51-2.79-11.04-5.56-16.57-8.31-.89-.44-1.85-.76-3.02-1.23 1.93 3.61 3.99 6.8 5.34 10.27.83 2.13.73 4.68.71 7.04 0 .72-1.26 2.06-1.79 1.99-.97-.13-2.56-1.04-2.62-1.73-.34-4.16-2.88-6.52-6.25-8.19-4.22-2.08-8.79-1.51-13.13-.74-3.31.59-6.58 1.95-9.6 3.48-5.11 2.58-10.4 4.63-16.06 4.91-5.68.29-11.27-.89-15.74-4.79-9.28-8.1-12.67-18.3-10.91-30.49 1.03-7.13-1.79-13.26-6.42-19.58-.68 4.15-.77 7.57-1.86 10.65-1.46 4.16-3.64 8.06-5.61 12.03-.36.73-1.06 1.51-1.79 1.8-1.02.41-2.34.74-3.29.4-.64-.23-.93-1.64-1.21-2.57-.14-.45.03-1.03.18-1.51 3.57-11.52.19-22.01-5.17-31.99-2.41-4.49-5.94-8.37-8.85-12.61-.7-1.02-1.5-2.51-1.25-3.53.52-2.08 2.56-1.98 4.3-1.78 2.36.27 4.79.4 7.05 1.06 8.38 2.42 16.28-.15 24.09-2.4 5.27-1.52 10.06-4.36 14.13-8.22 2.19-2.08 2.25-2.02 6.52-1.43zm66.41 66.98c-7.01-1.14-11.83-4.85-14.66-11.12-.84-1.87-1.7-3.82-2.06-5.82-.85-4.73-1.56-9.5-2.04-14.28-1.49-14.8-12.11-23.57-26.89-22.13-5.45.53-10.3 2.55-14.83 5.52-2.44 1.6-4.88 3.29-7.54 4.44-6.7 2.89-13.53 3.24-21.11-.02 8.66-5.1 15.76-10.94 18.81-20.34-1.27.37-2.24 1.04-3.15 1.77-4.62 3.73-9.82 6.3-15.53 7.9-8.26 2.31-16.63 2.55-25.08 1.46-1.57-.2-3.15-.29-5.86-.53 11.82 14.64 18.95 29.62 15.61 48.02 2.76-2.02 4.12-4.75 5.13-7.6 1.09-3.07 2.04-6.22 2.64-9.41.54-2.88.52-5.86.8-9.5 5.22 4.14 8.36 8.67 9.49 14.17.85 4.15 1.01 8.53.83 12.77-.33 7.47.96 14.41 5.33 20.57 4.58 6.46 10.75 9.91 18.85 9.79 4.79-.07 9.03-1.76 13.36-3.52 4.6-1.87 9.25-3.73 14.05-4.93 8.08-2.04 14.99-.04 19.83 7.24.12.18.51.19 1.03.36-.92-5.5-3.41-10.03-7.93-12.86-4.03-2.52-8.48-4.53-12.97-6.09-3.69-1.28-7.75-1.5-11.62-2.28-5.24-1.05-10.48-2.16-14.75-5.71-1.54-1.28-2.58-2.86-1.92-4.96.67-2.15 2.63-3.01 4.48-2.81 2.66.3 5.43.94 7.83 2.1 14.59 6.98 29.09 14.14 43.63 21.23 1.42.69 2.9 1.25 4.35 1.87.15-.32.3-.64.45-.96-1.37-.99-2.72-2.01-4.13-2.95-5.43-3.65-10.88-7.27-16.3-10.92-8.29-5.57-16.57-11.15-24.85-16.73-2.48-1.67-4.67-3.59-5.1-6.78-.44-3.3 1.79-5.55 4.93-4.55 2.4.76 4.89 1.96 6.72 3.64 3.65 3.37 6.99 7.1 10.24 10.87 4.19 4.87 8.61 9.42 14.53 12.17 4.95 2.3 10.05 3.46 15.42.9zm-28.66-6.91c.2-.23.4-.45.6-.68-2.27-2.76-4.4-5.65-6.86-8.23-2.71-2.84-5.63-5.49-8.63-8.02-1.71-1.45-3.8-2.15-6.67-.48 1.29 1.93 2.12 4.2 3.73 5.37 5.8 4.21 11.86 8.06 17.83 12.04zm-6.81 9.77c.11-.34.22-.67.33-1.01-6.38-3.11-12.75-6.25-19.17-9.28-.86-.41-2.05-.39-3.03-.21-.9.17-2.45.83-2.43 1.23.03 1.01.52 2.48 1.3 2.9 2.52 1.36 5.21 2.47 7.91 3.44 4.89 1.75 9.99 2.38 15.09 2.93z"/><path d="m241.753 320.129c-7.01 3.49-14.33 3.87-21.74 3.51-1.65-.08-3.71.44-4.17-1.95-.49-2.56 1.72-3.02 3.35-3.86 4.25-2.17 8.83-3.86 12.7-6.57 8.92-6.24 13.73-15.61 17.85-25.35.27-.63.48-1.29.7-1.94.54-1.58.61-3.64 3.05-3.44 2.1.16 2.6 1.89 3.22 3.53 3.12 8.26 7.05 16.04 13.19 22.54 5.06 5.35 11.01 9.23 18.14 11.31 2.23.65 4.98 1.44 3.04 5.32-8.66 1.13-17.36.7-26.71-3.57 2.13 7.6 6.57 11.53 12.16 14.33 4.95 2.48 9.5 5.35 13.61 9.17 9.95 9.27 12.18 28.01-1.7 39.01-3.36 2.67-6.99 5.01-10.36 7.67-3.96 3.13-7.15 6.88-9.04 11.69-1.77 4.5-1.06 8.39 2.29 11.82.48.49 1.39.88 1.44 1.39.11 1.11.1 2.43-.44 3.32-.3.49-1.93.64-2.68.31-3.55-1.59-6.29-4.2-8.21-7.58-1.1-1.92-1.95-3.98-3.46-7.1-.5 3.51-.97 6.02-1.2 8.54-.45 4.77-.67 9.55-1.22 14.3-.1.87-1.18 2.1-2.03 2.32-1.61.42-2.5-.75-2.65-2.36-.08-.86-.04-1.72-.1-2.58-.45-7.53-.91-15.06-1.38-22.81-1.27 3.35-2 6.76-3.78 9.49-1.81 2.78-4.56 5-7.07 7.26-1.06.95-2.76 1.2-3.53-.42-.42-.88-.4-2.56.17-3.2 2.28-2.52 4.14-5.36 3.77-8.69-.49-4.49-2.34-8.67-5.76-11.8-3.03-2.77-6.23-5.4-9.53-7.84-4.02-2.98-7.88-6-10.77-10.23-6.53-9.55-4.83-22.69 2.59-30.81 4-4.38 8.59-7.87 14.01-10.34 5.46-2.48 9.99-6.03 12.38-11.78.19-.46.26-.98.34-1.48.02-.13-.11-.29-.47-1.15zm26.22 94.26c-4.68-9.58-1.01-17.11 5.69-23.73 2.8-2.76 6.19-4.92 9.24-7.42 2.52-2.07 5.24-3.99 7.37-6.42 5.96-6.81 7.35-14.61 3.96-23.09-2.95-7.38-8.27-12.53-15.29-16.1-2.9-1.48-5.88-2.93-8.48-4.87-5.73-4.27-8.96-10.1-10.21-17.47 4.79 1.93 8.96 3.93 13.33 5.26 4.46 1.35 9.12 1.99 13.88.23-8.27-3.2-15.32-7.9-21.02-14.57-5.59-6.54-9.42-14.13-12.61-22.74-10.86 21.07-9.92 24.1-34.39 37.88 9.88 1.79 18.3-1.68 26.98-6.12-.31 5.96-2.68 10.05-5.76 13.79-3.13 3.81-7.24 6.26-11.69 8.28-6.47 2.93-11.52 7.47-14.89 13.78-4.93 9.23-3.7 19.12 3.54 26.68 2.12 2.21 4.8 3.89 7.16 5.89 3.79 3.22 7.95 6.15 11.19 9.86 5.07 5.81 7.24 12.51 3.1 19.97-.12.21.08.6.22 1.44 4.8-4.08 6.98-9.05 7.43-14.91.53-6.87-1.32-13.27-3.58-19.65-1.66-4.68-3.05-9.49-4.13-14.34-.46-2.08-.22-4.51.37-6.59 1.09-3.81 4.38-4.45 7.03-1.47.98 1.11 1.73 2.61 2.09 4.05.53 2.16.71 4.41.86 6.64.83 12.19 1.59 24.39 2.41 36.59.35 5.27.77 10.53 1.15 15.79 1.26-2.53 1.67-5.15 1.86-7.79 1.12-16.14 2.19-32.29 3.28-48.44.19-2.82.92-5.46 3.16-7.38 2.58-2.21 5.46-1.54 6.47 1.69.55 1.76.84 3.82.47 5.59-1 4.86-2.42 9.63-3.64 14.45-1.43 5.64-3.42 11.23-4.08 16.97-.82 7.09 1.27 13.59 7.53 18.3zm-9.14-29.21c3.59-6.41 6.17-13.03 7.35-20.11.22-1.33.16-2.8-.2-4.08-.23-.81-1.17-1.67-1.99-1.97-.46-.17-1.64.59-1.93 1.2-.88 1.84-1.87 3.76-2.1 5.73-.59 4.91-.8 9.87-1.12 14.81-.09 1.47-.01 2.94-.01 4.42zm-11.91-2.65c1.56-6.52.24-12.95-.58-19.36-.19-1.52-1.98-3.96-3.14-4.02-2.73-.15-2.04 2.67-2.09 4.35-.23 6.91 2.91 12.89 5.81 19.03z"/><path d="m193.435 290.797c-4.79 6.49-6.84 12.35-6.15 19.2.59 5.83.23 11.58-1.72 17.27-5.09 14.9-18.33 21.55-33.62 16.57-2.6-.85-5-2.28-7.58-3.2-4.49-1.6-8.96-3.39-13.59-4.43-6.32-1.42-13.01 2.9-15.21 9.19-.11.33-.15.76-.37.95-.83.69-1.73 1.29-2.6 1.93-.55-.76-1.56-1.53-1.56-2.29 0-2.36-.11-4.91.71-7.05 1.32-3.43 3.35-6.59 5.28-10.23-1.21.38-2.32.59-3.3 1.07-4.33 2.1-8.62 4.27-12.93 6.41-.9202.46-1.8202.99-2.7702 1.37-1.64.64-3.5 1.26-4.41-.89-.83-1.96.49-2.99 2.13-4.02 5.6302-3.56 11.1302-7.32 16.4702-11.84-1.07-.05-2.32-.48-3.19-.09-4.05 1.82-7.7-.09-11.4502-.96-.96-.22-2.03-.72-2.64-1.44-.69-.82-1.54-2.54-1.19-2.98.7-.89 2.34-1.83 3.27-1.58 2.39.64 4.5502 1.07 6.9902.13 3.57-1.38 6.06-3.86 7.87-7.06 2.48-4.39 3.65-9.19 4.21-14.2.61-5.44.94-10.9 2.95-16.14 2.87-7.49 11.79-14.65 21.08-14.79 9.01-.14 16.69 2.39 23.99 7.57 5.3 3.76 11.43 5.99 19.03 4.42-1.2-1.23-1.92-2.03-2.71-2.76-4.8-4.42-9.99-8.5-12.57-14.8-1.31-3.2-1.13-3.95 1.72-6.74.78.53 1.69.99 2.41 1.66 8.37 7.9 18.4 11.71 29.81 11.76 4.94.02 9.88-.61 14.82-.93.86-.06 1.78-.22 2.57.01 1.08.31 2.75.78 2.92 1.48.24 1.02-.31 2.59-1.07 3.44-6.99 7.82-12.02 16.61-14.27 26.96-1.19 5.47-.92 10.9-.32 16.37.04.33.29.64.34.97.27 1.82 1.14 4.01-1.11 4.99-1.96.85-3.08-1.02-4.13-2.34-4.41-5.52-6.65-11.92-7.57-18.85-.13-.97-.24-1.95-.51-4.13zm-4.26-16.73c-8.65 3.83-19.22 2.36-26.37-2.57-2.82-1.94-5.74-3.9-8.88-5.19-16.04-6.57-33.65.4-35.38 21.1-.07.86-.09 1.72-.21 2.57-.45 3.23-.66 6.54-1.47 9.68-2.39 9.35-6.63 17.02-18.0202 17.58 1.3502.77 2.5802 1.33 3.8702 1.49 5.31.69 10.47-.18 14.78-3.32 4.14-3.01 7.91-6.57 11.57-10.16 2.81-2.76 4.98-6.19 7.85-8.89 2.47-2.32 5.4-4.22 8.34-5.95 1.81-1.06 4.09-1.25 5.67.65 1.53 1.83 1.23 4.11-.04 5.78-1.53 2-3.46 3.83-5.54 5.25-13.37 9.11-26.83 18.08-40.26 27.12-1.43.96-2.79 2.02-4.18 3.04.19.29.38.58.57.88 1.67-.75 3.36-1.45 5.01-2.25 14.53-7.1 29.01-14.29 43.6-21.27 2.4-1.15 5.21-1.92 7.83-1.92 1.44 0 3.52 1.68 4.12 3.1.45 1.07-.58 3.52-1.7 4.34-2.45 1.8-5.23 3.43-8.12 4.26-4.94 1.41-10.07 2.16-15.12 3.19-5.97 1.21-11.62 3.18-16.47 6.98-3.86 3.03-6.54 6.79-7.56 11.99.86-.21 1.32-.19 1.46-.38 5.36-7.38 12.78-8.24 20.77-6.09 4.78 1.28 9.35 3.38 13.95 5.27 5.16 2.11 10.37 3.78 16.04 2.7 8.95-1.7 14.56-7.33 17.92-15.47 2.22-5.37 2.59-10.97 2-16.74-.88-8.5 1.5-16.02 7.47-22.25.71-.74 1.74-1.17 2.83-1.88 1.68 15.48 3.54 20.96 9.36 26.3-4.1-19.14 3.32-34.19 15.27-48.98-18.77 3.28-35.38 1.65-49.92-10.13 3.32 9.21 9.94 15.28 18.98 20.19zm-29.48 37.25c-2.97-2.18-3.04-2.32-5.77-1.05-6.06 2.8-12.05 5.75-18.05 8.68-.53.26-.94.78-2.13 1.8 3.11-.44 5.3-.56 7.4-1.09 4.93-1.25 9.86-2.55 14.69-4.12 1.86-.61 3.88-1.64 3.86-4.21zm-30.49-1.16c5.39-3.61 10.81-7.16 16.15-10.84 3.58-2.47 4.11-3.95 3.05-7.75-9.59 2.87-14 11.23-19.2 18.59z"/><path d="m248.794 85.5868c.32-7 .65-13.99.97-20.99.19-4.14.44-4.33 5.33-3.76 1.17 4.11.27 8.43.64 12.65.36 4.04.84 8.07 1.37 13.01 1.99-5.63 4.07-10.3 8.2-13.59 1.17-.93 2.56-1.68 3.97-2.17.63-.22 1.97.17 2.25.68.42.77.29 1.9.18 2.86-.05.43-.6.81-.94 1.19-5.2 5.81-4.62 10-.3 16.25 2.67 3.87 6.66 6.85 10.23 10.0502 3.44 3.09 7.33 5.71 10.6 8.96 8.82 8.77 7.26 25.96-1.02 34.25-4.35 4.36-9.17 7.7-14.68 10.3-5.81 2.74-10.04 6.98-12.11 14.35 8.93-4.12 17.57-5.32 26.47-3.9.95 4.38.96 4.44-2.24 5.38-11.73 3.43-20.07 11.01-25.88 21.48-2.64 4.77-4.74 9.84-7.2 15.02-3.82.79-3.72.75-5.08-2.72-3.34-8.53-7.43-16.63-13.96-23.24-4.93-4.99-10.79-8.49-17.54-10.48-.33-.1-.68-.11-1.01-.19-1.83-.45-2.5-1.72-2.31-3.47.19-1.77 1.53-2.08 3-2.15 6.74-.32 13.43-.29 19.8 2.43 1.21.52 2.5.88 4.28 1.49-1.37-6.08-4.83-9.87-9.46-12.71-2.34-1.44-4.95-2.44-7.32-3.83-6.36-3.72-11.67-8.51-14.64-15.43-4.63-10.78-2.02-22.12 6.63-29.44 3.4-2.88 7.12-5.4 10.65-8.1402 3.98-3.1 7.39-6.7 9.44-11.41 1.98-4.53 1.52-8.68-1.89-12.41-1.13-1.23-2.76-2.43-1.32-4.4 1.02-1.39 3.31-1.16 5.51.59 4.41 3.51 7.14 8.13 9.38 13.5zm-10.73-11.09c5.04 11.2.41 18.82-6.91 25.5-2.4 2.1902-5.24 3.9002-7.77 5.9702-2.65 2.17-5.5 4.23-7.69 6.82-5.7 6.76-6.93 14.44-3.56 22.7 2.92 7.17 8.06 12.3 14.9 15.81 2.29 1.18 4.7 2.19 6.85 3.6 6.77 4.43 10.87 10.6 12.17 18.97-17.3-7-20.97-7.75-27.37-5.18 18.03 6.11 27.36 19.85 34.01 37.15 1.9-4.16 3.16-7.3 4.74-10.28 1.61-3.03 3.33-6.04 5.36-8.81 2.02-2.76 4.28-5.42 6.79-7.74s5.33-4.36 8.24-6.16c2.76-1.7 5.81-2.93 8.73-4.36-9.72-2.11-18.18.75-26.88 5.82.61-6.11 2.86-10.41 6.12-14.27 3.18-3.78 7.31-6.18 11.74-8.22 6.97-3.2 12.32-8.2 15.47-15.26 4.05-9.11 2.72-17.54-4.04-24.85-2.31-2.5-5.35-4.3-7.91-6.59-4.09-3.65-8.52-7.0502-11.95-11.2502-4.28-5.25-5.48-11.43-1.98-17.84.16-.3.02-.77.02-1.78-4.8 4.06-6.9 8.76-7.44 14.25-.64 6.49.74 12.6502 2.97 18.7002 1.37 3.71 2.97 7.39 3.79 11.23.74 3.46.84 7.13.61 10.67-.09 1.33-1.82 3.49-2.95 3.59-1.53.13-3.97-.95-4.64-2.23-1.31-2.49-2.11-5.45-2.33-8.28-1.25-16.48-2.27-32.9702-3.39-49.4602-.08-1.21-.41-2.41-.63-3.61-.96 1.19-1.29 2.31-1.37 3.45-1.13 16.49-2.21 32.9702-3.34 49.4602-.13 1.88-.26 3.8-.77 5.59-1.02 3.6-3.67 5.79-6.03 5.31-2.22-.45-3.94-2.88-3.5-6.73.54-4.74 1.72-9.43 2.96-14.05 1.11-4.14 2.93-8.1 3.97-12.2602 1.48-5.93 1.7-11.95-.72-17.76-1.15-2.77-2.53-5.48-6.27-7.63zm19.96 27.9702c-.1 1.01-.24 1.62-.2 2.21.34 5.43.64 10.86 1.09 16.28.15 1.85.49 3.74 1.1 5.48.63 1.8 1.11 4.09 3.87 3.84 2.79-5.64 1.06-13.92-5.86-27.81zm-10.48.66c-.24-.05-.48-.1-.72-.16-1.72 4.71-3.56 9.39-5.12 14.16-.78 2.4-1.3 4.95-1.44 7.47-.11 2.01-1.1 5.19 1.9 5.57 2.72.34 3.15-2.59 3.47-4.8.41-2.86.74-5.72.98-8.6.37-4.54.62-9.1.92-13.64z"/><path d="m312.863 197.038c3.98-4.28 6.17-8.9 6.21-14.51.05-6.15-.37-12.55 1.13-18.4 4.39-17.09 19.44-24.5 35.01-18.51 5.92 2.28 11.83 4.6 17.84 6.64 3.5 1.18 7.12.93 10.6-.49 3.32-1.36 5.92-3.34 7.04-7 .48-1.56 1.18-3.56 3.52-2.93 2.3.62 2.06 2.87 1.61 4.3-1.11 3.56-2.63 6.99-4.16 10.4-.53 1.18-1.56 2.14-1.87 3.99 5.18-2.49 10.37-4.97 15.55-7.46 1.24-.6 2.4-1.65 3.67-1.79 1.33-.14 3.3.13 4 1 1.19 1.5-.23 2.84-1.59 3.73-4.17 2.74-8.37 5.42-12.53 8.17-1.55 1.03-3.03 2.17-4.44 4.09 2.43 0 4.88-.22 7.27.06 2.87.33 5.76.86 8.49 1.78.94.32 1.4 2.05 2.08 3.14-1.07.63-2.3 1.97-3.17 1.77-3.82-.89-7.17-.19-10.21 2.12-3.73 2.83-5.8 6.9-6.9 11.22-1.18 4.62-1.76 9.43-2.2 14.19-1.05 11.27-7.12 21.27-17.94 23.93-9.13 2.24-18.01.99-26.08-4.33-2.58-1.7-5.18-3.48-8-4.68-2.97-1.26-6.18-2.05-9.36-2.65-1.29-.24-2.78.56-4.34.92 4 4.29 7.74 7.99 11.08 12.02 1.72 2.07 2.96 4.63 3.95 7.15.39.98-.13 3.01-.93 3.57-.73.51-2.61.04-3.62-.59-3.78-2.36-7.14-5.55-11.14-7.36-9.74-4.39-19.99-6.06-30.66-3.83-2.01.42-4.05.75-6.09.95-2.15.21-3.34-1.27-2.48-3.24.6-1.38 1.66-2.58 2.63-3.77 6.39-7.84 11.35-16.46 12.82-26.55.7-4.83.2-9.85.02-14.78-.08-2.2-1.26-4.95 1.1-6.11 2.68-1.32 3.77 1.64 4.99 3.34 3.97 5.56 5.94 11.88 6.77 18.6.08.62.22 1.24.33 1.86zm93.66-40.75c-.21-.29-.43-.57-.64-.86-1.85.87-3.7 1.72-5.54 2.62-14.7 7.18-29.37 14.41-44.11 21.51-2.12 1.02-4.52 1.69-6.85 1.97-2.08.25-4.19-.51-5.14-2.71-1.03-2.39.55-4.04 2.19-5.25 1.77-1.31 3.77-2.52 5.86-3.16 3.93-1.21 8.01-1.96 12.02-2.93 4.51-1.1 9.08-2 13.48-3.41 4.31-1.39 8.05-3.91 11.06-7.37 2.26-2.6 3.95-5.48 4.35-9.51-.86.59-1.36.77-1.62 1.13-4.36 6.08-10.58 7.59-17.41 6.34-4.69-.86-9.2-2.72-13.74-4.29-2.76-.96-5.33-2.47-8.12-3.31-11.68-3.54-22.17.94-27.82 11.77-3.2 6.14-4.14 12.63-3.33 19.52 1.01 8.51-1.53 15.99-7.44 22.24-.73.78-1.79 1.25-2.89 1.99-1.68-15.84-3.92-22.31-9.15-25.77 3.78 18.53-3.45 33.52-15.27 48.14 18.6-2.87 35.3-1.7 49.74 10.36-3.32-9.28-10-15.32-18.98-20.29 1.89-.74 2.76-1.18 3.68-1.42 8.58-2.24 16.24-.14 23.57 4.57 3.72 2.39 7.74 4.67 11.94 5.86 15.68 4.44 28.27-3.74 31.1-19.78.36-2.03.27-4.13.66-6.15.88-4.54 1.53-9.18 3.01-13.54 2.39-7.03 7.12-11.68 15-12.26.19-.01.35-.48.7-.99-5.37-2.23-10.45-1.21-15.37 1-5.62 2.51-10 6.63-13.95 11.27-2.79 3.27-5.45 6.7-8.52 9.68-2.19 2.12-4.86 3.83-7.53 5.32-1.98 1.1-4.45 1.53-6.09-.7-1.53-2.07-.92-4.43.53-6.24 1.37-1.71 3.11-3.21 4.93-4.45 13.68-9.27 27.43-18.45 41.15-27.67 1.54-1.04 3.03-2.14 4.55-3.21zm-34.14 13.06c-.07-.23-.15-.45-.22-.68-1.63.15-3.27.2-4.87.48-6.25 1.09-12.63 1.85-18.17 5.27-1.11.68-2.47 2.51-2.24 3.48.46 2.02 2.53 1.84 4.28 1.45.33-.07.67-.18.98-.33 6.75-3.22 13.5-6.44 20.24-9.67zm-14.92 27.4c6.15-.15 13.93-7.03 20.7-18.57-6.73 4.57-12.68 8.5-18.5 12.61-1.81 1.28-3.46 2.96-2.2 5.96z"/><path d="m116.462 160.519c-.81-1.24-1.54-2.54-2.44-3.7-2.63-3.4-3.44-7.45-3.99-11.51-.14-1.06.96-2.28 1.49-3.43 1.25.7 2.88 1.12 3.66 2.17 1.07 1.44 1.11 3.68 2.26 5 3.29 3.75 7.88 5.27 12.58 4.43 4.85-.86 9.58-2.64 14.2-4.45 5.44-2.13 10.63-4.49 16.76-4.57 10.09-.12 16.94 4.6 21.82 12.91 3.69 6.3 4.8 13.15 3.93 20.32-.89 7.29.86 13.8 5.8 20.59.65-2.36 1.23-3.74 1.38-5.18.63-5.78 2.87-10.92 6.06-15.69.75-1.12 1.74-2.22 2.88-2.87.91-.52 2.55-.83 3.25-.35.66.45.96 2.2.67 3.16-4.65 15.4 1.67 28.15 9.64 40.5 1.11 1.72 2.65 3.17 3.76 4.9.75 1.18 1.08 2.62 1.89 4.69-2.99 0-5.15.2-7.26-.03-11.6-1.26-23.04-1.34-33.66 4.5-2.84 1.57-5.45 3.56-8.15 5.39-.85.57-1.54 1.5-2.46 1.82-1.04.37-2.83.73-3.27.22-.73-.85-1.26-2.77-.78-3.59 2.42-4.11 4.93-8.25 7.95-11.92 2.24-2.72 5.33-4.75 8.31-7.32-2.89-1.56-5.58-1.09-8.21-.57-5.17 1.02-9.61 3.6-13.87 6.61-7.29 5.15-15.66 6.56-24.14 5.08-10.99-1.91-16.9-8.31-19.35-19.48-1.09-5-1.11-10.24-2.27-15.23-.91-3.94-2.29-7.98-4.42-11.38-2.89-4.61-7.23-7.36-13.1699-5.72-1.52.42-3.25.81-3.8-1.3-.52-2 .59-3.35 2.42-3.97 4.0699-1.38 8.1399-2.85 12.5699-1.7.96.25 1.96.36 4.24.76-1.68-1.57-2.36-2.4-3.21-2.98-4.12-2.81-8.29-5.54-12.4299-8.31-1.14-.77-2.51-1.38-3.31-2.42-.72-.94-1.32-2.53-1.03-3.56.49-1.72 2.14-1.35 3.46-.72 4.6499 2.23 9.2799 4.5 13.9299 6.75 1.94.94 3.9 1.85 5.85 2.77l.48-.63zm-17.0299-4.73c-.13.3-.25.6-.38.91 1.5299 1.08 3.0499 2.19 4.6099 3.23 13.57 9.12 27.16 18.22 40.73 27.35 1.43.96 2.88 1.91 4.14 3.07 2.83 2.62 3.7 6.27 2.12 8.25-1.45 1.83-4.83 2.1-8.01-.37-4.04-3.14-7.62-6.89-11.26-10.5-3.53-3.51-6.72-7.38-10.39-10.72-3.47-3.17-7.7-5.22-12.43-5.92-3.21-.48-6.46-.73-9.8399 1.14.82.39 1.24.73 1.6899.77 7.68.7 12.19 5.46 14.48 12.23 1.58 4.67 2.14 9.7 3.08 14.58.65 3.37.79 6.88 1.79 10.13 2.95 9.54 10.75 15.36 20.73 15.83 7.13.33 13.58-1.72 19.48-5.67 2.14-1.43 4.27-2.95 6.59-4.04 7-3.3 14.14-3.7 22.34-.46-9.06 5.06-15.88 11.19-19.18 20.61 14.41-12.39 31.28-13.41 49.99-10.6-12.05-14.64-19.06-29.65-15.95-48.01-6.93 7.27-8 16.31-8.38 26.08-5.33-3.71-8.32-8.29-9.51-13.72-.9-4.13-1.05-8.52-.85-12.77.33-7.28-.89-14.07-4.93-20.2-5.65-8.57-14.71-12.23-24.66-9.71-3.3.83-6.36 2.6-9.62 3.65-5.21 1.68-10.41 3.68-15.78 4.52-6.3.98-11.93-1.07-15.71-6.74-.25-.38-.69-.63-1.69-1.5.39 1.88.47 3.05.88 4.1 1.96 5.03 5.39 9.03 10.23 11.16 5.14 2.26 10.65 3.77 16.08 5.3 4.46 1.26 9.12 1.83 13.54 3.17 2.4.72 4.74 2.14 6.64 3.78 1.08.94 1.8 3.02 1.65 4.48-.21 2.13-2.36 3.14-4.28 2.91-2.67-.31-5.44-.89-7.84-2.04-14.6-6.98-29.1-14.17-43.63-21.27-2.13-1.04-4.29-2.01-6.4299-3.02zm60.1899 23.46c.05-.48.09-.96.14-1.44-7.02-7.52-17.05-6.62-26.16-8.4 6.83 3.82 13.81 7.29 20.96 10.38 1.36.59 3.36-.32 5.06-.54zm-30.1.62c-.32.35-.65.71-.97 1.06 5.64 6.48 9.91 14.49 19.28 17.16 1.03-4.17 1.09-4.71-1.03-6.23-5.69-4.09-11.51-8.01-17.28-12z"/><path d="m165.012 371.139c-1.54.68-3.23 1.14-4.6 2.08-11.94 8.21-25.28 13.08-39.42 15.23-8.17 1.24-16.47 1.71-25.0002.61-11.08-1.44-21.81-3.68-32.31-7.33-.44-.15-.99-.02-1.93-.02.41.51.57.91.86 1.05 14.15 6.81 28.96 10.49 44.7702 9.24 1.17-.09 2.33-.82 3.46-.75 1.21.08 3.03.47 3.39 1.26.4.89-.51 2.39-.93 3.6-.1.28-.48.47-.76.68-12.22 8.99-29.3402 12.27-43.6302 4.03-6.86-3.96-11.86-9.84-16.1-16.41-1.37-2.12-1.19-4.21.76-6.38-.44-.33-.92-.67-1.38-1.04-3.19-2.59-3.11-4.38.39-6.63 8-5.14 16.48-9.39 25.88-10.97 7.68-1.29 15.45-1.11 22.3302 3.59 4.92 3.37 8.66 7.77 11.41 13.03.55 1.05 1.05 2.12 1.55 3.12 9.53-1.25 21.94-5.17 26.68-8.22-6.64-1.81-13.7-3.56-20.64-5.69-4.24-1.31-4.61-3.98-1.2-6.98 5-4.4 10.86-7.19 17.36-8.51 10.77-2.2 21.49-1.41 32.03 1.31 2.48.64 4.21.39 6.2-.92 7.23-4.82 13.37-10.78 18.76-17.55.75-.94 1.31-2.13 2.26-2.77.69-.46 2.08-.58 2.75-.17.68.41 1.36 1.81 1.15 2.5-.55 1.77-1.42 3.49-2.47 5.04-8.04 11.92-17.99 22.07-29.06 31.19-.77.63-1.35 1.5-2.02 2.26-.16.21-.34.4-.54.57zm-53.01 10.24c-.82-1.7-1.54-3.25-2.3-4.78-6.1-12.38-16.5502-17.56-30.1802-15.17-8.81 1.54-16.71 5.2-24.27 9.77-1.11.67-2.05 1.6-3.6 2.84 29.58 13.5 59.0502 18.21 89.6502 6.38 20.35-7.87 48.23-31.6 51.19-43.82-1.33 1.07-2.23 2.61-3.5 3.72-4.39 3.86-8.9 7.57-13.37 11.33-2.43 2.04-5.06 2.4-8.19 1.58-4.15-1.08-8.41-1.87-12.66-2.36-9.95-1.14-19.6.07-28.6 4.73-2.85 1.47-5.68 3.08-7.81 6.35 12.43 6.1 24.89 6.98 38.3 3.26-8.82 6.83-33.32 15.7-44.65 16.18zm-57.2502.21c8.52 22.19 39.93 28.99 56.6302 12.11-20.5702 2.88-38.6302-3.47-56.6302-12.11z"/><path d="m195.801 48.9084c-5.03 1.27-5.82.7-5.99-4.23-.29-8.3.13-16.43 4.14-24.04 5.71-10.84 15-16.66 26.59-19.2 3.17-.700001 6.49-.740001 9.75-.920001 2.54-.13 4.71.580001 5.2 3.540001 5.73-2.46 7.63-1.81 7.59 3.64-.08 12.35-.57 24.75-7.72 35.61-4.26 6.47-10.05 10.71-17.92 11.56-3.98.43-7.99.6-12.88.95-3.42 8.12-5.23 17.57-6.39 27.42 6.05-6.42 11.22-13.65 19.17-17.7 2.53 1.25 3.01 3.25 3.25 5.61 1.46 14.53-3.31 26.98-12.46 38.0196-1.32 1.59-2.3 3.62-3.92 4.76-5.14 3.62-5.17 8.83-4.06 13.88 1.49 6.83 3.85 13.47 5.84 20.19.42 1.42.85 2.84 1.26 4.24-4.53 1.57-5.31 1.44-7.08-2.61-2.88-6.6-5.96-13.19-8-20.07-2.37-7.99-4.73-16.23-5.27-24.47-1.05-16.1096-.58-32.2596 5.88-47.5696 1.19-2.81 1.95-5.8 2.91-8.72 1.11-1.48 2.39-2.85 3.3-4.44 7.35-12.82 17.23-23.47 28.24-33.18.77-.68 1.48-1.44 2.56-2.5-1.01 0-1.42-.13-1.64.02-10.51 7.29-20.14 15.58-26.84 26.59-2.5 4.11-5.75 8.24-5.52 13.6zm44.15-43.8c-26.33 17.98-45.1 41-50.14 73.2-3.39 21.68 3.17 57.3596 12.21 66.7196-.55-2.13-1.06-3.75-1.38-5.4-1.06-5.57-2.09-11.14-3.03-16.73-.55-3.24.35-5.84 2.87-8.29 5.58-5.42 10.2-11.64 13.64-18.6696 3.38-6.92 5.3-14.18 4.66-21.95-.16-1.9-.79-3.76-1.35-6.29-11.37 7.86-18.39 17.73-22.26 30.04-.06-15.61 2.54-30.5 7.88-44.69 4.16 0 7.59.14 11.02-.03 7.67-.36 14.02-3.54 18.46-9.82 8.13-11.48 8.69-24.56 7.42-38.1zm-8.03-1.99c-22.98-4.000001-45.1 20.37-38.66 42.92 7.78-19.26 22.31-31.61 38.66-42.92z"/><path d="m287.785 65.1087c8.07 4.72 13.66 11.14 18.81 18.23 1.11-3.73 1.09-4.24-1.59-14.35-1.22-4.6-2.59-9.17-3.85-13.58-.98-.21-1.51-.5-1.96-.4-14.3 3.25-27.34-5.32-31.97-17.06-2.41-6.11-4.18-12.29-4.14-18.94.01-2.37-.64-4.73-.88-7.11-.12-1.19-.1-2.41996.03-3.60996.64-5.87 2.1-6.69 7.7-4.29.75-2.83 2.92-3.520002 5.52-3.490002 13.41.17 24.99 4.570002 33.34 15.409962 4.36 5.66 6.46 12.43 6.81 19.62.14 2.92.06 5.85.02 8.78-.06 4.88-.08 4.88-5.56 5.81.62 1.79 1.15 3.53 1.83 5.2 4.67 11.38 6.66 23.18 6.98 35.51.42 16.5503-2.69 32.3203-8.53 47.6503-1.58 4.16-3.58 8.16-5.43 12.22-.28.62-.64 1.51-1.14 1.66-1.38.4-2.91.76-4.26.5-.4-.08-.81-2.4-.48-3.47 1.36-4.41 3.11-8.71 4.49-13.12.87-2.77 1.62-5.63 1.91-8.5.51-5.12.37-9.68-4.01-14.05-7.44-7.42-13.47-16.2303-15.46-26.8603-1.03-5.49-.92-11.24-.87-16.86.01-1.56 1.67-3.1 2.71-4.87zm16.04 80.3403c12.73-25.78 17.19-52.7903 8.75-81.1103-6.82-22.91-30.89-52.96-47.43-59.25996-.95 9.77996-.26 19.24996 2.88 28.44996 3.83 11.25 11.93 20.68 28.56 19.54 2-.14 4.01-.02 5.83-.02 5.7 13.86 9.53 36.74 7.31 44.05-3.6-12.41-10.64-21.89-21.34-29.25-2.39 5.27-2.04 10.04-1.24 14.77 2.1 12.57 8.81 22.7003 17.56 31.5003 3.07 3.09 3.98 6.22 3.24 10.16-1.33 7.07-2.74 14.11-4.12 21.17zm-29.62-142.42026c15.77 11.29996 30.26 23.64996 38.06 42.87996 5.1-25.1-12.36-43.51996-38.06-42.87996zm35.02 45.62996c-1.08-13.76-21.21-34.9-34.49-40.68996 13.61 11.24996 25.23 24.22996 34.49 40.68996z"/><path d="m270.07 482.567c-1.25.59-1.84.97-2.49 1.15-2.99.85-3.78.62-4.52-2.27-.62-2.45-1.01-5.1-.8-7.6.46-5.44 1.01-10.92 2.16-16.25 1.81-8.37 5.35-15.91 12.57-21.17 4.15-3.02 8.69-4.76 13.93-4.5 3.23.16 6.48.03 9.68.03 3.82-9.31 5.69-18.47 6.22-27.95-3.81 4.09-7.56 8.25-11.46 12.25-1.55 1.58-3.34 2.99-5.23 4.16-2.12 1.31-3.39.77-4.46-1.59-.41-.91-.66-1.95-.76-2.95-1.18-12.49 1.92-23.84 9.36-33.93 2.75-3.73 5.61-7.42 8.81-10.77 1.99-2.09 2.55-4.22 2.54-6.93-.02-8.94-2.85-17.17-6-25.34-.71-1.85-2.38-3.79.12-5.42 1.85-1.2 3.71-.01 5.32 3.33 6.21 12.86 10.74 26.19 12.8 40.44 1.37 9.46 1.49 18.96.59 28.26-2.01 20.65-10.25 38.94-24.34 54.32-5.22 5.69-10.99 10.87-16.52 16.27-.98.96-1.98 1.88-2.67 3.38.83-.38 1.75-.63 2.48-1.14 11.74-8.33 22.24-17.84 29.13-30.74 1.28-2.4 2.21-5.01 3.23-7.54.72-1.78 1.81-2.99 3.87-2.59 2.05.4 1.94 2.14 1.95 3.68.04 6.34.33 12.67-1.45 18.9-4.38 15.24-17.71 24.18-32.18 25.84-2.39.27-4.81.27-7.22.26-2.16 0-4.19-.39-4.67-3.57zm32.53-48.72c-3.92 0-7.17-.04-10.43 0-4.58.06-8.84 1.33-12.7 3.79-5.79 3.69-9.17 9.21-11.39 15.52-2.91 8.24-3.57 16.79-3.23 25.44.04 1.08.44 2.15.84 3.96 23.93-17.1 41.92-37.68 48.58-66.38 6.07-26.2 1.41-51.08-10.36-74.86-.19 1.35.15 2.61.43 3.88 1.18 5.54 2.36 11.08 3.52 16.62.94 4.51.26 8.42-3.69 11.47-1.74 1.34-3.05 3.26-4.46 5-6.26 7.74-11.02 16.23-12.59 26.21-.74 4.71-1.05 9.45 1.21 14.64 10.98-7.6 18.05-17.29 21.89-29.55.53 15.29-2.49 29.86-7.61 44.25zm-28.28 50.11c13.25-.18 25.08-3.49 33.05-15 5.57-8.04 7.89-21.69 4.6-27.26-7.64 18.6-21.98 30.9-37.66 42.26z"/><path d="m197.851 404.018c.33 2.12.5 4.28 1.03 6.36 1.59 6.3 3.39 12.55 4.94 18.87.53 2.14 1.78 2.73 3.71 2.71 2.76-.02 5.51.01 8.27.02 7.67.03 13.53 3.74 18.06 9.51 5.58 7.09 7.81 15.48 8.44 24.37.22 3.07.66 6.12.94 9.19.09 1.02.06 2.07 0 3.1-.39 6.07-1.77 6.96-7.66 4.56-.59 2.29-2.1 3.46-4.59 3.49-13.47.21-25.06-3.83-33.72-14.66-4.91-6.14-6.97-13.3-7.42-20.99-.19-3.26-.04-6.54 0-9.82.02-1.67.5-3.17 2.46-3.34 1.79-.16 2.78.89 3.38 2.54 6.64 18.19 20.36 30.09 35.99 40.3-1.05-2.04-2.87-3.37-4.59-4.82-8.86-7.47-16.86-15.82-23.42-25.34-8.57-12.42-14.11-26.08-16.14-41.25-1.17-8.78-1.32-17.58-.68-26.21 1-13.35 4.78-26.25 10.29-38.54.91-2.04 1.86-4.06 2.82-6.08.52-1.09.85-2.48 1.72-3.12 1.11-.82 2.84-1.64 4.01-1.34 1.9.49 1.46 2.4.95 3.9-1.7 5.02-3.72 9.96-5.05 15.08-1.02 3.94-1.21 8.1-1.74 12.16-.31 2.38.73 4.12 2.22 6.01 4.66 5.92 9.4 11.85 13.38 18.22 5.2 8.33 5.84 17.82 5.05 27.39-.41 5.01-2.79 6.17-6.64 2.93-4.06-3.41-7.69-7.35-11.41-11.16-1.29-1.31-2.3-2.89-3.43-4.35-.39.1-.78.2-1.16.31zm42.07 77.74c1.37-12.78.69-25.01-6.03-36.09-4.62-7.63-11.63-11.53-20.57-11.8-3.25-.1-6.51-.02-10.32-.02-5.18-14.2-7.94-28.99-8.24-44.7 3.1 5.91 5.62 11.53 8.87 16.68 3.36 5.33 7.94 9.63 14.08 13.35.48-2.87.98-4.84 1.12-6.84.54-8.15-1.69-15.68-5.42-22.82-3.46-6.62-7.99-12.48-13.32-17.67-2.07-2.02-2.98-4.19-2.52-6.9 1.06-6.26 2.22-12.51 3.4-18.76.34-1.79.9-3.53 1.36-5.3l-1.05-.16c-11.56 24.9-16.46 50.75-9.34 77.96 7.19 27.52 24.83 47.35 47.98 63.05zm-47.04-39.87c-1.64 12.45.66 23.82 10.28 32.78 7.24 6.74 22.02 11.26 28.16 8.88-27.48-20.57-29.67-26.07-38.44-41.66z"/><path d="m164.494 115.888c6.44 5.93 13.24 11.52 19.21 17.89 5.24 5.6 9.55 12.07 14.24 18.18.51.66 1.03 1.5 1.07 2.29.05.91-.18 2.41-.72 2.64-.93.4-2.34.32-3.28-.12-.84-.39-1.32-1.53-1.96-2.34-4.8-6.13-10.4-11.41-16.66-16.06-3.26-2.43-6.33-3.17-10.44-2.14-11.32 2.83-22.75 3.29-34.12-.17-5.2-1.59-9.76-4.25-13.81-7.81-2.83-2.48-2.71-4.95.77-6.19 4.98-1.77 10.18-2.92 15.31-4.25 1.94-.5 3.94-.77 5.98-1.68-8.02-4.47-16.67-6.7-25.79-8.52-1.55 2.43-3.09 4.86-4.65 7.27-7.48 11.61-18.4596 14.89-31.3796 12.58-9.07-1.62-17.36-5.51-25.09-10.5-4.56-2.95-4.49-4.54.33-8.01-2.26-2.75-1.74-5.35.31-8.13 3.9-5.2903 8.06-10.2903 13.67-13.8703 4.56-2.91 9.46-4.66 14.94-5.16 10.37-.95 19.7896 1.46 28.4396 7.12 1.82 1.19 4.53 2.32 3.59 4.99-1.01 2.89-3.69 1.2-5.8 1.23-7.02.08-14.1296-.12-21.0496.86-9.91 1.41-19.26 4.9503-27.99 10.2403.81-.17 1.62-.31 2.41-.52.83-.22 1.63-.55 2.46-.76 8.8-2.22 17.5-5.2303 26.44-6.4803 24.4696-3.44 47.4296 1.34 68.5096 14.5103 1.45.91 2.99 1.67 4.49 2.51.18.16.38.29.59.42zm-112.8496-2.45c9.13 5.98 18.1 10.47 28.32 12.15 13.47 2.21 23.6896-3.01 29.7096-15.21.82-1.65 1.63-3.3 2.35-4.76 11.35.4 37.25 9.81 43.73 15.7-16.18-3.19-31.37-1.39-37 4.55 5.57 5.62 12.51 8.3 20.08 9.72 9.52 1.79 18.91.71 28.13-1.75 3.51-.94 6.41-.61 9.1 1.72 4.93 4.28 9.85 8.58 14.76 12.88.95.83 1.84 1.72 2.75 2.59-31.15-49.45-88.06-65.1103-141.9296-37.61zm2.68-8.01c5.3-2.29 9.61-4.36 14.07-6.0303 4.5-1.68 9.09-3.23 13.75-4.34 4.84-1.14 9.79-1.98 14.74-2.4 4.5996-.4 9.2696-.09 14.0596-.09-17.1696-15.96-45.0496-9.98-56.6196 12.8503z"/><path d="m164.493 115.89c-.21-.12-.4-.26-.59-.42-2.31-3.17-4.35-6.58-6.96-9.47-15.05-16.6498-32.83-29.0898-54.82-34.8398-2.6303-.69-5.3503-1.06-7.9203-1.9-1.09-.36-2.62-1.54-2.64-2.38-.02-.95 1.26-2.53 2.26-2.8 5.25-1.44 10.5503-3.21 15.9203-3.63 7.48-.58 15.06-.79 22.5 1.31 9.25 2.62 16.78 7.68 22.92 14.96.44.52.92 1 1.4 1.48.09.09.27.09.57.18-.84-3.53-1.71-6.97-2.47-10.44-3.11-14.07.89-26.5 9.26-37.66 3.58-4.78 7.96-8.97 12.05-13.36 1.14-1.22 2.64-3.08 4.26-1.53.89.85 1.05 3.33.52 4.66-2.57 6.42-4.48 13.02-4.94 19.87-.5 7.52-1.09 15.16-.33 22.62 1.34 13.13 4.18 26.02 9.46 38.2498.39.9.46 2.02.41 3.02-.09 1.8-1.4 2.55-2.85 1.87-1.83-.86-3.64-2.01-5.08-3.42-5.14-4.9998-10.12-10.1598-15.63-15.7298 3.53 9.65 7.15 18.7898 6.98 29.3698h-4.26zm18.06-11.95c-.05-.99-4.42-85.4998-4.47-86.3798-12.98 12.38-22.66 25.76-21.82 44.08.85 18.58 12.37 30.79 26.29 42.2898zm-88.5803-36.9998c15.7403 2.49 28.7703 8.46 40.7803 16.83 10.52 7.33 19.76 16.05 28.09 25.7598.93 1.09 2 2.06 3.01 3.09-.92-12.55-4.25-23.9598-11.75-33.8298-6.31-8.29-14.68-13.4-24.81-15.6-11.05-2.41-21.9-1.08-32.6203 2.07-.59.17-1.09.66-2.71 1.67z"/><path d="m165.015 371.14c.2-.17.38-.36.54-.57.91.33 2.4.44 2.62 1.03.53 1.37.87 3.08.54 4.47-1.45 6.15-3.15 12.24-4.8 18.35-.44 1.62-1.03 3.19-1.77 5.45 4.54-4.62 8.52-8.73 12.58-12.76 1.58-1.57 3.31-3 5.03-4.42 1.3-1.07 2.69-2.74 4.49-1.58 1.96 1.26 1.28 3.36.56 5.12-3.91 9.56-6.59 19.46-8.22 29.64-2.72 17-2.52 33.8 3.79 50.15.62 1.6.53 3.46.94 6.41-2.59-1.1-4.37-1.37-5.45-2.38-8.43-7.98-15.86-16.69-19.73-27.92-3.24-9.38-3.38-18.77-.42-28.23.31-.98.6-1.96.81-2.96.05-.26-.24-.59-.6-1.38-1.45 1.43-2.78 2.7-4.07 4.02-8.48 8.75-18.96 12.69-30.99 13.15-8.69.33-17.17-.67-25.4599-3.27-2.42-.76-4.76-1.48-3.75-5.21 1.62-.4 3.38-.91 5.18-1.26 18.5299-3.65 34.4499-12.37 48.5599-24.73 7.27-6.37 13.8-13.41 19.62-21.12zm17.16 12.83c-14.59 11.38-26.55 24.55-25.94 44.64.51 16.83 9.62 29.31 21.75 39.91-7.22-28.02-8.2-42.93 4.19-84.55zm-15.93-10.42c-9.82 11.46-19.93 21.65-31.85 29.87-11.93 8.23-24.9 14.05-39.5999 16.52.75.92.91 1.33 1.18 1.41 11.5199 3.67 23.1899 5.06 35.0699 1.93 19.95-5.25 35.5-26.83 35.21-49.74z"/><path d="m55.3457 288.23c-.68 1.61-.99 3.31-1.96 4.48-8.83 10.67-12.71 23.36-15.07 36.65-.92 5.19-1.26 10.47-2.04 15.69-.23 1.55-1.09 3-1.7 4.57-7.7-4.14-12.44-27.99-7.71-39.51 4.47-10.9 19.33-23.23 28.47-21.87zm-3.22 2.22c-12.79 3.36-23.66 16-25.12 28.32-1.14 9.61 2.61 23.4 7.14 25.94 1.5-19.25 4.97-37.84 17.98-54.26z"/><path d="m54.0721 199.547c-1.28-.26-2.85-.29-4.16-.88-11.35-5.14-20.49-12.53-23.89-25.13-2-7.42-1.52-14.96.59-22.3 1.04-3.6 2.73-7.01 4.16-10.49.66-1.6 1.92-2.78 3.57-1.96.95.47 1.79 1.98 1.93 3.12 1.33 10.47 2.27 20.98 5.85 31.06 2.78 7.83 6.16 15.27 11.67 21.57 1.27 1.46 1.78 2.87.28 5.03zm-2.78-3.58c-5.93-7.78-10.22-16.38-12.47-25.77-2.25-9.36-3.65-18.92-5.44-28.43-14.03 19.37-5.41 46.27 17.91 54.19z"/><path d="m135.641 54.9065c-9.21 1.53-16.36-7.94-16.46-15.85-.11-9.47 7.45-16.99 16.85-17.06 9.66-.07 16.6 8.42 16.35 16.86-.29 9.68-6.76 16.06-16.74 16.05zm14.66-16.36c-.03-7.89-6.55-14.43-14.42-14.48-8.03-.05-14.72 6.78-14.56 14.85.16 7.95 6.64 14.18 14.67 14.09 7.98-.08 14.33-6.51 14.3-14.47z"/><path d="m150.251 447.33c-.13 9.16-7.85 16.57-17.04 16.35-8.92-.22-16.33-7.78-16.08-16.75.26-9.45 6.23-16.61 16.47-16.76 9.83-.14 16.61 7.56 16.65 17.16zm-2.09-.21c.04-7.99-6.39-14.43-14.44-14.45-8.06-.03-14.54 6.36-14.56 14.34-.02 7.96 6.47 14.48 14.44 14.51s14.52-6.45 14.57-14.39z"/><path d="m33.1126 242.369c-.02 9.54-6.89 16.22-16.64 16.19-9.59-.03-16.039997-6.8-15.979997-16.76.06-9.56 6.539997-15.88 16.259997-15.85 9.73.02 16.37 6.69 16.36 16.43zm-30.72-.22c-.03 8.19 6.19 14.52 14.27 14.53 7.92 0 14.55-6.57 14.56-14.45.01-7.85-6.62-14.51-14.48-14.55-8-.04-14.33 6.34-14.35 14.47z"/><path d="m279.163 299.909c-6.32-.05-10.92-4.75-10.81-11.06.11-6.15 4.93-10.57 11.43-10.48 6.41.09 11.33 4.85 10.85 11.13-.51 6.66-5.3 11.15-11.48 10.41zm8.94-10.6c-.02-4.94-4.03-8.92-8.86-8.79-4.63.12-8.47 3.98-8.58 8.62-.12 4.89 3.77 8.89 8.68 8.94 5.02.05 8.78-3.72 8.76-8.77z"/><path d="m263.99 42.1666c0 7.32-3.31 10.65-10.59 10.66-7.04 0-10.86-3.67-10.9-10.51-.03-6.42 4.41-10.97 10.73-11 6.54-.03 10.77 4.24 10.76 10.85zm-10.47 8.72c4.85-.1 8.78-4.26 8.59-9.11-.17-4.65-4.1-8.49-8.7-8.52-4.75-.03-8.98 4.17-8.94 8.88.04 4.74 4.29 8.84 9.05 8.74z"/><path d="m67.3821 343.719c-.67-6.28 4.19-11.13 10.78-10.7 6.67.44 10.7 4.01 10.73 10.46.03 6.54-4.38 11.12-10.73 11.14-6.65.02-10.8-4.17-10.79-10.91zm10.51-8.77c-4.95.01-8.83 3.96-8.73 8.88.09 4.65 3.91 8.53 8.54 8.67 4.71.14 8.97-3.98 9.04-8.73.07-4.82-3.96-8.83-8.85-8.82z"/><path d="m78.5139 131.227c5.89-.05 11.29 5.14 11.4 10.97.1 5.37-5.65 11.07-11.34 11.23-5.77.16-11.11-5.15-11.05-11.21.05-6.09 4.18-10.91 10.99-10.99zm-.18 19.82c4.92.07 8.88-3.84 8.89-8.75 0-4.86-4.04-8.87-8.88-8.79-4.65.07-8.52 3.89-8.65 8.53-.14 4.87 3.77 8.95 8.65 9.01z"/><path d="m262.944 445.248c-.06 6.26-4.37 10.36-10.85 10.3-6.52-.06-10.69-4.42-10.64-11.13.05-6.78 3.98-10.45 11.12-10.37 6.72.07 10.43 4.08 10.36 11.2zm-10.42-9.17c-4.84-.14-9.07 3.85-9.14 8.6-.07 4.71 4.09 8.95 8.84 8.99 4.55.04 8.59-3.82 8.82-8.42.23-4.84-3.66-9.03-8.51-9.17z"/><path d="m215.612 289.259c0-6.54 4.3-10.88 10.81-10.88 6.23 0 10.61 4.36 10.68 10.63.07 6.77-3.99 10.54-10.71 11.01-5.9.42-11.78-4.74-10.77-10.76zm19.49-.01c-.11-4.81-4.37-8.85-9.11-8.64-4.8.21-8.72 4.48-8.49 9.27.22 4.7 4.04 8.26 8.84 8.25 4.93-.01 8.88-4.01 8.77-8.87z"/><path d="m210.262 243.957c-.08 5.72-4.78 10.41-10.47 10.44-6.15.03-10.66-4.94-11.16-11.01-.43-5.35 5.3-10.64 10.98-10.74 6.31-.12 10.73 4.7 10.64 11.32zm-1.84-.37c.03-4.93-3.9-8.86-8.82-8.83-4.88.03-8.91 4.12-8.8 8.92.1 4.58 4.01 8.49 8.64 8.62 4.86.14 8.95-3.83 8.98-8.71z"/><path d="m225.911 208.329c-7.45.31-10.57-5.07-11.04-11s5.17-10.36 11.64-10.53c5.3-.14 11.06 5.49 10.67 10.92-.47 6.45-4.54 10.66-11.27 10.61zm.48-2.08c4.9-.12 8.81-4.27 8.58-9.09-.22-4.63-4.18-8.43-8.78-8.45-4.85-.02-8.82 4.01-8.78 8.91.04 4.91 4.05 8.76 8.98 8.64z"/><path d="m289.833 197.778c-.02 7.08-3.4 10.52-10.35 10.54-6.55.02-11.21-4.54-11.13-10.88.07-6.18 4.59-10.6 10.86-10.61 6.94-.01 10.65 3.81 10.63 10.94zm-1.83-.53c-.1-4.91-4.2-8.83-9.02-8.63-4.57.19-8.46 4.18-8.51 8.75-.06 4.82 3.99 8.84 8.88 8.83 4.93-.01 8.75-3.97 8.65-8.95z"/><path d="m316.659 243.387c0 6.15-4.8 10.99-10.88 10.98-4.7-.01-10.71-4.66-10.74-10.92-.03-6.56 6.25-10.92 10.69-10.97 5.99-.07 10.94 4.81 10.94 10.91zm-10.58-8.75c-4.92-.06-8.99 3.88-8.99 8.7 0 4.84 4.05 8.81 8.96 8.75 4.74-.05 8.55-3.76 8.68-8.46.14-4.92-3.71-8.94-8.65-9z"/></g></g></svg>