<svg fill="none" height="42" viewBox="0 0 65 42" width="65" xmlns="http://www.w3.org/2000/svg"><path d="m64.1793.402573-1.6541 8.449477c-3.3817-.21665-6.065.21666-8.05 1.29995-1.9849 1.0291-3.3449 2.5186-4.0801 4.4684-.6616 1.8958-.7719 4.0623-.3308 6.4996h14.115v20.88h-27.2376v-21.6924c0-7.0954 2.279-12.45757 6.837-16.08651 4.558-3.683104 11.3582-4.955948 20.4006-3.818517zm-36.9417 0-1.6541 8.449477c-3.3817-.21665-6.065.21666-8.05 1.29995-1.9849 1.0291-3.3449 2.5186-4.0801 4.4684-.6616 1.8958-.7719 4.0623-.3308 6.4996h14.115v20.88h-27.2376v-21.6924c0-7.0954 2.27899-12.45757 6.83697-16.08651 4.55803-3.683104 11.35823-4.955948 20.40063-3.818517z" fill="#c6c6c6"/></svg>