<svg width="100" height="100" viewBox="0 0 100 100" fill="none" xmlns="http://www.w3.org/2000/svg">
<rect width="100" height="100" fill="white"/>
<path d="M10.8125 79.7295V70.27H29.7314V89.1889H10.8125V79.7295ZM27.0287 79.7295V72.9727H13.5152V86.4862H27.0287V79.7295ZM16.2179 79.7295V75.6754H24.326V83.7835H16.2179V79.7295ZM35.1368 87.8376V86.4862H32.4341V81.0808H35.1368V72.9727H37.8395V70.27H32.4341V67.5673H21.6233V64.8646H24.326V62.1619H18.9206V67.5673H16.2179V64.8646H10.8125V62.1619H16.2179V56.7565H13.5152V59.4592H10.8125V54.0538H16.2179V56.7565H18.9206V59.4592H21.6233V56.7565H24.326V59.4592H29.7314V56.7565H27.0287V54.0538H18.9206V51.3511H27.0287V48.6484H18.9206V45.9457H16.2179V48.6484H10.8125V40.5403H13.5152V43.243H29.7314V40.5403H27.0287V37.8376H21.6233V40.5403H18.9206V37.8376H13.5152V32.4322H18.9206V37.8376H21.6233V35.1349H27.0287V32.4322H29.7314V35.1349H27.0287V37.8376H29.7314V40.5403H32.4341V35.1349H35.1368V32.4322H32.4341V24.3241H37.8395V27.0268H40.5422V29.7295H37.8395V32.4322H40.5422V48.6484H35.1368V45.9457H32.4341V48.6484H29.7314V51.3511H27.0287V54.0538H29.7314V56.7565H32.4341V59.4592H37.8395V56.7565H35.1368V54.0538H32.4341V51.3511H37.8395V56.7565H40.5422V51.3511H43.2449V56.7565H45.9476V48.6484H48.6503V45.9457H51.353V48.6484H48.6503V51.3511H51.353V54.0538H59.4612V51.3511H56.7584V48.6484H54.0557V43.243H51.353V40.5403H54.0557V37.8376H56.7584V35.1349H54.0557V32.4322H51.353V37.8376H48.6503V35.1349H45.9476V37.8376H43.2449V35.1349H45.9476V32.4322H43.2449V24.3241H40.5422V21.6214H43.2449V24.3241H45.9476V13.5132H48.6503V18.9187H54.0557V16.216H51.353V10.8105H56.7584V13.5132H54.0557V16.216H59.4612V13.5132H62.1639V10.8105H67.5693V18.9187H62.1639V16.216H59.4612V21.6214H62.1639V29.7295H64.8666V27.0268H67.5693V40.5403H72.9747V37.8376H70.272V32.4322H75.6774V40.5403H81.0828V37.8376H78.3801V32.4322H81.0828V37.8376H83.7855V35.1349H89.1909V40.5403H86.4882V37.8376H83.7855V40.5403H81.0828V48.6484H83.7855V51.3511H81.0828V54.0538H75.6774V56.7565H72.9747V59.4592H67.5693V56.7565H64.8666V54.0538H62.1639V59.4592H64.8666V62.1619H72.9747V64.8646H78.3801V62.1619H75.6774V59.4592H78.3801V56.7565H81.0828V59.4592H83.7855V62.1619H86.4882V56.7565H83.7855V54.0538H89.1909V62.1619H86.4882V67.5673H89.1909V72.9727H86.4882V81.0808H89.1909V83.7835H81.0828V89.1889H72.9747V86.4862H78.3801V83.7835H72.9747V78.3781H70.272V83.7835H67.5693V86.4862H70.272V89.1889H64.8666V81.0808H62.1639V86.4862H59.4612V83.7835H56.7584V72.9727H59.4612V81.0808H62.1639V72.9727H64.8666V67.5673H62.1639V64.8646H59.4612V62.1619H62.1639V59.4592H59.4612V56.7565H56.7584V67.5673H59.4612V70.27H54.0557V75.6754H51.353V81.0808H54.0557V83.7835H51.353V86.4862H56.7584V89.1889H51.353V86.4862H48.6503V83.7835H45.9476V89.1889H35.1368V87.8376ZM43.2449 83.7835V81.0808H45.9476V72.9727H40.5422V75.6754H43.2449V78.3781H37.8395V81.0808H35.1368V83.7835H37.8395V86.4862H43.2449V83.7835ZM81.0828 81.0808V78.3781H83.7855V72.9727H86.4882V70.27H83.7855V62.1619H81.0828V70.27H83.7855V72.9727H81.0828V75.6754H78.3801V83.7835H81.0828V81.0808ZM67.5693 79.7295V78.3781H64.8666V81.0808H67.5693V79.7295ZM51.353 74.3241V72.9727H48.6503V75.6754H51.353V74.3241ZM75.6774 71.6214V67.5673H67.5693V75.6754H75.6774V71.6214ZM70.272 71.6214V70.27H72.9747V72.9727H70.272V71.6214ZM48.6503 68.9187V67.5673H54.0557V64.8646H48.6503V62.1619H45.9476V64.8646H48.6503V67.5673H43.2449V64.8646H40.5422V67.5673H37.8395V64.8646H35.1368V62.1619H32.4341V59.4592H29.7314V62.1619H27.0287V64.8646H29.7314V62.1619H32.4341V64.8646H35.1368V67.5673H37.8395V70.27H48.6503V68.9187ZM40.5422 60.8105V59.4592H37.8395V62.1619H40.5422V60.8105ZM54.0557 59.4592V56.7565H48.6503V59.4592H51.353V62.1619H54.0557V59.4592ZM70.272 55.4051V54.0538H67.5693V56.7565H70.272V55.4051ZM75.6774 52.7024V51.3511H78.3801V43.243H75.6774V45.9457H72.9747V48.6484H70.272V45.9457H64.8666V43.243H62.1639V40.5403H64.8666V32.4322H62.1639V29.7295H59.4612V27.0268H56.7584V29.7295H54.0557V21.6214H56.7584V24.3241H59.4612V21.6214H56.7584V18.9187H54.0557V21.6214H51.353V29.7295H54.0557V32.4322H56.7584V29.7295H59.4612V37.8376H56.7584V40.5403H54.0557V43.243H56.7584V48.6484H59.4612V45.9457H64.8666V48.6484H67.5693V51.3511H72.9747V54.0538H75.6774V52.7024ZM72.9747 49.9997V48.6484H75.6774V51.3511H72.9747V49.9997ZM29.7314 47.297V45.9457H32.4341V43.243H29.7314V45.9457H27.0287V48.6484H29.7314V47.297ZM37.8395 41.8916V40.5403H35.1368V43.243H37.8395V41.8916ZM37.8395 28.3781V27.0268H35.1368V29.7295H37.8395V28.3781ZM48.6503 27.0268V24.3241H45.9476V29.7295H48.6503V27.0268ZM64.8666 14.8646V13.5132H62.1639V16.216H64.8666V14.8646ZM86.4882 87.8376V86.4862H89.1909V89.1889H86.4882V87.8376ZM86.4882 48.6484V45.9457H83.7855V43.243H86.4882V45.9457H89.1909V51.3511H86.4882V48.6484ZM10.8125 20.27V10.8105H29.7314V29.7295H10.8125V20.27ZM27.0287 20.27V13.5132H13.5152V27.0268H27.0287V20.27ZM16.2179 20.27V16.216H24.326V24.3241H16.2179V20.27ZM70.272 20.27V10.8105H89.1909V29.7295H70.272V20.27ZM86.4882 20.27V13.5132H72.9747V27.0268H86.4882V20.27ZM75.6774 20.27V16.216H83.7855V24.3241H75.6774V20.27ZM32.4341 20.27V18.9187H35.1368V21.6214H32.4341V20.27ZM37.8395 17.5673V16.216H35.1368V10.8105H37.8395V13.5132H40.5422V10.8105H43.2449V13.5132H40.5422V18.9187H37.8395V17.5673Z" fill="black"/>
</svg>
