<svg width="188" height="154" viewBox="0 0 188 154" fill="none" xmlns="http://www.w3.org/2000/svg">
<path d="M43.085 123.422V124.129C43.085 124.315 43.085 124.463 43.1222 124.501C43.1594 124.538 43.2338 124.575 43.3454 124.575H43.457H43.6058H43.8662C44.0894 124.575 44.2382 124.463 44.3498 124.203L44.4242 124.054C44.4614 124.017 44.4614 123.98 44.5358 123.98C44.573 123.98 44.6102 124.017 44.6102 124.054C44.6102 124.054 44.6102 124.129 44.6102 124.203C44.6102 124.277 44.6102 124.315 44.6102 124.352C44.6102 124.426 44.6102 124.575 44.6474 124.835C44.6474 125.021 44.6846 125.133 44.6846 125.282V125.431C44.6846 125.468 44.6846 125.468 44.6846 125.505L44.6474 125.542C44.6102 125.542 44.573 125.505 44.5358 125.431C44.4986 125.245 44.4242 125.096 44.3498 125.021C44.2754 124.984 44.2382 124.947 44.1266 124.91C44.0522 124.91 43.9034 124.873 43.6802 124.873H43.457C43.3454 124.873 43.271 124.873 43.2338 124.91C43.1966 124.947 43.1594 125.021 43.1594 125.096C43.1594 125.207 43.1222 125.393 43.1222 125.617V125.914C43.1222 126.212 43.1594 126.435 43.1966 126.584C43.2338 126.695 43.271 126.733 43.3454 126.77C43.3826 126.807 43.457 126.807 43.5686 126.807C44.4614 126.807 45.0193 126.547 45.3169 125.989C45.3169 125.951 45.3541 125.951 45.3541 125.951C45.3913 125.951 45.3913 125.951 45.4285 125.989C45.4285 125.989 45.4657 126.026 45.4657 126.063C45.4657 126.286 45.3913 126.472 45.2797 126.695C45.1681 126.881 45.0565 126.993 44.9078 127.067C44.759 127.142 44.573 127.179 44.3498 127.179C44.201 127.179 44.0522 127.179 43.9034 127.142L43.5314 127.104C43.3826 127.104 43.1966 127.067 42.9735 127.067C42.8247 127.067 42.5643 127.067 42.2667 127.104C42.1923 127.104 42.1179 127.104 42.0807 127.104C42.0435 127.104 42.0063 127.067 42.0063 127.03C42.0063 126.993 42.0435 126.956 42.0807 126.956C42.1923 126.918 42.3039 126.844 42.3411 126.807C42.3783 126.77 42.4155 126.658 42.4527 126.509C42.4899 126.398 42.4899 126.249 42.4899 126.026V123.496C42.4899 123.236 42.4527 123.087 42.3783 123.013C42.3039 122.938 42.1179 122.864 41.8947 122.827C41.8203 122.827 41.8203 122.79 41.8203 122.715C41.8203 122.678 41.8575 122.641 41.9319 122.641C41.9319 122.641 41.9691 122.641 42.0435 122.641C42.0807 122.641 42.1179 122.641 42.1923 122.641H42.5271H43.7546C44.4614 122.641 44.9078 122.641 45.0565 122.604H45.0937C45.1681 122.604 45.2053 122.641 45.2053 122.715C45.2053 122.752 45.2053 122.864 45.2425 122.975C45.2425 123.161 45.2797 123.31 45.2797 123.385C45.2797 123.533 45.2425 123.645 45.1681 123.645C45.1309 123.645 45.0937 123.608 45.0937 123.496C45.0937 123.273 45.0193 123.124 44.8706 123.013C44.7218 122.901 44.4614 122.864 44.0894 122.864H43.6802L43.457 122.901C43.3454 122.938 43.3082 123.05 43.3082 123.236L43.085 123.422Z" fill="url(#paint0_linear_728_2381)"/>
<path d="M49.8824 122.639C49.9196 122.639 49.9568 122.639 49.994 122.639C50.2172 122.639 50.4032 122.676 50.552 122.676C50.6636 122.676 50.738 122.676 50.8496 122.676L51.2588 122.639C51.3332 122.639 51.4076 122.639 51.482 122.639C51.5564 122.639 51.5564 122.676 51.5564 122.714C51.5564 122.751 51.5192 122.788 51.4448 122.825C51.2588 122.862 51.11 122.899 50.9984 122.974C50.738 123.197 50.4032 123.532 50.0684 123.941C49.8081 124.239 49.6593 124.425 49.6593 124.462C49.5477 124.573 49.5105 124.648 49.5105 124.685C49.5105 124.722 49.5849 124.834 49.6965 124.983C49.7709 125.057 49.8825 125.243 50.1056 125.578C50.4776 126.099 50.7752 126.471 51.0356 126.731C51.1844 126.88 51.4076 126.991 51.6308 126.991C51.7052 126.991 51.7424 127.028 51.7424 127.103C51.7424 127.177 51.7052 127.177 51.6308 127.177C51.5936 127.177 51.5564 127.177 51.482 127.177L51.0728 127.14C50.8868 127.14 50.7008 127.103 50.552 127.103C50.4404 127.103 50.366 127.103 50.2544 127.103L49.8824 127.14C49.7709 127.14 49.6593 127.14 49.6221 127.14C49.5477 127.14 49.5105 127.103 49.5105 127.066C49.5105 126.991 49.5477 126.954 49.6221 126.954C49.8081 126.954 49.8824 126.842 49.8824 126.694C49.8824 126.619 49.8453 126.508 49.7337 126.322C49.6221 126.173 49.4361 125.875 49.1757 125.541L49.0269 125.317C48.9897 125.28 48.9897 125.243 48.9525 125.243C48.9525 125.243 48.9153 125.28 48.8781 125.317C48.8037 125.392 48.7665 125.466 48.6921 125.541C48.2085 126.099 47.9481 126.471 47.9481 126.619C47.9481 126.805 48.1341 126.917 48.4689 126.917C48.5433 126.917 48.5805 126.954 48.5805 126.991C48.5805 127.028 48.5433 127.066 48.5061 127.066C48.4689 127.066 48.4317 127.066 48.3945 127.066C48.1341 127.028 47.8738 127.028 47.6134 127.028C47.539 127.028 47.4274 127.028 47.3158 127.028H47.0182H46.8694H46.795C46.795 127.028 46.7578 126.991 46.7578 126.954C46.7578 126.917 46.795 126.88 46.8322 126.88C47.0182 126.842 47.167 126.768 47.353 126.619C47.5018 126.471 47.7622 126.247 48.0225 125.875C48.2829 125.578 48.4317 125.355 48.5433 125.243C48.6921 125.057 48.7665 124.945 48.7665 124.908C48.7665 124.871 48.6921 124.722 48.5061 124.536C48.3945 124.387 48.2829 124.239 48.1341 124.015C47.725 123.457 47.4646 123.123 47.353 122.974C47.2414 122.862 47.0554 122.751 46.8694 122.714C46.795 122.714 46.7578 122.676 46.7578 122.602C46.7578 122.528 46.795 122.49 46.8694 122.49C46.9066 122.49 46.981 122.49 47.0554 122.49C47.4274 122.528 47.6878 122.528 47.8366 122.528C47.9853 122.528 48.1341 122.528 48.2457 122.49L48.5433 122.453C48.6177 122.453 48.6921 122.453 48.7665 122.453C48.8409 122.453 48.8781 122.49 48.8781 122.528C48.8781 122.602 48.8409 122.639 48.7665 122.639C48.6921 122.639 48.6177 122.676 48.5805 122.714C48.5433 122.751 48.5061 122.825 48.5061 122.862C48.5061 122.974 48.5805 123.16 48.7293 123.42L48.9525 123.718L49.1757 124.053C49.2501 124.164 49.2873 124.201 49.3245 124.201C49.3617 124.201 49.3617 124.164 49.3989 124.127L49.5477 123.941L49.8824 123.532C50.0684 123.309 50.18 123.197 50.2172 123.123C50.2544 123.048 50.2916 122.974 50.2916 122.9C50.2916 122.751 50.2172 122.676 50.0312 122.639L49.8824 122.602C49.8081 122.602 49.7709 122.565 49.7709 122.49C49.7709 122.676 49.8081 122.639 49.8824 122.639Z" fill="url(#paint1_linear_728_2381)"/>
<path d="M55.175 122.604C55.5842 122.604 55.9189 122.678 56.2537 122.864L56.4769 122.975C56.5141 123.013 56.5513 123.013 56.5885 123.013C56.6257 123.013 56.6629 123.013 56.7001 122.975L56.7745 122.864C56.7745 122.864 56.8117 122.827 56.8489 122.827C56.9233 122.827 56.9605 122.901 56.9605 123.05V123.273V123.571L56.9977 123.831L57.0349 123.98C57.0349 124.054 57.0721 124.129 57.0721 124.166C57.0721 124.24 57.0349 124.277 56.9977 124.277C56.9605 124.277 56.9233 124.24 56.9233 124.203C56.9233 124.129 56.8489 123.98 56.7373 123.831C56.6257 123.645 56.5513 123.533 56.4397 123.422C56.0677 123.013 55.6214 122.827 55.175 122.827C54.7658 122.827 54.431 123.013 54.1706 123.347C53.9102 123.682 53.7986 124.129 53.7986 124.649C53.7986 125.356 54.0218 125.914 54.431 126.323C54.7286 126.621 55.1006 126.807 55.4726 126.807C55.6958 126.807 55.9189 126.77 56.1793 126.658C56.4397 126.547 56.6257 126.435 56.7745 126.249L56.9977 126.026C57.0349 125.989 57.0721 125.989 57.0721 125.989C57.1093 125.989 57.1465 126.026 57.1465 126.063C57.1465 126.137 57.0721 126.286 56.8861 126.472C56.4397 126.993 55.8817 127.253 55.2122 127.253C54.5798 127.253 54.059 127.067 53.6499 126.658C53.2407 126.249 53.0547 125.728 53.0547 125.059C53.0547 124.687 53.1291 124.352 53.2779 124.017C53.4267 123.682 53.6127 123.385 53.873 123.161C54.1706 122.752 54.6542 122.604 55.175 122.604Z" fill="url(#paint2_linear_728_2381)"/>
<path d="M60.0817 126.1C60.0817 126.509 60.1189 126.733 60.2305 126.77C60.2677 126.807 60.3793 126.807 60.5652 126.807C61.3092 126.807 61.83 126.584 62.1276 126.175C62.2392 126.026 62.2764 125.989 62.3136 125.989C62.3508 125.989 62.388 126.026 62.388 126.137C62.388 126.398 62.3136 126.658 62.1276 126.881C61.9788 127.067 61.7556 127.179 61.4952 127.179C61.4208 127.179 61.3464 127.179 61.1976 127.179C61.1604 127.179 61.0116 127.179 60.7884 127.142H60.4165C60.3049 127.142 60.1561 127.142 60.0073 127.142C59.7469 127.142 59.4865 127.142 59.1889 127.179C59.1145 127.179 59.0401 127.179 59.0029 127.179C58.9285 127.179 58.8913 127.142 58.8913 127.104C58.8913 127.067 58.9285 127.03 58.9657 127.03C59.1145 126.993 59.1889 126.919 59.2633 126.807C59.3005 126.695 59.3377 126.509 59.3377 126.249V123.496C59.3377 123.161 59.1889 122.938 58.8913 122.901L58.7053 122.864C58.6309 122.864 58.5938 122.827 58.5938 122.752C58.5938 122.678 58.6309 122.641 58.7053 122.641C58.7425 122.641 58.7425 122.641 58.8169 122.641C58.8541 122.641 58.8913 122.641 58.9285 122.641H59.0773C59.2261 122.641 59.3005 122.678 59.3749 122.678C59.4865 122.678 59.6353 122.678 59.8585 122.641C60.0445 122.641 60.1933 122.604 60.3793 122.604C60.5281 122.604 60.5652 122.641 60.5652 122.678C60.5652 122.715 60.528 122.752 60.4165 122.752C60.1933 122.752 60.0817 122.901 60.0817 123.199V126.1Z" fill="url(#paint3_linear_728_2381)"/>
<path d="M67.1551 122.641C67.1551 122.641 67.1923 122.641 67.2295 122.641C67.2667 122.641 67.3411 122.641 67.4899 122.678H67.8247H68.1594C68.271 122.678 68.3826 122.678 68.457 122.641C68.4942 122.641 68.5314 122.641 68.5686 122.641C68.643 122.641 68.643 122.678 68.643 122.715C68.643 122.752 68.6058 122.789 68.5686 122.789L68.457 122.827C68.271 122.864 68.1966 123.05 68.1966 123.385V123.682V124.091C68.1966 124.724 68.1594 125.207 68.1222 125.616C68.0478 125.988 67.9734 126.286 67.8247 126.509C67.4899 127.03 66.9319 127.253 66.1507 127.253C65.5928 127.253 65.1836 127.142 64.8488 126.956C64.4396 126.658 64.2164 126.137 64.2164 125.319L64.2536 124.054V123.459C64.2536 123.31 64.2536 123.199 64.2164 123.161C64.1792 123.087 64.142 123.05 64.0304 123.013C63.9189 122.975 63.8073 122.938 63.6585 122.901C63.5841 122.901 63.5469 122.864 63.5469 122.789C63.5469 122.715 63.5841 122.715 63.6585 122.715C63.6957 122.715 63.7329 122.715 63.8073 122.715C64.0676 122.752 64.2908 122.752 64.4396 122.752C64.6628 122.752 64.886 122.752 65.1464 122.715C65.258 122.715 65.3324 122.715 65.3696 122.715C65.4812 122.715 65.5556 122.752 65.5556 122.827C65.5556 122.864 65.5556 122.901 65.5184 122.901C65.5184 122.901 65.444 122.938 65.4068 122.938C65.258 122.975 65.1836 123.013 65.1464 123.087C65.1092 123.161 65.072 123.31 65.072 123.496L65.0348 124.315V124.91C65.0348 125.43 65.072 125.802 65.1092 126.026C65.1464 126.249 65.2952 126.435 65.444 126.584C65.7044 126.807 66.0391 126.956 66.4483 126.956C66.8575 126.956 67.1923 126.844 67.4527 126.584C67.6387 126.435 67.7503 126.174 67.8247 125.84C67.899 125.505 67.9362 125.058 67.9362 124.463V124.203V123.533C67.9362 123.347 67.8618 123.161 67.7503 123.05C67.6387 122.938 67.4899 122.864 67.3039 122.864C67.2295 122.864 67.1923 122.827 67.1923 122.752C67.0807 122.678 67.1179 122.641 67.1551 122.641Z" fill="url(#paint4_linear_728_2381)"/>
<path d="M71.6613 122.604C71.8473 122.604 72.0705 122.641 72.2565 122.715L72.4797 122.79C72.5913 122.827 72.6285 122.864 72.7029 122.864C72.7401 122.864 72.7773 122.864 72.8144 122.827L72.926 122.752H72.9632C73.0004 122.752 73.0376 122.79 73.0376 122.864V123.124C73.0376 123.161 73.0376 123.199 73.0376 123.236L73.0748 123.571L73.112 123.868C73.112 123.905 73.112 123.905 73.112 123.943C73.112 124.017 73.0748 124.091 73.0376 124.091C73.0004 124.091 72.9632 124.054 72.9632 123.98C72.8888 123.682 72.7401 123.422 72.4797 123.199C72.2193 122.976 71.9589 122.864 71.6613 122.864C71.4753 122.864 71.2893 122.938 71.1405 123.05C70.9917 123.199 70.9173 123.347 70.9173 123.533C70.9173 123.682 70.9917 123.831 71.1033 123.98C71.1777 124.054 71.4381 124.203 71.8845 124.352C72.4053 124.575 72.7401 124.761 72.926 124.984C73.112 125.245 73.2236 125.505 73.2236 125.877C73.2236 126.249 73.0748 126.584 72.8144 126.881C72.5541 127.179 72.2193 127.29 71.8473 127.29C71.6985 127.29 71.4753 127.253 71.1405 127.142C70.9917 127.104 70.8802 127.067 70.8058 127.03C70.6942 126.993 70.657 126.993 70.6198 126.956C70.6198 126.956 70.5826 126.881 70.5826 126.77C70.5826 126.658 70.5454 126.509 70.471 126.323C70.3966 126.026 70.3594 125.84 70.3594 125.765C70.3594 125.654 70.3966 125.617 70.471 125.617C70.5082 125.617 70.5082 125.654 70.5454 125.691C70.657 126.063 70.8429 126.361 71.1033 126.621C71.3637 126.881 71.6241 126.993 71.9217 126.993C72.1449 126.993 72.3309 126.919 72.5169 126.733C72.7029 126.547 72.7772 126.361 72.7772 126.175C72.7772 125.989 72.7401 125.877 72.6285 125.765C72.5541 125.654 72.3681 125.542 72.1449 125.468L71.6613 125.245C71.1777 125.021 70.8802 124.835 70.6942 124.649C70.5082 124.463 70.4338 124.203 70.4338 123.905C70.4338 123.533 70.5454 123.236 70.7686 123.013C71.0289 122.715 71.2893 122.604 71.6613 122.604Z" fill="url(#paint5_linear_728_2381)"/>
<path d="M76.3413 126.098L76.3785 126.433C76.4157 126.581 76.4529 126.73 76.5645 126.805C76.6761 126.879 76.7877 126.953 76.9737 126.953C77.0853 126.953 77.1225 126.991 77.1225 127.065C77.1225 127.139 77.0481 127.177 76.8993 127.177C76.8249 127.177 76.7505 127.177 76.6389 127.177C76.3413 127.139 76.1182 127.139 75.9694 127.139C75.7462 127.139 75.5974 127.139 75.4486 127.177C75.337 127.214 75.2626 127.214 75.2254 127.214C75.1882 127.214 75.151 127.177 75.151 127.139V127.102L75.2626 127.028C75.4114 126.953 75.523 126.916 75.5602 126.805C75.5974 126.693 75.6346 126.581 75.6346 126.395V126.098V123.494C75.6346 123.308 75.5974 123.159 75.523 123.085C75.4486 123.01 75.337 122.936 75.151 122.899C75.0394 122.899 74.965 122.862 74.9278 122.862C74.8906 122.862 74.8906 122.824 74.8906 122.787C74.8906 122.713 74.9278 122.713 74.965 122.713C75.0022 122.713 75.0766 122.713 75.151 122.75C75.2254 122.75 75.3742 122.787 75.5602 122.787C75.6718 122.787 75.8206 122.787 76.0066 122.75H76.2298C76.4529 122.75 76.6389 122.713 76.7505 122.713C76.8249 122.713 76.8621 122.75 76.8621 122.787C76.8621 122.824 76.8621 122.862 76.8621 122.862C76.8621 122.862 76.8249 122.899 76.7877 122.899C76.6389 122.936 76.5273 122.973 76.4901 123.048C76.4529 123.122 76.4157 123.234 76.4157 123.42V126.098H76.3413Z" fill="url(#paint6_linear_728_2381)"/>
<path d="M80.1761 124.275L80.9201 126.061C80.9573 126.135 80.9945 126.172 80.9945 126.172C81.0317 126.172 81.0317 126.135 81.0689 126.098L81.8128 124.461C82.0732 123.941 82.1848 123.531 82.1848 123.308C82.1848 123.159 82.1476 123.048 82.036 122.973C81.9244 122.899 81.8128 122.825 81.6269 122.825C81.5525 122.825 81.5153 122.787 81.5153 122.75C81.5153 122.713 81.5525 122.676 81.5897 122.676C81.6269 122.676 81.6641 122.676 81.7757 122.676L82.1104 122.713C82.2592 122.713 82.3708 122.713 82.4452 122.713C82.6312 122.713 82.8172 122.713 82.966 122.676C83.0404 122.676 83.0776 122.676 83.1148 122.676C83.152 122.676 83.1892 122.713 83.1892 122.75C83.1892 122.787 83.152 122.825 83.0776 122.862C82.966 122.899 82.8544 122.936 82.78 123.048C82.7056 123.159 82.594 123.383 82.4452 123.717L81.9616 124.833L81.4037 126.061C81.2177 126.47 81.1433 126.693 81.1061 126.693C80.9945 126.916 80.9201 127.065 80.9201 127.102C80.8829 127.214 80.8085 127.251 80.7713 127.251C80.7341 127.251 80.6969 127.214 80.6597 127.177L80.5853 127.028L80.5109 126.842L79.7298 125.094C79.5438 124.647 79.395 124.275 79.2462 123.941C79.0974 123.531 78.9858 123.271 78.8742 123.159C78.7998 123.048 78.651 122.936 78.5022 122.936C78.4278 122.936 78.3906 122.899 78.3906 122.825C78.3906 122.75 78.4278 122.75 78.465 122.75C78.465 122.75 78.5022 122.75 78.5766 122.75C78.6882 122.75 78.7998 122.787 78.9486 122.787H79.5066H79.8413C79.9901 122.787 80.0645 122.787 80.1389 122.787C80.2133 122.787 80.2133 122.825 80.2133 122.862C80.2133 122.899 80.1761 122.936 80.0645 122.973C79.9157 123.011 79.8413 123.085 79.8413 123.271C79.8413 123.308 79.9529 123.717 80.1761 124.275Z" fill="url(#paint7_linear_728_2381)"/>
<path d="M85.9288 123.422V124.129C85.9288 124.315 85.9288 124.463 85.966 124.501C86.0032 124.538 86.0776 124.575 86.1892 124.575H86.3008H86.4496H86.71C86.9331 124.575 87.0819 124.463 87.1935 124.203L87.2679 124.054C87.3051 124.017 87.3051 123.98 87.3795 123.98C87.4167 123.98 87.4539 124.017 87.4539 124.054C87.4539 124.054 87.4539 124.129 87.4539 124.203C87.4539 124.277 87.4539 124.315 87.4539 124.352C87.4539 124.426 87.4539 124.575 87.4911 124.835C87.4911 125.021 87.5283 125.133 87.5283 125.282V125.431C87.5283 125.468 87.5283 125.468 87.5283 125.505L87.4911 125.542C87.4539 125.542 87.4167 125.505 87.3795 125.431C87.3423 125.245 87.2679 125.096 87.1935 125.021C87.1191 124.984 87.0819 124.947 86.9703 124.91C86.8588 124.873 86.7472 124.873 86.524 124.873H86.3008C86.1892 124.873 86.1148 124.873 86.0776 124.91C86.0404 124.947 86.0032 125.021 86.0032 125.096C86.0032 125.207 85.966 125.393 85.966 125.617V125.914C85.966 126.212 86.0032 126.435 86.0404 126.584C86.0776 126.695 86.1148 126.733 86.1892 126.77C86.2264 126.807 86.3008 126.807 86.4124 126.807C87.3051 126.807 87.8631 126.547 88.1607 125.989C88.1607 125.951 88.1979 125.951 88.1979 125.951C88.2351 125.951 88.2351 125.951 88.2723 125.989C88.2723 125.989 88.3095 126.026 88.3095 126.063C88.3095 126.286 88.2351 126.472 88.1235 126.695C88.0119 126.881 87.9003 126.993 87.7515 127.067C87.6027 127.142 87.4167 127.179 87.1935 127.179C87.0447 127.179 86.8959 127.179 86.7472 127.142L86.3752 127.104C86.2264 127.104 86.0404 127.067 85.8172 127.067C85.6684 127.067 85.408 127.067 85.1104 127.104C85.036 127.104 84.9617 127.104 84.9245 127.104C84.8873 127.104 84.8501 127.067 84.8501 127.03C84.8501 126.993 84.8873 126.956 84.9245 126.956C85.036 126.918 85.1476 126.844 85.1848 126.807C85.222 126.77 85.2592 126.658 85.2964 126.509C85.3336 126.398 85.3336 126.249 85.3336 126.026V123.496C85.3336 123.236 85.2964 123.087 85.222 123.013C85.1476 122.938 84.9617 122.864 84.7385 122.827C84.6641 122.827 84.6641 122.79 84.6641 122.715C84.6641 122.678 84.7013 122.641 84.7757 122.641C84.7757 122.641 84.8129 122.641 84.8873 122.641C84.9245 122.641 84.9616 122.641 85.036 122.641H85.3708H86.5984C87.3051 122.641 87.7515 122.641 87.9003 122.604H87.9375C88.0119 122.604 88.0491 122.641 88.0491 122.715C88.0491 122.752 88.0491 122.864 88.0863 122.975C88.0863 123.161 88.1235 123.31 88.1235 123.385C88.1235 123.533 88.0863 123.645 88.0119 123.645C87.9747 123.645 87.9375 123.608 87.9375 123.496C87.9375 123.273 87.8631 123.124 87.7143 123.013C87.5655 122.901 87.3051 122.864 86.9331 122.864H86.524L86.3008 122.901C86.1892 122.938 86.152 123.05 86.152 123.236L85.9288 123.422Z" fill="url(#paint8_linear_728_2381)"/>
<path d="M94.6021 123.42L96.3132 125.354L96.4248 125.466C96.5736 125.614 96.6852 125.726 96.7224 125.726C96.7596 125.726 96.7968 125.652 96.7968 125.54C96.834 125.056 96.834 124.61 96.834 124.164C96.834 123.643 96.7968 123.308 96.6852 123.122C96.5736 122.936 96.3876 122.825 96.09 122.825C96.0156 122.825 95.9784 122.787 95.9784 122.75C95.9784 122.676 96.0156 122.676 96.09 122.676C96.1644 122.676 96.3132 122.676 96.462 122.713C96.5736 122.713 96.6852 122.75 96.7596 122.75C96.9084 122.75 97.1316 122.713 97.4663 122.676C97.5035 122.676 97.5407 122.676 97.5779 122.676C97.6523 122.676 97.6895 122.713 97.6895 122.75C97.6895 122.787 97.6523 122.825 97.5779 122.862C97.2804 122.899 97.1688 123.159 97.1688 123.606V123.755L97.1316 125.8V126.098V126.47V126.73V127.14C97.1316 127.214 97.0944 127.214 97.0572 127.214C97.02 127.214 96.9828 127.177 96.9456 127.14L93.9697 123.829C93.9325 123.755 93.8953 123.755 93.8581 123.755C93.8209 123.755 93.7837 123.792 93.7837 123.903V124.015V125.28C93.7837 125.949 93.8209 126.396 93.8953 126.619C93.9697 126.879 94.1929 126.991 94.5277 127.028C94.6021 127.028 94.6393 127.065 94.6393 127.102C94.6393 127.177 94.6021 127.214 94.5277 127.214C94.4905 127.214 94.4533 127.214 94.4161 127.214C94.2301 127.177 94.0441 127.177 93.8209 127.177C93.5977 127.177 93.4117 127.177 93.2258 127.214C93.1514 127.214 93.077 127.214 93.077 127.214C93.0026 127.214 93.0026 127.177 93.0026 127.14C93.0026 127.102 93.0398 127.065 93.1142 127.065C93.263 127.028 93.3746 126.916 93.4489 126.768C93.5233 126.619 93.5605 126.433 93.5605 126.172L93.5977 125.391V123.978C93.5977 123.308 93.3374 122.973 92.8538 122.936C92.7794 122.936 92.7422 122.899 92.7422 122.862C92.7422 122.787 92.7794 122.75 92.8538 122.75H93.077H93.2258C93.4117 122.75 93.5605 122.75 93.7837 122.713C93.8581 122.713 93.9325 122.713 93.9697 122.713C94.0441 122.713 94.0813 122.713 94.1185 122.75C94.1557 122.787 94.2301 122.862 94.3789 123.011L94.6021 123.271C94.5277 123.308 94.5649 123.383 94.6021 123.42Z" fill="url(#paint9_linear_728_2381)"/>
<path d="M100.63 126.098L100.668 126.433C100.705 126.581 100.742 126.73 100.854 126.805C100.965 126.879 101.077 126.953 101.263 126.953C101.374 126.953 101.412 126.991 101.412 127.065C101.412 127.139 101.337 127.177 101.188 127.177C101.114 127.177 101.04 127.177 100.928 127.177C100.63 127.139 100.407 127.139 100.258 127.139C100.035 127.139 99.8865 127.139 99.7377 127.177C99.6261 127.214 99.5517 127.214 99.5145 127.214C99.4773 127.214 99.4401 127.177 99.4401 127.139V127.102L99.5517 127.028C99.7005 126.953 99.8121 126.916 99.8493 126.805C99.8865 126.693 99.9236 126.581 99.9236 126.395V126.098V123.494C99.9236 123.308 99.8865 123.159 99.8121 123.085C99.7377 123.01 99.6261 122.936 99.4401 122.899C99.3285 122.899 99.2541 122.862 99.2169 122.862C99.1797 122.862 99.1797 122.824 99.1797 122.787C99.1797 122.713 99.2169 122.713 99.2541 122.713C99.2913 122.713 99.3657 122.713 99.4401 122.75C99.5145 122.75 99.6633 122.787 99.8493 122.787C99.9609 122.787 100.11 122.787 100.296 122.75H100.519C100.742 122.75 100.928 122.713 101.04 122.713C101.114 122.713 101.151 122.75 101.151 122.787C101.151 122.824 101.151 122.862 101.151 122.862C101.151 122.862 101.114 122.899 101.077 122.899C100.928 122.936 100.816 122.973 100.779 123.048C100.742 123.122 100.705 123.234 100.705 123.42V126.098H100.63Z" fill="url(#paint10_linear_728_2381)"/>
<path d="M105.24 122.604C105.612 122.604 106.021 122.715 106.505 122.938C106.616 122.976 106.691 123.013 106.728 123.013C106.765 123.013 106.802 123.013 106.802 122.975L106.84 122.938C106.877 122.901 106.877 122.901 106.914 122.901C106.988 122.901 107.026 122.938 107.026 123.013V123.236V123.682V123.905C107.026 123.98 107.026 124.017 107.063 124.091C107.063 124.129 107.063 124.129 107.063 124.166C107.063 124.24 107.026 124.277 106.951 124.277C106.914 124.277 106.877 124.24 106.877 124.129C106.84 123.868 106.691 123.608 106.468 123.347C106.133 123.013 105.761 122.827 105.277 122.827C104.831 122.827 104.496 123.013 104.199 123.347C103.938 123.682 103.789 124.166 103.789 124.724C103.789 125.356 103.938 125.877 104.199 126.286C104.459 126.695 104.794 126.919 105.203 126.919C105.314 126.919 105.463 126.881 105.649 126.844C105.835 126.807 105.984 126.733 106.058 126.658C106.133 126.584 106.207 126.509 106.244 126.398C106.282 126.286 106.282 126.137 106.282 125.877C106.282 125.617 106.244 125.431 106.133 125.319C106.021 125.207 105.872 125.17 105.612 125.133C105.538 125.133 105.5 125.096 105.5 125.021C105.5 124.947 105.538 124.947 105.612 124.947C105.649 124.947 105.686 124.947 105.724 124.947C105.947 124.984 106.17 124.984 106.43 124.984C106.691 124.984 106.914 124.984 107.026 124.947C107.137 124.947 107.212 124.91 107.286 124.91C107.36 124.91 107.398 124.947 107.398 124.984C107.398 125.021 107.36 125.059 107.286 125.096C107.174 125.133 107.063 125.207 107.026 125.282C106.988 125.393 106.951 125.579 106.951 125.84C106.951 125.914 106.951 125.989 106.951 126.063C106.951 126.175 106.951 126.249 106.951 126.286C106.951 126.361 106.951 126.398 106.914 126.435C106.877 126.472 106.84 126.509 106.765 126.509C106.728 126.509 106.542 126.584 106.244 126.733C105.724 126.956 105.277 127.067 104.868 127.067C104.273 127.067 103.789 126.881 103.417 126.472C103.045 126.063 102.859 125.542 102.859 124.947C102.859 124.24 103.083 123.645 103.492 123.161C104.05 122.827 104.608 122.604 105.24 122.604Z" fill="url(#paint11_linear_728_2381)"/>
<path d="M112.428 124.91H110.865C110.717 124.91 110.605 124.947 110.568 124.984C110.531 125.021 110.531 125.133 110.531 125.319V126.137C110.531 126.435 110.568 126.658 110.679 126.807C110.791 126.956 110.94 126.993 111.163 126.993C111.237 126.993 111.275 127.03 111.275 127.067C111.275 127.142 111.2 127.179 111.089 127.179C111.051 127.179 110.977 127.179 110.865 127.142C110.605 127.105 110.382 127.105 110.159 127.105C110.01 127.105 109.861 127.105 109.638 127.142C109.489 127.142 109.415 127.179 109.378 127.179C109.303 127.179 109.266 127.142 109.266 127.067C109.266 127.03 109.303 126.993 109.34 126.993C109.489 126.956 109.601 126.919 109.675 126.807C109.75 126.695 109.787 126.547 109.787 126.286V126.1V123.385C109.787 123.236 109.75 123.124 109.675 123.05C109.601 122.976 109.415 122.901 109.192 122.864C109.117 122.864 109.117 122.827 109.117 122.752C109.117 122.678 109.154 122.641 109.229 122.641C109.266 122.641 109.34 122.641 109.452 122.678C109.638 122.715 109.824 122.715 110.084 122.715C110.159 122.715 110.345 122.715 110.605 122.678C110.754 122.678 110.865 122.641 110.977 122.641C111.051 122.641 111.089 122.678 111.089 122.715C111.089 122.752 111.051 122.79 110.977 122.79C110.717 122.827 110.605 123.013 110.605 123.273V124.092C110.605 124.315 110.605 124.426 110.642 124.463C110.68 124.501 110.791 124.538 110.94 124.538H112.465C112.614 124.538 112.688 124.501 112.725 124.463C112.763 124.426 112.763 124.278 112.763 124.017V123.31C112.763 123.05 112.614 122.864 112.316 122.827L112.167 122.79C112.093 122.79 112.093 122.752 112.093 122.678C112.093 122.604 112.13 122.566 112.205 122.566C112.242 122.566 112.316 122.566 112.428 122.604C112.614 122.641 112.8 122.641 113.06 122.641C113.135 122.641 113.321 122.641 113.581 122.604C113.73 122.604 113.841 122.566 113.953 122.566C114.027 122.566 114.065 122.604 114.065 122.641C114.065 122.678 114.027 122.715 113.953 122.715C113.693 122.752 113.581 122.938 113.581 123.199V125.989C113.581 126.286 113.618 126.509 113.73 126.658C113.841 126.807 113.99 126.844 114.213 126.844C114.288 126.844 114.325 126.881 114.325 126.919C114.325 126.993 114.251 127.03 114.139 127.03C114.102 127.03 114.027 127.03 113.916 126.993C113.655 126.956 113.432 126.956 113.209 126.956C113.06 126.956 112.874 126.956 112.651 126.993C112.502 126.993 112.428 127.03 112.391 127.03C112.316 127.03 112.279 126.993 112.279 126.919C112.279 126.881 112.316 126.844 112.353 126.844C112.502 126.807 112.614 126.77 112.688 126.658C112.763 126.547 112.8 126.398 112.8 126.137V125.951V125.356C112.8 125.133 112.8 125.021 112.763 124.984C112.651 124.947 112.577 124.91 112.428 124.91Z" fill="url(#paint12_linear_728_2381)"/>
<path d="M118.153 123.459V125.914C118.153 126.286 118.19 126.547 118.301 126.695C118.413 126.844 118.599 126.918 118.859 126.956C118.934 126.956 118.971 126.993 118.971 127.067C118.971 127.104 118.934 127.142 118.859 127.142C118.859 127.142 118.822 127.142 118.785 127.142H118.525L118.115 127.104C118.078 127.104 118.041 127.104 117.967 127.104C117.855 127.104 117.743 127.104 117.632 127.104L116.925 127.142C116.851 127.142 116.813 127.142 116.776 127.142C116.702 127.142 116.665 127.104 116.665 127.067C116.665 127.03 116.665 126.993 116.702 126.956C116.739 126.956 116.776 126.919 116.813 126.919C116.999 126.919 117.111 126.844 117.223 126.733C117.297 126.621 117.371 126.472 117.371 126.286V126.137V123.236C117.371 123.05 117.297 122.975 117.111 122.975C116.665 122.975 116.367 123.013 116.218 123.087C116.107 123.124 116.032 123.199 115.995 123.236C115.958 123.31 115.921 123.459 115.846 123.682L115.809 123.757C115.772 123.831 115.735 123.905 115.698 123.905C115.623 123.905 115.586 123.868 115.586 123.794C115.586 123.719 115.586 123.645 115.623 123.533L115.66 123.236L115.698 122.938L115.735 122.752C115.735 122.678 115.772 122.641 115.884 122.641C115.921 122.641 115.958 122.641 115.995 122.641C116.07 122.641 116.218 122.641 116.367 122.641H117.037H117.818C118.339 122.641 118.859 122.641 119.455 122.604C119.566 122.604 119.641 122.604 119.678 122.604C119.789 122.604 119.864 122.641 119.864 122.752V122.975C119.864 123.013 119.864 123.087 119.901 123.236C119.901 123.347 119.938 123.459 119.938 123.496C119.938 123.571 119.901 123.608 119.864 123.608C119.827 123.608 119.789 123.571 119.752 123.496C119.715 123.31 119.603 123.161 119.492 123.05C119.38 122.976 119.157 122.901 118.934 122.901C118.599 122.901 118.413 122.938 118.301 122.975C118.19 123.013 118.153 123.273 118.153 123.459Z" fill="url(#paint13_linear_728_2381)"/>
<path d="M126.745 122.604C127.154 122.604 127.489 122.678 127.824 122.864L128.047 122.975C128.084 123.013 128.122 123.013 128.159 123.013C128.196 123.013 128.233 123.013 128.27 122.975L128.345 122.864C128.345 122.864 128.382 122.827 128.419 122.827C128.494 122.827 128.531 122.901 128.531 123.05V123.273V123.571L128.568 123.831L128.605 123.98C128.605 124.054 128.642 124.129 128.642 124.166C128.642 124.24 128.605 124.277 128.568 124.277C128.531 124.277 128.494 124.24 128.494 124.203C128.494 124.129 128.419 123.98 128.308 123.831C128.196 123.645 128.122 123.533 128.01 123.422C127.638 123.013 127.192 122.827 126.745 122.827C126.336 122.827 126.001 123.013 125.741 123.347C125.481 123.682 125.369 124.129 125.369 124.649C125.369 125.356 125.592 125.914 126.001 126.323C126.299 126.621 126.671 126.807 127.043 126.807C127.266 126.807 127.489 126.77 127.75 126.658C128.01 126.547 128.196 126.435 128.345 126.249L128.568 126.026C128.605 125.989 128.642 125.989 128.642 125.989C128.68 125.989 128.717 126.026 128.717 126.063C128.717 126.137 128.642 126.286 128.456 126.472C128.01 126.993 127.452 127.253 126.782 127.253C126.15 127.253 125.629 127.067 125.22 126.658C124.811 126.249 124.625 125.728 124.625 125.059C124.625 124.687 124.699 124.352 124.848 124.017C124.997 123.682 125.183 123.385 125.443 123.161C125.704 122.752 126.187 122.604 126.745 122.604Z" fill="url(#paint14_linear_728_2381)"/>
<path d="M131.621 126.1C131.621 126.509 131.658 126.733 131.77 126.77C131.807 126.807 131.918 126.807 132.104 126.807C132.848 126.807 133.369 126.584 133.667 126.175C133.778 126.026 133.815 125.989 133.853 125.989C133.89 125.989 133.927 126.026 133.927 126.137C133.927 126.398 133.853 126.658 133.667 126.881C133.518 127.067 133.295 127.179 133.034 127.179C132.96 127.179 132.885 127.179 132.737 127.179C132.699 127.179 132.551 127.179 132.327 127.142H131.956C131.844 127.142 131.695 127.142 131.546 127.142C131.286 127.142 131.026 127.142 130.728 127.179C130.654 127.179 130.579 127.179 130.542 127.179C130.468 127.179 130.43 127.142 130.43 127.104C130.43 127.067 130.468 127.03 130.505 127.03C130.654 126.993 130.728 126.919 130.802 126.807C130.84 126.695 130.877 126.509 130.877 126.249V123.496C130.877 123.161 130.728 122.938 130.43 122.901L130.244 122.864C130.17 122.864 130.133 122.827 130.133 122.752C130.133 122.678 130.17 122.641 130.244 122.641C130.282 122.641 130.282 122.641 130.356 122.641C130.393 122.641 130.43 122.641 130.468 122.641H130.616C130.765 122.641 130.84 122.678 130.914 122.678C131.026 122.678 131.174 122.678 131.398 122.641C131.584 122.641 131.732 122.604 131.918 122.604C132.067 122.604 132.104 122.641 132.104 122.678C132.104 122.715 132.067 122.752 131.956 122.752C131.732 122.752 131.621 122.901 131.621 123.199V126.1Z" fill="url(#paint15_linear_728_2381)"/>
<path d="M138.686 122.641C138.686 122.641 138.724 122.641 138.761 122.641C138.798 122.641 138.872 122.641 139.021 122.678H139.356H139.691C139.802 122.678 139.914 122.678 139.988 122.641C140.025 122.641 140.063 122.641 140.1 122.641C140.174 122.641 140.174 122.678 140.174 122.715C140.174 122.752 140.137 122.789 140.1 122.789L139.988 122.827C139.802 122.864 139.728 123.05 139.728 123.385V123.682V124.091C139.728 124.724 139.691 125.207 139.653 125.616C139.616 126.026 139.505 126.286 139.356 126.509C139.021 127.03 138.463 127.253 137.682 127.253C137.124 127.253 136.715 127.142 136.38 126.956C135.971 126.658 135.748 126.137 135.748 125.319L135.785 124.054V123.459C135.785 123.31 135.785 123.199 135.748 123.161C135.71 123.087 135.673 123.05 135.562 123.013C135.45 122.975 135.339 122.938 135.19 122.901C135.115 122.901 135.078 122.864 135.078 122.789C135.078 122.715 135.115 122.715 135.19 122.715C135.227 122.715 135.264 122.715 135.339 122.715C135.599 122.752 135.822 122.752 135.971 122.752C136.194 122.752 136.417 122.752 136.678 122.715C136.789 122.715 136.864 122.715 136.901 122.715C137.012 122.715 137.087 122.752 137.087 122.827C137.087 122.864 137.087 122.901 137.05 122.901C137.05 122.901 136.975 122.938 136.938 122.938C136.789 122.975 136.715 123.013 136.678 123.087C136.64 123.161 136.603 123.31 136.603 123.496L136.566 124.315V124.91C136.566 125.43 136.603 125.802 136.64 126.026C136.678 126.249 136.826 126.435 136.975 126.584C137.236 126.807 137.57 126.956 137.98 126.956C138.389 126.956 138.724 126.844 138.984 126.584C139.17 126.435 139.282 126.174 139.356 125.84C139.43 125.505 139.468 125.058 139.468 124.463V124.203V123.533C139.468 123.347 139.393 123.161 139.282 123.05C139.17 122.938 139.021 122.864 138.835 122.864C138.761 122.864 138.724 122.827 138.724 122.752C138.649 122.678 138.649 122.641 138.686 122.641Z" fill="url(#paint16_linear_728_2381)"/>
<path d="M142.517 123.608C142.517 123.161 142.331 122.938 141.997 122.901L141.848 122.864C141.811 122.864 141.773 122.827 141.773 122.79C141.773 122.715 141.811 122.678 141.848 122.678H141.922H142.183C142.369 122.678 142.517 122.678 142.555 122.678C142.703 122.678 143.001 122.678 143.41 122.641C143.671 122.604 143.894 122.604 144.043 122.604C144.489 122.604 144.861 122.715 145.158 122.901C145.456 123.087 145.568 123.347 145.568 123.682C145.568 124.054 145.382 124.315 145.047 124.463C144.972 124.501 144.935 124.538 144.935 124.538C144.935 124.575 144.972 124.612 145.047 124.612C145.307 124.649 145.53 124.761 145.679 124.984C145.828 125.17 145.902 125.393 145.902 125.691C145.902 126.137 145.754 126.472 145.456 126.695C145.158 126.956 144.786 127.067 144.303 127.067L143.633 127.03H143.113C142.778 127.03 142.517 127.03 142.257 127.067C142.183 127.067 142.108 127.067 142.034 127.067C141.959 127.067 141.922 127.03 141.922 126.993C141.922 126.956 141.959 126.919 141.997 126.919C142.257 126.881 142.369 126.658 142.369 126.249V123.608H142.517ZM143.261 123.347V124.277C143.261 124.389 143.299 124.501 143.336 124.538C143.373 124.575 143.485 124.612 143.671 124.612H144.117H144.303C144.675 124.575 144.861 124.352 144.861 123.943C144.861 123.608 144.749 123.347 144.563 123.161C144.34 122.975 144.08 122.864 143.745 122.864C143.559 122.864 143.41 122.901 143.336 122.975C143.299 123.013 143.261 123.161 143.261 123.347ZM143.261 125.505V126.063V126.175L143.299 126.435C143.336 126.733 143.559 126.919 144.043 126.919C144.489 126.919 144.824 126.807 145.01 126.584C145.158 126.398 145.233 126.175 145.233 125.914C145.233 125.393 145.01 125.096 144.563 124.984C144.303 124.91 144.005 124.873 143.671 124.873C143.522 124.873 143.41 124.91 143.373 124.984C143.261 125.059 143.261 125.245 143.261 125.505Z" fill="url(#paint17_linear_728_2381)"/>
<path d="M75.0167 131.978C75.0167 131.718 74.9051 131.569 74.6819 131.532H74.6075C74.5703 131.532 74.5703 131.495 74.5703 131.495C74.5703 131.457 74.5703 131.42 74.6075 131.42H74.6447H74.7935C74.9051 131.42 74.9795 131.42 75.0167 131.42C75.1283 131.42 75.2771 131.42 75.5375 131.383C75.6863 131.383 75.835 131.346 75.9094 131.346C76.1698 131.346 76.393 131.42 76.579 131.532C76.7278 131.643 76.8394 131.792 76.8394 132.015C76.8394 132.238 76.7278 132.387 76.5418 132.499C76.5046 132.536 76.4674 132.536 76.4674 132.536C76.4674 132.573 76.5046 132.573 76.5418 132.573C76.6906 132.61 76.8394 132.685 76.9138 132.796C77.0254 132.908 77.0626 133.057 77.0626 133.206C77.0626 133.466 76.9882 133.652 76.8022 133.801C76.6162 133.95 76.393 134.024 76.0954 134.024H75.6863H75.3887C75.2027 134.024 75.0167 134.024 74.8679 134.061C74.8307 134.061 74.7935 134.061 74.7563 134.061C74.7191 134.061 74.6819 134.061 74.6819 134.024C74.6819 133.987 74.6819 133.987 74.7191 133.987C74.8679 133.95 74.9423 133.838 74.9423 133.578V131.978H75.0167ZM75.4631 131.829V132.387C75.4631 132.462 75.4631 132.499 75.5003 132.536C75.5375 132.573 75.6119 132.573 75.6863 132.573H75.9466H76.0582C76.2814 132.536 76.393 132.424 76.393 132.164C76.393 131.978 76.3186 131.829 76.207 131.68C76.0954 131.569 75.9094 131.495 75.7234 131.495C75.6119 131.495 75.5375 131.532 75.5003 131.569C75.4631 131.643 75.4631 131.718 75.4631 131.829ZM75.4631 133.131V133.466V133.54V133.689C75.4631 133.875 75.6119 133.987 75.9094 133.987C76.1698 133.987 76.3558 133.912 76.4674 133.801C76.5418 133.689 76.579 133.54 76.579 133.392C76.579 133.094 76.4302 132.908 76.1698 132.834C76.021 132.796 75.835 132.759 75.6491 132.759C75.5375 132.759 75.5003 132.796 75.4631 132.834C75.4259 132.871 75.4631 132.945 75.4631 133.131Z" fill="url(#paint18_linear_728_2381)"/>
<path d="M79.3298 133.057V133.615V133.763C79.367 133.912 79.4786 133.987 79.7018 133.987C79.739 133.987 79.7762 134.024 79.7762 134.024C79.7762 134.061 79.739 134.098 79.7018 134.098C79.6646 134.098 79.6274 134.098 79.5902 134.098L79.3298 134.061C79.2926 134.061 79.2182 134.061 79.1066 134.061C78.8462 134.061 78.6974 134.061 78.623 134.098C78.5858 134.098 78.5486 134.098 78.5114 134.098C78.4743 134.098 78.4743 134.061 78.4743 134.024C78.4743 133.987 78.4743 133.987 78.5114 133.987C78.6602 133.949 78.7718 133.912 78.809 133.838C78.8462 133.763 78.8834 133.652 78.8834 133.466V133.094C78.8834 133.02 78.8462 132.908 78.809 132.834C78.7346 132.722 78.6602 132.573 78.5858 132.424L78.2883 131.866C78.1767 131.643 78.0279 131.532 77.8791 131.494C77.8419 131.494 77.8047 131.457 77.8047 131.457C77.8047 131.42 77.8047 131.383 77.8419 131.383C77.8791 131.383 77.9163 131.383 77.9907 131.383C78.1395 131.383 78.2511 131.42 78.3627 131.42C78.4743 131.42 78.5858 131.42 78.6974 131.42C78.7718 131.42 78.8462 131.42 78.8462 131.42C78.8834 131.42 78.9206 131.42 78.9206 131.457C78.9206 131.494 78.8834 131.494 78.8462 131.494C78.7346 131.532 78.6974 131.569 78.6974 131.606C78.6974 131.643 78.7346 131.792 78.8462 131.978L78.995 132.276C79.0694 132.387 79.1066 132.462 79.1066 132.499C79.1438 132.573 79.181 132.648 79.2182 132.648C79.2554 132.648 79.3298 132.573 79.367 132.462C79.367 132.424 79.4414 132.35 79.4786 132.238C79.6274 131.978 79.7018 131.829 79.7018 131.755C79.7018 131.718 79.6646 131.643 79.5902 131.606C79.5158 131.569 79.4414 131.532 79.367 131.532C79.3298 131.532 79.2926 131.494 79.2926 131.494C79.2926 131.457 79.2926 131.42 79.3298 131.42C79.367 131.42 79.4042 131.42 79.4414 131.42H79.553C79.5902 131.42 79.6646 131.42 79.739 131.42C79.7762 131.42 79.8134 131.42 79.8878 131.42H80.0366C80.0738 131.42 80.111 131.42 80.1854 131.42C80.2226 131.42 80.2226 131.42 80.2226 131.457C80.2226 131.494 80.1854 131.494 80.1482 131.532C80.0366 131.569 79.9622 131.606 79.925 131.643C79.8506 131.718 79.7762 131.829 79.7018 132.015C79.553 132.35 79.4042 132.61 79.2554 132.834C79.2182 132.871 79.2182 132.908 79.2182 132.945C79.3298 132.945 79.3298 132.982 79.3298 133.057Z" fill="url(#paint19_linear_728_2381)"/>
<path d="M83.7908 131.383C83.9024 131.383 84.014 131.42 84.1628 131.457L84.2744 131.494C84.3488 131.532 84.386 131.532 84.386 131.532C84.386 131.532 84.4232 131.532 84.4604 131.532L84.5348 131.494H84.572C84.6092 131.494 84.6092 131.532 84.6092 131.569V131.718C84.6092 131.755 84.6092 131.755 84.6092 131.792L84.6464 131.978L84.6836 132.164V132.201C84.6836 132.238 84.6836 132.276 84.6464 132.276C84.6092 132.276 84.6092 132.238 84.6092 132.201C84.572 132.015 84.4604 131.866 84.3116 131.718C84.1628 131.569 84.014 131.532 83.828 131.532C83.7164 131.532 83.6048 131.569 83.5304 131.643C83.456 131.718 83.4189 131.829 83.4189 131.904C83.4189 132.015 83.456 132.09 83.5304 132.164C83.5676 132.201 83.7164 132.276 83.9768 132.387C84.2744 132.499 84.4976 132.648 84.572 132.759C84.6836 132.908 84.758 133.094 84.758 133.28C84.758 133.503 84.6836 133.689 84.4976 133.875C84.3488 134.024 84.1256 134.135 83.9396 134.135C83.8652 134.135 83.7164 134.098 83.5304 134.061C83.456 134.024 83.3817 134.024 83.3445 133.987C83.2701 133.987 83.2329 133.949 83.2329 133.949C83.2329 133.949 83.2329 133.912 83.1957 133.838C83.1957 133.763 83.1585 133.689 83.1213 133.577C83.0841 133.391 83.0469 133.28 83.0469 133.243C83.0469 133.168 83.0841 133.168 83.1213 133.168C83.1213 133.168 83.1585 133.168 83.1585 133.206C83.2329 133.429 83.3445 133.615 83.4933 133.763C83.642 133.912 83.828 133.987 83.9768 133.987C84.1256 133.987 84.2372 133.949 84.3116 133.838C84.4232 133.726 84.4604 133.615 84.4604 133.503C84.4604 133.392 84.4232 133.317 84.386 133.243C84.3488 133.168 84.2372 133.131 84.0884 133.057L83.7908 132.908C83.5304 132.796 83.3073 132.648 83.2329 132.573C83.1213 132.462 83.0841 132.313 83.0841 132.127C83.0841 131.904 83.1585 131.718 83.3073 131.606C83.4189 131.457 83.5676 131.383 83.7908 131.383Z" fill="url(#paint20_linear_728_2381)"/>
<path d="M87.845 131.42H87.8822C87.9194 131.42 87.9566 131.42 88.031 131.42H88.2542H88.4402C88.5146 131.42 88.5518 131.42 88.6262 131.42C88.6633 131.42 88.6633 131.42 88.7005 131.42C88.7377 131.42 88.7377 131.42 88.7377 131.457C88.7377 131.495 88.7377 131.495 88.7005 131.495H88.6262C88.5146 131.495 88.4774 131.606 88.4774 131.829V132.015V132.238C88.4774 132.61 88.4774 132.908 88.4402 133.131C88.403 133.354 88.3286 133.54 88.2542 133.652C88.0682 133.95 87.7334 134.098 87.2498 134.098C86.915 134.098 86.6547 134.024 86.4687 133.912C86.2083 133.726 86.0967 133.429 86.0967 132.908L86.1339 132.164V131.829C86.1339 131.755 86.1339 131.681 86.0967 131.643C86.0967 131.606 86.0595 131.569 85.9851 131.532C85.9107 131.494 85.8363 131.495 85.7619 131.457C85.7247 131.457 85.6875 131.42 85.6875 131.383C85.6875 131.346 85.7247 131.346 85.7619 131.346C85.7619 131.346 85.7991 131.346 85.8363 131.346C85.9851 131.346 86.1339 131.383 86.2083 131.383C86.3199 131.383 86.4687 131.383 86.6175 131.346C86.6918 131.346 86.729 131.346 86.7662 131.346C86.8406 131.346 86.8778 131.383 86.8778 131.42C86.8778 131.457 86.8778 131.457 86.8778 131.457C86.8778 131.457 86.8406 131.457 86.8034 131.495C86.729 131.495 86.6547 131.532 86.6547 131.569C86.6175 131.606 86.6175 131.681 86.6175 131.829L86.5803 132.313V132.648C86.5803 132.945 86.5803 133.168 86.6175 133.317C86.6546 133.466 86.729 133.578 86.8034 133.652C86.9522 133.801 87.1754 133.875 87.3986 133.875C87.659 133.875 87.845 133.801 87.9938 133.652C88.1054 133.54 88.1798 133.392 88.217 133.206C88.2542 133.02 88.2914 132.722 88.2914 132.387V132.238V131.829C88.2914 131.718 88.2542 131.606 88.1798 131.532C88.1054 131.457 88.031 131.42 87.9194 131.42C87.8822 131.42 87.845 131.383 87.845 131.346C87.8078 131.42 87.8078 131.42 87.845 131.42Z" fill="url(#paint21_linear_728_2381)"/>
<path d="M90.5709 131.941V133.503V133.689C90.5709 133.875 90.5337 133.987 90.4965 134.098C90.4593 134.21 90.3849 134.321 90.3105 134.433C90.1246 134.656 89.9758 134.768 89.827 134.768C89.7898 134.768 89.7898 134.768 89.7526 134.768L89.641 134.731L89.5294 134.693C89.4922 134.693 89.4922 134.656 89.4922 134.619C89.4922 134.582 89.4922 134.582 89.4922 134.545L89.5294 134.284C89.5294 134.247 89.5666 134.21 89.5666 134.21C89.6038 134.21 89.641 134.247 89.7154 134.284L89.7898 134.359C89.8642 134.433 89.9014 134.47 89.9386 134.47C90.0502 134.47 90.0874 134.359 90.0874 134.098V133.949V132.499C90.0874 132.201 90.0874 132.015 90.0874 131.904C90.0874 131.792 90.0502 131.718 90.0502 131.68C90.013 131.643 89.9758 131.606 89.9386 131.569C89.9014 131.569 89.827 131.532 89.7154 131.532C89.6782 131.532 89.641 131.494 89.641 131.457C89.641 131.42 89.6782 131.383 89.7154 131.383C89.7526 131.383 89.7898 131.383 89.8642 131.383C90.0502 131.383 90.1618 131.42 90.1618 131.42C90.199 131.42 90.2733 131.42 90.3477 131.42C90.5337 131.383 90.6453 131.383 90.6825 131.383C90.7569 131.383 90.7569 131.383 90.7569 131.42C90.7569 131.457 90.7197 131.457 90.6825 131.457C90.6081 131.494 90.5709 131.532 90.5337 131.569C90.5709 131.68 90.5709 131.792 90.5709 131.941Z" fill="url(#paint22_linear_728_2381)"/>
<path d="M92.6837 133.505V133.691C92.6837 133.802 92.7209 133.877 92.7953 133.914C92.8697 133.951 92.9441 133.988 93.0185 133.988C93.0929 133.988 93.1301 134.026 93.1301 134.063C93.1301 134.1 93.0929 134.137 93.0185 134.137C92.9813 134.137 92.9441 134.137 92.8697 134.137C92.6837 134.137 92.5721 134.1 92.4605 134.1C92.3489 134.1 92.2373 134.1 92.1629 134.137C92.0885 134.137 92.0513 134.137 92.0141 134.137C91.9769 134.137 91.9769 134.137 91.9769 134.1L92.0513 134.063C92.1629 134.026 92.2001 133.988 92.2373 133.951C92.2745 133.914 92.2745 133.84 92.2745 133.728V133.542V131.98C92.2745 131.868 92.2373 131.794 92.2001 131.719C92.1629 131.682 92.0885 131.645 91.9769 131.608C91.9025 131.608 91.8653 131.57 91.8653 131.57C91.8281 131.57 91.8281 131.533 91.8281 131.533C91.8281 131.496 91.8281 131.496 91.8653 131.496C91.9025 131.496 91.9397 131.496 91.9769 131.496C92.0141 131.496 92.0885 131.496 92.2001 131.496C92.2745 131.496 92.3489 131.496 92.4605 131.496H92.6093C92.7581 131.496 92.8325 131.496 92.9069 131.496C92.9441 131.496 92.9813 131.496 92.9813 131.533C92.9813 131.57 92.9813 131.57 92.9813 131.57H92.9441C92.8697 131.57 92.7953 131.608 92.7581 131.645C92.7209 131.682 92.7209 131.756 92.7209 131.868V133.505H92.6837Z" fill="url(#paint23_linear_728_2381)"/>
<path d="M94.8072 131.571L95.5883 133.319C95.6255 133.393 95.6627 133.43 95.6627 133.43C95.6999 133.43 95.6999 133.393 95.7371 133.356L96.4811 131.794C96.5555 131.645 96.5927 131.571 96.6299 131.533C96.6671 131.496 96.7043 131.459 96.7415 131.459C96.7415 131.459 96.7787 131.459 96.8159 131.459C96.8531 131.459 96.8903 131.459 96.9275 131.459C96.9647 131.459 97.0391 131.459 97.1135 131.459C97.1506 131.459 97.1879 131.459 97.1879 131.459C97.225 131.459 97.2622 131.459 97.2622 131.496C97.2622 131.533 97.2623 131.533 97.2251 131.533C97.1135 131.533 97.0019 131.571 96.9647 131.645C96.9275 131.719 96.8903 131.831 96.8903 132.017V132.166L96.9275 133.356V133.43C96.9275 133.616 96.9647 133.728 97.0391 133.84C97.1135 133.914 97.1878 133.988 97.3366 133.988C97.3738 133.988 97.3738 134.026 97.3738 134.063C97.3738 134.1 97.3366 134.1 97.2251 134.1C97.1879 134.1 97.1506 134.1 97.1135 134.1C96.9647 134.1 96.8531 134.063 96.7787 134.063C96.6299 134.063 96.5183 134.063 96.4439 134.1C96.3695 134.1 96.2951 134.137 96.2579 134.137C96.2207 134.137 96.2207 134.137 96.2207 134.1C96.2207 134.063 96.2579 134.063 96.2951 134.063C96.3695 134.026 96.4067 134.026 96.4439 133.951C96.4811 133.914 96.4811 133.84 96.4811 133.765C96.4811 133.728 96.4811 133.691 96.4811 133.691L96.4067 132.389C96.4067 132.352 96.4067 132.352 96.3695 132.352C96.3323 132.352 96.3323 132.389 96.2951 132.463L95.5511 134.026L95.5139 134.1C95.4767 134.174 95.4395 134.212 95.4395 134.212C95.4023 134.212 95.3651 134.137 95.2907 133.988L95.1792 133.802L94.5468 132.426V132.389C94.5468 132.389 94.5468 132.389 94.5096 132.389C94.4724 132.389 94.4724 132.426 94.4724 132.463V132.538L94.4352 133.505V133.579V133.765C94.4724 133.951 94.584 134.063 94.7328 134.1C94.8072 134.1 94.8072 134.137 94.8072 134.174C94.8072 134.212 94.77 134.212 94.7328 134.212C94.6956 134.212 94.6584 134.212 94.6212 134.212L94.4724 134.174C94.4352 134.174 94.398 134.174 94.3236 134.174C94.212 134.174 94.1004 134.174 94.0632 134.174C94.026 134.174 93.9888 134.174 93.9516 134.174C93.9144 134.174 93.8772 134.174 93.8772 134.137C93.8772 134.1 93.8772 134.1 93.9144 134.1C94.026 134.063 94.1004 133.988 94.1376 133.914C94.1748 133.84 94.212 133.691 94.212 133.542L94.2492 132.277V132.166C94.2492 132.017 94.212 131.905 94.1376 131.794C94.0632 131.719 93.9516 131.645 93.84 131.645C93.8028 131.645 93.7656 131.645 93.7656 131.608C93.7656 131.571 93.8028 131.533 93.84 131.533H93.8772H93.9888C94.026 131.533 94.026 131.533 94.0632 131.533C94.1376 131.533 94.1748 131.533 94.2492 131.533C94.3236 131.533 94.398 131.533 94.4352 131.533C94.7328 131.422 94.77 131.459 94.8072 131.571Z" fill="url(#paint24_linear_728_2381)"/>
<path d="M99.8335 131.383C100.243 131.383 100.577 131.494 100.801 131.718C101.061 131.941 101.173 132.276 101.173 132.648C101.173 133.057 101.061 133.429 100.801 133.689C100.54 133.987 100.206 134.098 99.7591 134.098C99.35 134.098 99.0152 133.987 98.7548 133.726C98.4944 133.466 98.3828 133.168 98.3828 132.759C98.3828 132.573 98.42 132.424 98.4944 132.238C98.5688 132.052 98.6432 131.904 98.7548 131.792C98.8664 131.643 99.0524 131.532 99.2384 131.457C99.4244 131.42 99.6476 131.383 99.8335 131.383ZM99.7219 131.532C99.4616 131.532 99.2756 131.643 99.1268 131.829C98.978 132.015 98.9036 132.276 98.9036 132.648C98.9036 133.057 98.978 133.391 99.164 133.652C99.35 133.912 99.5732 134.024 99.8707 134.024C100.131 134.024 100.354 133.912 100.503 133.726C100.652 133.503 100.726 133.243 100.726 132.871C100.726 132.685 100.689 132.462 100.615 132.276C100.54 132.09 100.429 131.941 100.317 131.829C100.168 131.606 99.9451 131.532 99.7219 131.532Z" fill="url(#paint25_linear_728_2381)"/>
<path d="M103.66 131.902V133.352C103.66 133.575 103.697 133.724 103.771 133.799C103.846 133.873 103.957 133.947 104.106 133.947C104.143 133.947 104.181 133.985 104.181 134.022C104.181 134.059 104.143 134.059 104.106 134.059H104.069H103.92H103.66C103.623 134.059 103.623 134.059 103.585 134.059C103.511 134.059 103.437 134.059 103.399 134.059L102.953 134.096C102.916 134.096 102.879 134.096 102.879 134.096C102.841 134.096 102.804 134.096 102.804 134.059C102.804 134.022 102.804 134.022 102.841 133.985C102.841 133.985 102.879 133.985 102.916 133.985C103.027 133.985 103.102 133.947 103.139 133.873C103.176 133.799 103.213 133.724 103.213 133.613V133.538V131.827C103.213 131.716 103.176 131.678 103.065 131.678C102.804 131.678 102.618 131.716 102.544 131.753C102.469 131.79 102.432 131.827 102.395 131.864C102.358 131.902 102.358 131.976 102.321 132.125V132.162C102.321 132.199 102.283 132.236 102.246 132.236C102.209 132.236 102.172 132.199 102.172 132.162C102.172 132.125 102.172 132.088 102.209 132.013L102.246 131.827L102.283 131.641V131.53C102.283 131.492 102.321 131.455 102.358 131.455C102.358 131.455 102.395 131.455 102.432 131.455C102.469 131.455 102.544 131.455 102.655 131.455H103.065H103.548C103.846 131.455 104.181 131.455 104.515 131.418C104.59 131.418 104.627 131.418 104.627 131.418C104.701 131.418 104.739 131.455 104.739 131.492V131.641C104.739 131.678 104.739 131.716 104.776 131.79C104.776 131.864 104.776 131.902 104.776 131.939C104.776 131.976 104.776 132.013 104.739 132.013C104.701 132.013 104.701 131.976 104.664 131.939C104.627 131.827 104.59 131.716 104.515 131.678C104.441 131.641 104.329 131.604 104.181 131.604C103.995 131.604 103.846 131.604 103.809 131.641C103.697 131.716 103.66 131.79 103.66 131.902Z" fill="url(#paint26_linear_728_2381)"/>
<path d="M107.076 131.383C107.485 131.383 107.82 131.494 108.043 131.718C108.303 131.941 108.415 132.276 108.415 132.648C108.415 133.057 108.303 133.429 108.043 133.689C107.782 133.987 107.448 134.098 107.001 134.098C106.592 134.098 106.257 133.987 105.997 133.726C105.737 133.466 105.625 133.168 105.625 132.759C105.625 132.573 105.662 132.424 105.737 132.238C105.811 132.052 105.885 131.904 105.997 131.792C106.109 131.643 106.295 131.532 106.481 131.457C106.667 131.42 106.853 131.383 107.076 131.383ZM106.927 131.532C106.667 131.532 106.481 131.643 106.332 131.829C106.183 132.015 106.109 132.276 106.109 132.648C106.109 133.057 106.183 133.391 106.369 133.652C106.555 133.912 106.778 134.024 107.076 134.024C107.336 134.024 107.559 133.912 107.708 133.726C107.857 133.503 107.931 133.243 107.931 132.871C107.931 132.685 107.894 132.462 107.82 132.276C107.745 132.09 107.634 131.941 107.522 131.829C107.373 131.606 107.187 131.532 106.927 131.532Z" fill="url(#paint27_linear_728_2381)"/>
<path d="M109.922 132.686C112.228 132.76 114.572 132.797 116.878 132.835C118.031 132.835 119.184 132.872 120.337 132.872H123.797H127.256H129.004H129.86H130.716C133.022 132.835 135.365 132.797 137.672 132.723C135.365 132.649 133.022 132.611 130.716 132.574H129.86H129.004H127.256H123.797H120.337C119.184 132.574 118.031 132.574 116.878 132.611C114.534 132.574 112.228 132.611 109.922 132.686Z" fill="url(#paint28_linear_728_2381)"/>
<path d="M45.5625 132.686C47.8688 132.76 50.2123 132.797 52.5185 132.835C53.6717 132.835 54.8248 132.872 55.978 132.872H59.4374H62.8968H64.6451H65.5007H66.3562C68.6625 132.835 71.006 132.797 73.3123 132.723C71.006 132.649 68.6625 132.611 66.3562 132.574H65.5007H64.6451H62.8968H59.4374H55.978C54.8248 132.574 53.6717 132.574 52.5185 132.611C50.2123 132.574 47.8688 132.611 45.5625 132.686Z" fill="url(#paint29_linear_728_2381)"/>
<path fill-rule="evenodd" clip-rule="evenodd" d="M92.0684 30.7618L100.252 22.6154C103.6 25.9632 106.948 29.311 110.295 32.6589H106.687L101.963 27.8975H98.5408L95.4906 30.9478V34.37L98.9128 37.7922C104.418 37.7922 109.923 37.7922 115.392 37.7922C117.958 40.3589 120.525 42.9255 123.092 45.4922L114.908 53.6758L123.129 61.8965C119.781 65.2444 116.433 68.5922 113.085 71.94V68.3318L117.847 63.5705V60.1482L114.796 57.098H111.374L107.952 60.5202C107.952 66.0255 107.952 71.5308 107.952 76.999C105.385 79.5656 102.819 82.1323 100.252 84.699L92.0312 76.4782L83.7732 84.7362C80.4254 81.3883 77.0775 78.0405 73.7297 74.6927H77.3379L82.0993 79.454H85.5215L88.5717 76.4038V72.9816L85.1495 69.5593C79.6442 69.5593 74.1389 69.5593 68.6708 69.5593C66.1041 66.9927 63.5374 64.426 60.9708 61.8593L69.2287 53.6014L61.008 45.3806L71.0514 35.3371V38.9453L66.2901 43.7067V47.1289L69.3403 50.1792H72.7626L76.1848 46.7569C76.1848 41.2516 76.1848 35.7463 76.1848 30.2782C78.7514 27.7115 81.3181 25.1449 83.8848 22.5782L92.0684 30.7618ZM125.844 59.1439L131.35 53.6386L125.881 48.1705L125.844 59.1439ZM97.5365 87.4516L92.0312 92.9569L86.563 87.4888L97.5365 87.4516ZM86.5258 19.8627L92.0312 14.3574L97.4993 19.8255L86.5258 19.8627ZM58.2553 48.1705L52.75 53.6758L58.2181 59.1439L58.2553 48.1705ZM100.289 55.5357L93.9655 61.8593H97.7597V67.1415L92.0312 72.8328L86.1911 66.9927C80.6857 66.9927 75.1804 66.9927 69.7123 66.9927L66.2901 63.5705V60.1482L69.3403 57.098H72.7626L77.5239 61.8593C81.7645 61.8593 86.0051 61.8593 90.2456 61.8593L83.922 55.5357V59.3299H78.5655L72.9114 53.6758L78.7886 47.7985C78.7886 42.2932 78.7886 36.7879 78.7886 31.3197L82.2109 27.8975H85.6331L88.6833 30.9478V34.37L83.8848 39.0569C83.8848 43.2975 83.8848 47.5381 83.8848 51.7787L90.2085 45.455H86.4142V40.0985L92.0312 34.4816L97.8713 40.3217C103.377 40.3217 108.882 40.3217 114.35 40.3217L117.772 43.7439V47.1661L114.722 50.2164H111.3L106.538 45.455C102.335 45.455 98.0944 45.455 93.8911 45.455L100.215 51.7787V47.9845H105.497L111.151 53.6386L105.348 59.4415C105.348 64.9468 105.348 70.4521 105.348 75.9202L101.926 79.3424H98.5036L95.4534 76.2922V72.87L100.215 68.1086C100.289 63.9796 100.289 59.7763 100.289 55.5357Z" fill="url(#paint30_linear_728_2381)"/>
<path d="M50.0184 109.921C50.6136 110.665 50.9112 111.52 50.9112 112.45C50.9112 112.859 50.8368 113.306 50.7252 113.678C50.316 114.943 49.3489 116.058 48.0841 116.691C47.2286 117.1 46.2614 117.286 45.3315 117.323C45.0711 117.36 44.8479 117.36 44.5875 117.36C43.8436 117.36 43.0624 117.286 42.3556 117.063C40.2725 116.356 39.0078 115.054 39.0078 114.98L41.9093 110.888L40.4957 113.269C40.2353 113.678 40.0866 114.124 40.0866 114.533C40.0866 115.24 40.4585 115.91 41.3141 116.319C42.5416 116.914 43.546 117.1 44.5875 117.1C44.8107 117.1 45.0339 117.1 45.2571 117.063C47.3402 116.951 49.1257 115.649 49.6837 114.161C49.8696 113.715 49.944 113.231 49.944 112.748C49.944 111.892 49.6837 111.111 49.0885 110.404C48.4933 109.698 47.5634 109.251 46.745 108.805C45.8523 108.284 42.244 106.275 41.3513 105.755C40.3097 105.048 39.603 103.969 39.603 102.742V102.518C39.6774 101.105 40.7561 99.9889 42.1325 99.4309C42.9136 99.0589 43.8064 98.9102 44.6991 98.9102C45.7407 98.9102 46.745 99.1333 47.675 99.4681C47.861 99.5425 49.944 100.584 49.944 100.77L46.8938 105.122L48.2701 102.779C48.4933 102.407 48.6049 102.072 48.6049 101.7C48.6049 100.956 48.1213 100.286 47.1914 99.8029C47.117 99.7657 47.0426 99.7285 46.9682 99.6913C46.2614 99.3565 45.4803 99.1705 44.6619 99.1705C43.0996 99.1705 41.5373 99.7657 40.7561 100.956C40.4585 101.402 40.3097 101.886 40.3097 102.407C40.3097 102.965 40.4957 103.523 40.8677 104.006C41.5745 104.899 42.7648 105.383 43.732 105.903C45.3687 106.871 47.0798 107.8 48.7537 108.768C49.0885 108.954 49.3861 109.214 49.6465 109.512C49.7953 109.66 49.9068 109.809 50.0184 109.921Z" fill="url(#paint31_linear_728_2381)"/>
<path d="M56.6768 99.0957C56.1188 99.2445 55.7096 99.8025 55.7096 100.398V115.909C55.7096 116.504 56.1188 117.025 56.6768 117.211H53.8125C54.4077 117.025 54.7797 116.504 54.7797 115.909V100.398C54.7797 99.8025 54.4077 99.2817 53.8125 99.0957H56.6768Z" fill="url(#paint32_linear_728_2381)"/>
<path d="M68.8017 116.951C69.8805 116.951 70.8104 116.095 70.8476 115.016L71.0708 112.524V117.248H59.3906C59.6882 117.174 59.9114 116.988 60.0974 116.728C60.2834 116.504 60.3578 116.207 60.3578 115.909V100.398C60.3578 99.8025 59.9486 99.2817 59.3906 99.0957H62.2177C61.9201 99.1701 61.6969 99.3561 61.5109 99.5793C61.3621 99.8025 61.2505 100.1 61.2505 100.398V116.951H68.8017Z" fill="url(#paint33_linear_728_2381)"/>
<path d="M73.7891 99.0954H86.2504V103.82L86.0644 101.327C85.99 100.249 85.0973 99.393 84.0185 99.393H75.6862V108.172H79.7036C80.7451 108.172 81.6379 107.428 81.7866 106.386L81.8238 106.237V110.404L81.7866 110.255C81.6007 109.213 80.7451 108.469 79.7036 108.469H75.6862V116.951H84.0185C85.0973 116.951 86.0272 116.095 86.0644 115.016L86.2504 112.524V117.248H73.7891C74.3842 117.062 74.7562 116.541 74.7562 115.946V100.435C74.7562 100.137 74.6446 99.8394 74.4958 99.6162C74.3098 99.3558 74.0866 99.1698 73.7891 99.0954ZM80.0011 95.9336L81.7866 97.8679L80.0011 96.566L78.2156 97.8679L80.0011 95.9336Z" fill="url(#paint34_linear_728_2381)"/>
<path d="M101.613 99.0957H103.994C103.399 99.2445 102.952 99.8397 102.952 100.472V117.248L90.7513 100.435C90.7141 100.472 90.7141 100.472 90.7141 100.509V115.872C90.7141 116.17 90.8257 116.467 91.0117 116.728C91.1977 116.988 91.4581 117.174 91.7557 117.248H89.375C90.0074 117.062 90.4165 116.504 90.4165 115.872V100.509C90.4165 100.212 90.305 99.8769 90.119 99.6537C89.933 99.3933 89.6726 99.2073 89.375 99.1329H90.8629L91.1233 99.5049L102.655 115.314V100.509C102.655 100.212 102.543 99.8769 102.357 99.6537C102.171 99.3561 101.911 99.1701 101.613 99.0957Z" fill="url(#paint35_linear_728_2381)"/>
<path d="M119.991 102.814C120.177 102.479 120.288 102.107 120.288 101.772C120.288 100.991 119.805 100.21 119.023 99.8753C118.503 99.6893 118.019 99.5033 117.461 99.4289C117.089 99.3545 116.717 99.3173 116.308 99.3173H115.973C111.398 99.3173 107.641 103.297 107.641 108.208C107.641 111.369 108.943 113.453 110.431 114.754C112.03 116.205 114.188 116.986 116.345 116.986H118.8C119.395 116.986 119.953 116.726 120.325 116.28C120.549 116.056 120.697 115.759 120.772 115.424C120.809 115.275 120.846 115.164 120.846 115.015L121.032 112.523V117.247H116.085C114.56 117.247 113.072 116.875 111.695 116.168C109.464 114.978 106.711 112.634 106.711 108.133C106.711 103.074 110.877 98.9453 115.936 98.9453H116.308C118.168 99.0197 119.842 99.6149 121.255 100.619C121.33 100.656 121.404 100.731 121.479 100.805L118.689 105.157L119.991 102.814Z" fill="url(#paint36_linear_728_2381)"/>
<path d="M127.311 99.0957C126.753 99.2445 126.344 99.8025 126.344 100.398V115.909C126.344 116.504 126.753 117.025 127.311 117.211H124.484C125.08 117.025 125.452 116.504 125.452 115.909V100.398C125.452 99.8025 125.08 99.2817 124.484 99.0957H127.311Z" fill="url(#paint37_linear_728_2381)"/>
<path d="M148.966 108.172C148.966 113.194 144.911 117.249 139.89 117.36V119.072H139.592V117.36C134.57 117.286 130.516 113.194 130.516 108.172C130.516 103.151 134.57 99.0589 139.592 98.9846V97.2734H139.89V98.9846C139.964 98.9846 140.001 99.0218 140.113 99.0218C144.986 99.1705 148.966 103.188 148.966 108.172ZM139.555 99.2449C135.017 99.3565 131.371 103.3 131.371 108.135C131.371 112.525 134.384 116.17 138.29 116.877C138.699 116.951 139.146 116.988 139.555 116.988V99.2449ZM139.852 117.063C144.39 116.988 148.036 113.008 148.036 108.172C148.036 103.783 145.06 100.138 141.154 99.4309C140.782 99.3565 140.41 99.3193 140.001 99.3193C139.927 99.2821 139.89 99.2821 139.852 99.2821V117.063Z" fill="url(#paint38_linear_728_2381)"/>
<path d="M71.0492 118.959H59.4062V119.108H71.0492V118.959Z" fill="url(#paint39_linear_728_2381)"/>
<path d="M113.971 109.436C114.464 109.436 114.864 109.036 114.864 108.543C114.864 108.05 114.464 107.65 113.971 107.65C113.478 107.65 113.078 108.05 113.078 108.543C113.078 109.036 113.478 109.436 113.971 109.436Z" fill="url(#paint40_linear_728_2381)"/>
<defs>
<linearGradient id="paint0_linear_728_2381" x1="41.6336" y1="124.924" x2="45.3759" y2="124.924" gradientUnits="userSpaceOnUse">
<stop stop-color="#F7B5B9"/>
<stop offset="0.0141854" stop-color="#F8BCBE"/>
<stop offset="0.0925348" stop-color="#FBDAD6"/>
<stop offset="0.1334" stop-color="#FCE6E0"/>
<stop offset="0.3061" stop-color="#F8AEAF"/>
<stop offset="0.4388" stop-color="#F7ACB3"/>
<stop offset="0.5014" stop-color="#F6ACB5"/>
<stop offset="0.5988" stop-color="#F9C4CA"/>
<stop offset="0.7518" stop-color="#FEF1F2"/>
<stop offset="0.85" stop-color="#F6CCCB"/>
<stop offset="0.9503" stop-color="#F1ABAB"/>
</linearGradient>
<linearGradient id="paint1_linear_728_2381" x1="46.7106" y1="124.9" x2="51.7409" y2="124.9" gradientUnits="userSpaceOnUse">
<stop stop-color="#F7B5B9"/>
<stop offset="0.0141854" stop-color="#F8BCBE"/>
<stop offset="0.0925348" stop-color="#FBDAD6"/>
<stop offset="0.1334" stop-color="#FCE6E0"/>
<stop offset="0.3061" stop-color="#F8AEAF"/>
<stop offset="0.4388" stop-color="#F7ACB3"/>
<stop offset="0.5014" stop-color="#F6ACB5"/>
<stop offset="0.5988" stop-color="#F9C4CA"/>
<stop offset="0.7518" stop-color="#FEF1F2"/>
<stop offset="0.85" stop-color="#F6CCCB"/>
<stop offset="0.9503" stop-color="#F1ABAB"/>
</linearGradient>
<linearGradient id="paint2_linear_728_2381" x1="52.93" y1="124.905" x2="57.0085" y2="124.905" gradientUnits="userSpaceOnUse">
<stop stop-color="#F7B5B9"/>
<stop offset="0.0141854" stop-color="#F8BCBE"/>
<stop offset="0.0925348" stop-color="#FBDAD6"/>
<stop offset="0.1334" stop-color="#FCE6E0"/>
<stop offset="0.3061" stop-color="#F8AEAF"/>
<stop offset="0.4388" stop-color="#F7ACB3"/>
<stop offset="0.5014" stop-color="#F6ACB5"/>
<stop offset="0.5988" stop-color="#F9C4CA"/>
<stop offset="0.7518" stop-color="#FEF1F2"/>
<stop offset="0.85" stop-color="#F6CCCB"/>
<stop offset="0.9503" stop-color="#F1ABAB"/>
</linearGradient>
<linearGradient id="paint3_linear_728_2381" x1="58.5617" y1="124.902" x2="62.3339" y2="124.902" gradientUnits="userSpaceOnUse">
<stop stop-color="#F7B5B9"/>
<stop offset="0.0141854" stop-color="#F8BCBE"/>
<stop offset="0.0925348" stop-color="#FBDAD6"/>
<stop offset="0.1334" stop-color="#FCE6E0"/>
<stop offset="0.3061" stop-color="#F8AEAF"/>
<stop offset="0.4388" stop-color="#F7ACB3"/>
<stop offset="0.5014" stop-color="#F6ACB5"/>
<stop offset="0.5988" stop-color="#F9C4CA"/>
<stop offset="0.7518" stop-color="#FEF1F2"/>
<stop offset="0.85" stop-color="#F6CCCB"/>
<stop offset="0.9503" stop-color="#F1ABAB"/>
</linearGradient>
<linearGradient id="paint4_linear_728_2381" x1="63.5148" y1="124.926" x2="68.6365" y2="124.926" gradientUnits="userSpaceOnUse">
<stop stop-color="#F7B5B9"/>
<stop offset="0.0141854" stop-color="#F8BCBE"/>
<stop offset="0.0925348" stop-color="#FBDAD6"/>
<stop offset="0.1334" stop-color="#FCE6E0"/>
<stop offset="0.3061" stop-color="#F8AEAF"/>
<stop offset="0.4388" stop-color="#F7ACB3"/>
<stop offset="0.5014" stop-color="#F6ACB5"/>
<stop offset="0.5988" stop-color="#F9C4CA"/>
<stop offset="0.7518" stop-color="#FEF1F2"/>
<stop offset="0.85" stop-color="#F6CCCB"/>
<stop offset="0.9503" stop-color="#F1ABAB"/>
</linearGradient>
<linearGradient id="paint5_linear_728_2381" x1="70.3452" y1="124.905" x2="73.2039" y2="124.905" gradientUnits="userSpaceOnUse">
<stop stop-color="#F7B5B9"/>
<stop offset="0.0141854" stop-color="#F8BCBE"/>
<stop offset="0.0925348" stop-color="#FBDAD6"/>
<stop offset="0.1334" stop-color="#FCE6E0"/>
<stop offset="0.3061" stop-color="#F8AEAF"/>
<stop offset="0.4388" stop-color="#F7ACB3"/>
<stop offset="0.5014" stop-color="#F6ACB5"/>
<stop offset="0.5988" stop-color="#F9C4CA"/>
<stop offset="0.7518" stop-color="#FEF1F2"/>
<stop offset="0.85" stop-color="#F6CCCB"/>
<stop offset="0.9503" stop-color="#F1ABAB"/>
</linearGradient>
<linearGradient id="paint6_linear_728_2381" x1="74.8295" y1="124.903" x2="77.0982" y2="124.903" gradientUnits="userSpaceOnUse">
<stop stop-color="#F7B5B9"/>
<stop offset="0.0141854" stop-color="#F8BCBE"/>
<stop offset="0.0925348" stop-color="#FBDAD6"/>
<stop offset="0.1334" stop-color="#FCE6E0"/>
<stop offset="0.3061" stop-color="#F8AEAF"/>
<stop offset="0.4388" stop-color="#F7ACB3"/>
<stop offset="0.5014" stop-color="#F6ACB5"/>
<stop offset="0.5988" stop-color="#F9C4CA"/>
<stop offset="0.7518" stop-color="#FEF1F2"/>
<stop offset="0.85" stop-color="#F6CCCB"/>
<stop offset="0.9503" stop-color="#F1ABAB"/>
</linearGradient>
<linearGradient id="paint7_linear_728_2381" x1="78.3753" y1="124.921" x2="83.1608" y2="124.921" gradientUnits="userSpaceOnUse">
<stop stop-color="#F7B5B9"/>
<stop offset="0.0141854" stop-color="#F8BCBE"/>
<stop offset="0.0925348" stop-color="#FBDAD6"/>
<stop offset="0.1334" stop-color="#FCE6E0"/>
<stop offset="0.3061" stop-color="#F8AEAF"/>
<stop offset="0.4388" stop-color="#F7ACB3"/>
<stop offset="0.5014" stop-color="#F6ACB5"/>
<stop offset="0.5988" stop-color="#F9C4CA"/>
<stop offset="0.7518" stop-color="#FEF1F2"/>
<stop offset="0.85" stop-color="#F6CCCB"/>
<stop offset="0.9503" stop-color="#F1ABAB"/>
</linearGradient>
<linearGradient id="paint8_linear_728_2381" x1="84.4832" y1="124.924" x2="88.2256" y2="124.924" gradientUnits="userSpaceOnUse">
<stop stop-color="#F7B5B9"/>
<stop offset="0.0141854" stop-color="#F8BCBE"/>
<stop offset="0.0925348" stop-color="#FBDAD6"/>
<stop offset="0.1334" stop-color="#FCE6E0"/>
<stop offset="0.3061" stop-color="#F8AEAF"/>
<stop offset="0.4388" stop-color="#F7ACB3"/>
<stop offset="0.5014" stop-color="#F6ACB5"/>
<stop offset="0.5988" stop-color="#F9C4CA"/>
<stop offset="0.7518" stop-color="#FEF1F2"/>
<stop offset="0.85" stop-color="#F6CCCB"/>
<stop offset="0.9503" stop-color="#F1ABAB"/>
</linearGradient>
<linearGradient id="paint9_linear_728_2381" x1="92.6102" y1="124.896" x2="97.6333" y2="124.896" gradientUnits="userSpaceOnUse">
<stop stop-color="#F7B5B9"/>
<stop offset="0.0141854" stop-color="#F8BCBE"/>
<stop offset="0.0925348" stop-color="#FBDAD6"/>
<stop offset="0.1334" stop-color="#FCE6E0"/>
<stop offset="0.3061" stop-color="#F8AEAF"/>
<stop offset="0.4388" stop-color="#F7ACB3"/>
<stop offset="0.5014" stop-color="#F6ACB5"/>
<stop offset="0.5988" stop-color="#F9C4CA"/>
<stop offset="0.7518" stop-color="#FEF1F2"/>
<stop offset="0.85" stop-color="#F6CCCB"/>
<stop offset="0.9503" stop-color="#F1ABAB"/>
</linearGradient>
<linearGradient id="paint10_linear_728_2381" x1="99.1242" y1="124.903" x2="101.394" y2="124.903" gradientUnits="userSpaceOnUse">
<stop stop-color="#F7B5B9"/>
<stop offset="0.0141854" stop-color="#F8BCBE"/>
<stop offset="0.0925348" stop-color="#FBDAD6"/>
<stop offset="0.1334" stop-color="#FCE6E0"/>
<stop offset="0.3061" stop-color="#F8AEAF"/>
<stop offset="0.4388" stop-color="#F7ACB3"/>
<stop offset="0.5014" stop-color="#F6ACB5"/>
<stop offset="0.5988" stop-color="#F9C4CA"/>
<stop offset="0.7518" stop-color="#FEF1F2"/>
<stop offset="0.85" stop-color="#F6CCCB"/>
<stop offset="0.9503" stop-color="#F1ABAB"/>
</linearGradient>
<linearGradient id="paint11_linear_728_2381" x1="102.986" y1="124.905" x2="107.495" y2="124.905" gradientUnits="userSpaceOnUse">
<stop stop-color="#F7B5B9"/>
<stop offset="0.0141854" stop-color="#F8BCBE"/>
<stop offset="0.0925348" stop-color="#FBDAD6"/>
<stop offset="0.1334" stop-color="#FCE6E0"/>
<stop offset="0.3061" stop-color="#F8AEAF"/>
<stop offset="0.4388" stop-color="#F7ACB3"/>
<stop offset="0.5014" stop-color="#F6ACB5"/>
<stop offset="0.5988" stop-color="#F9C4CA"/>
<stop offset="0.7518" stop-color="#FEF1F2"/>
<stop offset="0.85" stop-color="#F6CCCB"/>
<stop offset="0.9503" stop-color="#F1ABAB"/>
</linearGradient>
<linearGradient id="paint12_linear_728_2381" x1="109.106" y1="124.897" x2="114.228" y2="124.897" gradientUnits="userSpaceOnUse">
<stop stop-color="#F7B5B9"/>
<stop offset="0.0141854" stop-color="#F8BCBE"/>
<stop offset="0.0925348" stop-color="#FBDAD6"/>
<stop offset="0.1334" stop-color="#FCE6E0"/>
<stop offset="0.3061" stop-color="#F8AEAF"/>
<stop offset="0.4388" stop-color="#F7ACB3"/>
<stop offset="0.5014" stop-color="#F6ACB5"/>
<stop offset="0.5988" stop-color="#F9C4CA"/>
<stop offset="0.7518" stop-color="#FEF1F2"/>
<stop offset="0.85" stop-color="#F6CCCB"/>
<stop offset="0.9503" stop-color="#F1ABAB"/>
</linearGradient>
<linearGradient id="paint13_linear_728_2381" x1="115.614" y1="124.916" x2="119.911" y2="124.916" gradientUnits="userSpaceOnUse">
<stop stop-color="#F7B5B9"/>
<stop offset="0.0141854" stop-color="#F8BCBE"/>
<stop offset="0.0925348" stop-color="#FBDAD6"/>
<stop offset="0.1334" stop-color="#FCE6E0"/>
<stop offset="0.3061" stop-color="#F8AEAF"/>
<stop offset="0.4388" stop-color="#F7ACB3"/>
<stop offset="0.5014" stop-color="#F6ACB5"/>
<stop offset="0.5988" stop-color="#F9C4CA"/>
<stop offset="0.7518" stop-color="#FEF1F2"/>
<stop offset="0.85" stop-color="#F6CCCB"/>
<stop offset="0.9503" stop-color="#F1ABAB"/>
</linearGradient>
<linearGradient id="paint14_linear_728_2381" x1="124.479" y1="124.905" x2="128.557" y2="124.905" gradientUnits="userSpaceOnUse">
<stop stop-color="#F7B5B9"/>
<stop offset="0.0141854" stop-color="#F8BCBE"/>
<stop offset="0.0925348" stop-color="#FBDAD6"/>
<stop offset="0.1334" stop-color="#FCE6E0"/>
<stop offset="0.3061" stop-color="#F8AEAF"/>
<stop offset="0.4388" stop-color="#F7ACB3"/>
<stop offset="0.5014" stop-color="#F6ACB5"/>
<stop offset="0.5988" stop-color="#F9C4CA"/>
<stop offset="0.7518" stop-color="#FEF1F2"/>
<stop offset="0.85" stop-color="#F6CCCB"/>
<stop offset="0.9503" stop-color="#F1ABAB"/>
</linearGradient>
<linearGradient id="paint15_linear_728_2381" x1="130.117" y1="124.902" x2="133.888" y2="124.902" gradientUnits="userSpaceOnUse">
<stop stop-color="#F7B5B9"/>
<stop offset="0.0141854" stop-color="#F8BCBE"/>
<stop offset="0.0925348" stop-color="#FBDAD6"/>
<stop offset="0.1334" stop-color="#FCE6E0"/>
<stop offset="0.3061" stop-color="#F8AEAF"/>
<stop offset="0.4388" stop-color="#F7ACB3"/>
<stop offset="0.5014" stop-color="#F6ACB5"/>
<stop offset="0.5988" stop-color="#F9C4CA"/>
<stop offset="0.7518" stop-color="#FEF1F2"/>
<stop offset="0.85" stop-color="#F6CCCB"/>
<stop offset="0.9503" stop-color="#F1ABAB"/>
</linearGradient>
<linearGradient id="paint16_linear_728_2381" x1="135.062" y1="124.926" x2="140.184" y2="124.926" gradientUnits="userSpaceOnUse">
<stop stop-color="#F7B5B9"/>
<stop offset="0.0141854" stop-color="#F8BCBE"/>
<stop offset="0.0925348" stop-color="#FBDAD6"/>
<stop offset="0.1334" stop-color="#FCE6E0"/>
<stop offset="0.3061" stop-color="#F8AEAF"/>
<stop offset="0.4388" stop-color="#F7ACB3"/>
<stop offset="0.5014" stop-color="#F6ACB5"/>
<stop offset="0.5988" stop-color="#F9C4CA"/>
<stop offset="0.7518" stop-color="#FEF1F2"/>
<stop offset="0.85" stop-color="#F6CCCB"/>
<stop offset="0.9503" stop-color="#F1ABAB"/>
</linearGradient>
<linearGradient id="paint17_linear_728_2381" x1="141.753" y1="124.895" x2="145.958" y2="124.895" gradientUnits="userSpaceOnUse">
<stop stop-color="#F7B5B9"/>
<stop offset="0.0141854" stop-color="#F8BCBE"/>
<stop offset="0.0925348" stop-color="#FBDAD6"/>
<stop offset="0.1334" stop-color="#FCE6E0"/>
<stop offset="0.3061" stop-color="#F8AEAF"/>
<stop offset="0.4388" stop-color="#F7ACB3"/>
<stop offset="0.5014" stop-color="#F6ACB5"/>
<stop offset="0.5988" stop-color="#F9C4CA"/>
<stop offset="0.7518" stop-color="#FEF1F2"/>
<stop offset="0.85" stop-color="#F6CCCB"/>
<stop offset="0.9503" stop-color="#F1ABAB"/>
</linearGradient>
<linearGradient id="paint18_linear_728_2381" x1="74.5586" y1="132.758" x2="77.0634" y2="132.758" gradientUnits="userSpaceOnUse">
<stop stop-color="#F7B5B9"/>
<stop offset="0.0141854" stop-color="#F8BCBE"/>
<stop offset="0.0925348" stop-color="#FBDAD6"/>
<stop offset="0.1334" stop-color="#FCE6E0"/>
<stop offset="0.3061" stop-color="#F8AEAF"/>
<stop offset="0.4388" stop-color="#F7ACB3"/>
<stop offset="0.5014" stop-color="#F6ACB5"/>
<stop offset="0.5988" stop-color="#F9C4CA"/>
<stop offset="0.7518" stop-color="#FEF1F2"/>
<stop offset="0.85" stop-color="#F6CCCB"/>
<stop offset="0.9503" stop-color="#F1ABAB"/>
</linearGradient>
<linearGradient id="paint19_linear_728_2381" x1="77.7913" y1="132.759" x2="80.3734" y2="132.759" gradientUnits="userSpaceOnUse">
<stop stop-color="#F7B5B9"/>
<stop offset="0.0141854" stop-color="#F8BCBE"/>
<stop offset="0.0925348" stop-color="#FBDAD6"/>
<stop offset="0.1334" stop-color="#FCE6E0"/>
<stop offset="0.3061" stop-color="#F8AEAF"/>
<stop offset="0.4388" stop-color="#F7ACB3"/>
<stop offset="0.5014" stop-color="#F6ACB5"/>
<stop offset="0.5988" stop-color="#F9C4CA"/>
<stop offset="0.7518" stop-color="#FEF1F2"/>
<stop offset="0.85" stop-color="#F6CCCB"/>
<stop offset="0.9503" stop-color="#F1ABAB"/>
</linearGradient>
<linearGradient id="paint20_linear_728_2381" x1="83.0082" y1="132.764" x2="84.7116" y2="132.764" gradientUnits="userSpaceOnUse">
<stop stop-color="#F7B5B9"/>
<stop offset="0.0141854" stop-color="#F8BCBE"/>
<stop offset="0.0925348" stop-color="#FBDAD6"/>
<stop offset="0.1334" stop-color="#FCE6E0"/>
<stop offset="0.3061" stop-color="#F8AEAF"/>
<stop offset="0.4388" stop-color="#F7ACB3"/>
<stop offset="0.5014" stop-color="#F6ACB5"/>
<stop offset="0.5988" stop-color="#F9C4CA"/>
<stop offset="0.7518" stop-color="#FEF1F2"/>
<stop offset="0.85" stop-color="#F6CCCB"/>
<stop offset="0.9503" stop-color="#F1ABAB"/>
</linearGradient>
<linearGradient id="paint21_linear_728_2381" x1="85.6636" y1="132.776" x2="88.7145" y2="132.776" gradientUnits="userSpaceOnUse">
<stop stop-color="#F7B5B9"/>
<stop offset="0.0141854" stop-color="#F8BCBE"/>
<stop offset="0.0925348" stop-color="#FBDAD6"/>
<stop offset="0.1334" stop-color="#FCE6E0"/>
<stop offset="0.3061" stop-color="#F8AEAF"/>
<stop offset="0.4388" stop-color="#F7ACB3"/>
<stop offset="0.5014" stop-color="#F6ACB5"/>
<stop offset="0.5988" stop-color="#F9C4CA"/>
<stop offset="0.7518" stop-color="#FEF1F2"/>
<stop offset="0.85" stop-color="#F6CCCB"/>
<stop offset="0.9503" stop-color="#F1ABAB"/>
</linearGradient>
<linearGradient id="paint22_linear_728_2381" x1="89.5143" y1="133.085" x2="90.8015" y2="133.085" gradientUnits="userSpaceOnUse">
<stop stop-color="#F7B5B9"/>
<stop offset="0.0141854" stop-color="#F8BCBE"/>
<stop offset="0.0925348" stop-color="#FBDAD6"/>
<stop offset="0.1334" stop-color="#FCE6E0"/>
<stop offset="0.3061" stop-color="#F8AEAF"/>
<stop offset="0.4388" stop-color="#F7ACB3"/>
<stop offset="0.5014" stop-color="#F6ACB5"/>
<stop offset="0.5988" stop-color="#F9C4CA"/>
<stop offset="0.7518" stop-color="#FEF1F2"/>
<stop offset="0.85" stop-color="#F6CCCB"/>
<stop offset="0.9503" stop-color="#F1ABAB"/>
</linearGradient>
<linearGradient id="paint23_linear_728_2381" x1="91.7762" y1="132.765" x2="93.1279" y2="132.765" gradientUnits="userSpaceOnUse">
<stop stop-color="#F7B5B9"/>
<stop offset="0.0141854" stop-color="#F8BCBE"/>
<stop offset="0.0925348" stop-color="#FBDAD6"/>
<stop offset="0.1334" stop-color="#FCE6E0"/>
<stop offset="0.3061" stop-color="#F8AEAF"/>
<stop offset="0.4388" stop-color="#F7ACB3"/>
<stop offset="0.5014" stop-color="#F6ACB5"/>
<stop offset="0.5988" stop-color="#F9C4CA"/>
<stop offset="0.7518" stop-color="#FEF1F2"/>
<stop offset="0.85" stop-color="#F6CCCB"/>
<stop offset="0.9503" stop-color="#F1ABAB"/>
</linearGradient>
<linearGradient id="paint24_linear_728_2381" x1="93.9672" y1="132.765" x2="97.4542" y2="132.765" gradientUnits="userSpaceOnUse">
<stop stop-color="#F7B5B9"/>
<stop offset="0.0141854" stop-color="#F8BCBE"/>
<stop offset="0.0925348" stop-color="#FBDAD6"/>
<stop offset="0.1334" stop-color="#FCE6E0"/>
<stop offset="0.3061" stop-color="#F8AEAF"/>
<stop offset="0.4388" stop-color="#F7ACB3"/>
<stop offset="0.5014" stop-color="#F6ACB5"/>
<stop offset="0.5988" stop-color="#F9C4CA"/>
<stop offset="0.7518" stop-color="#FEF1F2"/>
<stop offset="0.85" stop-color="#F6CCCB"/>
<stop offset="0.9503" stop-color="#F1ABAB"/>
</linearGradient>
<linearGradient id="paint25_linear_728_2381" x1="98.3978" y1="132.762" x2="101.198" y2="132.762" gradientUnits="userSpaceOnUse">
<stop stop-color="#F7B5B9"/>
<stop offset="0.0141854" stop-color="#F8BCBE"/>
<stop offset="0.0925348" stop-color="#FBDAD6"/>
<stop offset="0.1334" stop-color="#FCE6E0"/>
<stop offset="0.3061" stop-color="#F8AEAF"/>
<stop offset="0.4388" stop-color="#F7ACB3"/>
<stop offset="0.5014" stop-color="#F6ACB5"/>
<stop offset="0.5988" stop-color="#F9C4CA"/>
<stop offset="0.7518" stop-color="#FEF1F2"/>
<stop offset="0.85" stop-color="#F6CCCB"/>
<stop offset="0.9503" stop-color="#F1ABAB"/>
</linearGradient>
<linearGradient id="paint26_linear_728_2381" x1="102.159" y1="132.768" x2="104.719" y2="132.768" gradientUnits="userSpaceOnUse">
<stop stop-color="#F7B5B9"/>
<stop offset="0.0141854" stop-color="#F8BCBE"/>
<stop offset="0.0925348" stop-color="#FBDAD6"/>
<stop offset="0.1334" stop-color="#FCE6E0"/>
<stop offset="0.3061" stop-color="#F8AEAF"/>
<stop offset="0.4388" stop-color="#F7ACB3"/>
<stop offset="0.5014" stop-color="#F6ACB5"/>
<stop offset="0.5988" stop-color="#F9C4CA"/>
<stop offset="0.7518" stop-color="#FEF1F2"/>
<stop offset="0.85" stop-color="#F6CCCB"/>
<stop offset="0.9503" stop-color="#F1ABAB"/>
</linearGradient>
<linearGradient id="paint27_linear_728_2381" x1="105.626" y1="132.762" x2="108.426" y2="132.762" gradientUnits="userSpaceOnUse">
<stop stop-color="#F7B5B9"/>
<stop offset="0.0141854" stop-color="#F8BCBE"/>
<stop offset="0.0925348" stop-color="#FBDAD6"/>
<stop offset="0.1334" stop-color="#FCE6E0"/>
<stop offset="0.3061" stop-color="#F8AEAF"/>
<stop offset="0.4388" stop-color="#F7ACB3"/>
<stop offset="0.5014" stop-color="#F6ACB5"/>
<stop offset="0.5988" stop-color="#F9C4CA"/>
<stop offset="0.7518" stop-color="#FEF1F2"/>
<stop offset="0.85" stop-color="#F6CCCB"/>
<stop offset="0.9503" stop-color="#F1ABAB"/>
</linearGradient>
<linearGradient id="paint28_linear_728_2381" x1="109.906" y1="132.703" x2="137.704" y2="132.703" gradientUnits="userSpaceOnUse">
<stop stop-color="#F7B5B9"/>
<stop offset="0.0141854" stop-color="#F8BCBE"/>
<stop offset="0.0925348" stop-color="#FBDAD6"/>
<stop offset="0.1334" stop-color="#FCE6E0"/>
<stop offset="0.3061" stop-color="#F8AEAF"/>
<stop offset="0.4388" stop-color="#F7ACB3"/>
<stop offset="0.5014" stop-color="#F6ACB5"/>
<stop offset="0.5988" stop-color="#F9C4CA"/>
<stop offset="0.7518" stop-color="#FEF1F2"/>
<stop offset="0.85" stop-color="#F6CCCB"/>
<stop offset="0.9503" stop-color="#F1ABAB"/>
</linearGradient>
<linearGradient id="paint29_linear_728_2381" x1="45.5706" y1="132.703" x2="73.368" y2="132.703" gradientUnits="userSpaceOnUse">
<stop stop-color="#F7B5B9"/>
<stop offset="0.0141854" stop-color="#F8BCBE"/>
<stop offset="0.0925348" stop-color="#FBDAD6"/>
<stop offset="0.1334" stop-color="#FCE6E0"/>
<stop offset="0.3061" stop-color="#F8AEAF"/>
<stop offset="0.4388" stop-color="#F7ACB3"/>
<stop offset="0.5014" stop-color="#F6ACB5"/>
<stop offset="0.5988" stop-color="#F9C4CA"/>
<stop offset="0.7518" stop-color="#FEF1F2"/>
<stop offset="0.85" stop-color="#F6CCCB"/>
<stop offset="0.9503" stop-color="#F1ABAB"/>
</linearGradient>
<linearGradient id="paint30_linear_728_2381" x1="52.7538" y1="53.6625" x2="131.322" y2="53.6625" gradientUnits="userSpaceOnUse">
<stop stop-color="#F7B5B9"/>
<stop offset="0.0141854" stop-color="#F8BCBE"/>
<stop offset="0.0925348" stop-color="#FBDAD6"/>
<stop offset="0.1334" stop-color="#FCE6E0"/>
<stop offset="0.3061" stop-color="#F8AEAF"/>
<stop offset="0.4388" stop-color="#F7ACB3"/>
<stop offset="0.5014" stop-color="#F6ACB5"/>
<stop offset="0.5988" stop-color="#F9C4CA"/>
<stop offset="0.7518" stop-color="#FEF1F2"/>
<stop offset="0.85" stop-color="#F6CCCB"/>
<stop offset="0.9503" stop-color="#F1ABAB"/>
</linearGradient>
<linearGradient id="paint31_linear_728_2381" x1="39.0167" y1="108.144" x2="50.8977" y2="108.144" gradientUnits="userSpaceOnUse">
<stop stop-color="#F7B5B9"/>
<stop offset="0.0141854" stop-color="#F8BCBE"/>
<stop offset="0.0925348" stop-color="#FBDAD6"/>
<stop offset="0.1334" stop-color="#FCE6E0"/>
<stop offset="0.3061" stop-color="#F8AEAF"/>
<stop offset="0.4388" stop-color="#F7ACB3"/>
<stop offset="0.5014" stop-color="#F6ACB5"/>
<stop offset="0.5988" stop-color="#F9C4CA"/>
<stop offset="0.7518" stop-color="#FEF1F2"/>
<stop offset="0.85" stop-color="#F6CCCB"/>
<stop offset="0.9503" stop-color="#F1ABAB"/>
</linearGradient>
<linearGradient id="paint32_linear_728_2381" x1="53.8307" y1="108.164" x2="56.6589" y2="108.164" gradientUnits="userSpaceOnUse">
<stop stop-color="#F7B5B9"/>
<stop offset="0.0141854" stop-color="#F8BCBE"/>
<stop offset="0.0925348" stop-color="#FBDAD6"/>
<stop offset="0.1334" stop-color="#FCE6E0"/>
<stop offset="0.3061" stop-color="#F8AEAF"/>
<stop offset="0.4388" stop-color="#F7ACB3"/>
<stop offset="0.5014" stop-color="#F6ACB5"/>
<stop offset="0.5988" stop-color="#F9C4CA"/>
<stop offset="0.7518" stop-color="#FEF1F2"/>
<stop offset="0.85" stop-color="#F6CCCB"/>
<stop offset="0.9503" stop-color="#F1ABAB"/>
</linearGradient>
<linearGradient id="paint33_linear_728_2381" x1="59.4019" y1="108.164" x2="71.0311" y2="108.164" gradientUnits="userSpaceOnUse">
<stop stop-color="#F7B5B9"/>
<stop offset="0.0141854" stop-color="#F8BCBE"/>
<stop offset="0.0925348" stop-color="#FBDAD6"/>
<stop offset="0.1334" stop-color="#FCE6E0"/>
<stop offset="0.3061" stop-color="#F8AEAF"/>
<stop offset="0.4388" stop-color="#F7ACB3"/>
<stop offset="0.5014" stop-color="#F6ACB5"/>
<stop offset="0.5988" stop-color="#F9C4CA"/>
<stop offset="0.7518" stop-color="#FEF1F2"/>
<stop offset="0.85" stop-color="#F6CCCB"/>
<stop offset="0.9503" stop-color="#F1ABAB"/>
</linearGradient>
<linearGradient id="paint34_linear_728_2381" x1="73.7784" y1="106.593" x2="86.2245" y2="106.593" gradientUnits="userSpaceOnUse">
<stop stop-color="#F7B5B9"/>
<stop offset="0.0141854" stop-color="#F8BCBE"/>
<stop offset="0.0925348" stop-color="#FBDAD6"/>
<stop offset="0.1334" stop-color="#FCE6E0"/>
<stop offset="0.3061" stop-color="#F8AEAF"/>
<stop offset="0.4388" stop-color="#F7ACB3"/>
<stop offset="0.5014" stop-color="#F6ACB5"/>
<stop offset="0.5988" stop-color="#F9C4CA"/>
<stop offset="0.7518" stop-color="#FEF1F2"/>
<stop offset="0.85" stop-color="#F6CCCB"/>
<stop offset="0.9503" stop-color="#F1ABAB"/>
</linearGradient>
<linearGradient id="paint35_linear_728_2381" x1="89.3662" y1="108.164" x2="103.992" y2="108.164" gradientUnits="userSpaceOnUse">
<stop stop-color="#F7B5B9"/>
<stop offset="0.0141854" stop-color="#F8BCBE"/>
<stop offset="0.0925348" stop-color="#FBDAD6"/>
<stop offset="0.1334" stop-color="#FCE6E0"/>
<stop offset="0.3061" stop-color="#F8AEAF"/>
<stop offset="0.4388" stop-color="#F7ACB3"/>
<stop offset="0.5014" stop-color="#F6ACB5"/>
<stop offset="0.5988" stop-color="#F9C4CA"/>
<stop offset="0.7518" stop-color="#FEF1F2"/>
<stop offset="0.85" stop-color="#F6CCCB"/>
<stop offset="0.9503" stop-color="#F1ABAB"/>
</linearGradient>
<linearGradient id="paint36_linear_728_2381" x1="106.717" y1="108.1" x2="121.531" y2="108.1" gradientUnits="userSpaceOnUse">
<stop stop-color="#F7B5B9"/>
<stop offset="0.0141854" stop-color="#F8BCBE"/>
<stop offset="0.0925348" stop-color="#FBDAD6"/>
<stop offset="0.1334" stop-color="#FCE6E0"/>
<stop offset="0.3061" stop-color="#F8AEAF"/>
<stop offset="0.4388" stop-color="#F7ACB3"/>
<stop offset="0.5014" stop-color="#F6ACB5"/>
<stop offset="0.5988" stop-color="#F9C4CA"/>
<stop offset="0.7518" stop-color="#FEF1F2"/>
<stop offset="0.85" stop-color="#F6CCCB"/>
<stop offset="0.9503" stop-color="#F1ABAB"/>
</linearGradient>
<linearGradient id="paint37_linear_728_2381" x1="124.499" y1="108.164" x2="127.327" y2="108.164" gradientUnits="userSpaceOnUse">
<stop stop-color="#F7B5B9"/>
<stop offset="0.0141854" stop-color="#F8BCBE"/>
<stop offset="0.0925348" stop-color="#FBDAD6"/>
<stop offset="0.1334" stop-color="#FCE6E0"/>
<stop offset="0.3061" stop-color="#F8AEAF"/>
<stop offset="0.4388" stop-color="#F7ACB3"/>
<stop offset="0.5014" stop-color="#F6ACB5"/>
<stop offset="0.5988" stop-color="#F9C4CA"/>
<stop offset="0.7518" stop-color="#FEF1F2"/>
<stop offset="0.85" stop-color="#F6CCCB"/>
<stop offset="0.9503" stop-color="#F1ABAB"/>
</linearGradient>
<linearGradient id="paint38_linear_728_2381" x1="130.475" y1="108.165" x2="148.957" y2="108.165" gradientUnits="userSpaceOnUse">
<stop stop-color="#F7B5B9"/>
<stop offset="0.0141854" stop-color="#F8BCBE"/>
<stop offset="0.0925348" stop-color="#FBDAD6"/>
<stop offset="0.1334" stop-color="#FCE6E0"/>
<stop offset="0.3061" stop-color="#F8AEAF"/>
<stop offset="0.4388" stop-color="#F7ACB3"/>
<stop offset="0.5014" stop-color="#F6ACB5"/>
<stop offset="0.5988" stop-color="#F9C4CA"/>
<stop offset="0.7518" stop-color="#FEF1F2"/>
<stop offset="0.85" stop-color="#F6CCCB"/>
<stop offset="0.9503" stop-color="#F1ABAB"/>
</linearGradient>
<linearGradient id="paint39_linear_728_2381" x1="59.407" y1="119.025" x2="71.0349" y2="119.025" gradientUnits="userSpaceOnUse">
<stop stop-color="#F7B5B9"/>
<stop offset="0.0141854" stop-color="#F8BCBE"/>
<stop offset="0.0925348" stop-color="#FBDAD6"/>
<stop offset="0.1334" stop-color="#FCE6E0"/>
<stop offset="0.3061" stop-color="#F8AEAF"/>
<stop offset="0.4388" stop-color="#F7ACB3"/>
<stop offset="0.5014" stop-color="#F6ACB5"/>
<stop offset="0.5988" stop-color="#F9C4CA"/>
<stop offset="0.7518" stop-color="#FEF1F2"/>
<stop offset="0.85" stop-color="#F6CCCB"/>
<stop offset="0.9503" stop-color="#F1ABAB"/>
</linearGradient>
<linearGradient id="paint40_linear_728_2381" x1="113.08" y1="108.541" x2="114.885" y2="108.541" gradientUnits="userSpaceOnUse">
<stop stop-color="#F7B5B9"/>
<stop offset="0.0141854" stop-color="#F8BCBE"/>
<stop offset="0.0925348" stop-color="#FBDAD6"/>
<stop offset="0.1334" stop-color="#FCE6E0"/>
<stop offset="0.3061" stop-color="#F8AEAF"/>
<stop offset="0.4388" stop-color="#F7ACB3"/>
<stop offset="0.5014" stop-color="#F6ACB5"/>
<stop offset="0.5988" stop-color="#F9C4CA"/>
<stop offset="0.7518" stop-color="#FEF1F2"/>
<stop offset="0.85" stop-color="#F6CCCB"/>
<stop offset="0.9503" stop-color="#F1ABAB"/>
</linearGradient>
</defs>
</svg>
