<svg width="27" height="30" viewBox="0 0 27 30" fill="none" xmlns="http://www.w3.org/2000/svg">
<g clip-path="url(#clip0_2_424)">
<path d="M19.6523 19.6203C20.3989 19.6203 21.1409 19.6248 21.8829 19.6203C22.1437 19.6203 22.3956 19.6428 22.6384 19.7327C22.7104 19.7597 22.7508 19.8272 22.8588 19.7732C23.2545 19.5663 23.6907 19.6248 24.1179 19.6248C24.7161 19.6248 25.3187 19.6248 25.9168 19.6248" stroke="white" stroke-linecap="round" stroke-linejoin="round"/>
<path d="M1.07031 19.6203C1.81683 19.6203 2.55884 19.6248 3.30086 19.6203C3.56169 19.6203 3.81353 19.6428 4.05637 19.7327C4.12832 19.7597 4.1688 19.8272 4.27673 19.7732C4.67247 19.5663 5.10869 19.6248 5.53591 19.6248C6.13402 19.6248 6.73663 19.6248 7.33474 19.6248" stroke="white" stroke-linecap="round" stroke-linejoin="round"/>
<path d="M22.7852 19.8359V29.4867" stroke="white" stroke-linecap="round" stroke-linejoin="round"/>
<path d="M13.4961 17.0625V29.7757" stroke="white" stroke-linecap="round" stroke-linejoin="round"/>
<path d="M13.5307 13.9675C13.4363 14.017 13.3149 14.044 13.2474 14.1159C12.8876 14.4982 12.4289 14.5207 11.9478 14.5117C11.0978 14.4937 10.2434 14.5027 9.38892 14.5117C9.15957 14.5117 8.97069 14.4757 8.80879 14.2958C8.57495 14.0305 8.30962 13.8056 7.94536 13.7561C7.82393 13.7382 7.78796 13.6347 7.77447 13.5718C7.68003 13.1985 7.4102 12.9602 7.15387 12.7083C6.44783 12.0113 5.73729 11.3142 5.03125 10.6172" stroke="white" stroke-linecap="round" stroke-linejoin="round"/>
<path d="M7.04869 3.09037C7.1881 1.67828 5.78051 0.144781 4.05813 0.225728C2.85292 0.288687 1.22497 1.39497 1.3419 3.31072C1.42285 4.64186 2.58309 6.00447 4.20654 5.99998C6.01886 5.99098 7.17011 4.426 7.05319 3.13084" stroke="white" stroke-linecap="round" stroke-linejoin="round"/>
<path d="M4.20312 19.8359V29.4867" stroke="white" stroke-linecap="round" stroke-linejoin="round"/>
<path d="M25.6324 3.1259C25.7538 1.79026 24.724 0.47262 23.2534 0.261257C21.621 0.0274094 20.2719 0.926825 19.9661 2.55477C19.6423 4.27265 20.7621 5.66674 22.354 5.94556C24.1619 6.26486 25.7718 4.63242 25.6324 3.16187" stroke="white" stroke-linecap="round" stroke-linejoin="round"/>
<path d="M19.1481 13.7521C19.364 14.0399 19.4404 14.3682 19.4404 14.7234C19.4359 16.0906 19.4404 17.4622 19.4359 18.8293C19.4359 19.1126 19.5798 19.3734 19.5888 19.6208C19.5978 19.8501 19.4359 20.1064 19.4359 20.3763C19.4359 23.2319 19.4359 26.0921 19.4359 28.9477C19.4359 29.6088 19.5259 29.6942 20.1914 29.7032C20.6366 29.7077 21.0818 29.7032 21.5226 29.7032C21.6665 29.7032 21.8149 29.6807 21.9543 29.7032C22.3455 29.7797 22.6963 29.4154 23.11 29.6223C23.4608 29.7976 23.852 29.6807 24.2253 29.6987C24.6075 29.7167 24.9943 29.7077 25.3765 29.6987C26.0376 29.6897 26.1276 29.6088 26.1321 28.9432C26.1366 26.0876 26.1321 23.2274 26.1411 20.3718C26.1411 20.0885 25.9747 19.8411 26.0016 19.5803C26.0286 19.3285 26.1366 19.0901 26.1366 18.8248C26.1321 15.9332 26.1051 13.037 26.1455 10.1454C26.159 9.03464 25.5339 8.07677 24.1893 8.0318C23.1955 8.00032 22.1971 7.98682 21.1988 8.05428C20.6052 8.09475 20.1509 8.35109 19.7912 8.81429C19.0042 9.82613 18.2037 10.829 17.4212 11.8453C17.2099 12.1196 16.9715 12.2276 16.6252 12.2096C16.0361 12.1826 15.447 12.2051 14.8624 12.2006C14.5026 12.2006 14.1653 12.259 13.8865 12.5199C13.7876 12.6143 13.6482 12.6683 13.5312 12.7402" stroke="white" stroke-linecap="round" stroke-linejoin="round"/>
<path d="M21.9598 10.6169C21.1548 11.4084 20.3138 12.1684 19.5628 13.0093C19.2345 13.3781 19.0097 13.8323 18.5015 14.0032C18.461 14.0167 18.4161 14.0436 18.3936 14.0751C18.1238 14.5293 17.6875 14.5158 17.2378 14.5113C16.3879 14.4978 15.5334 14.4889 14.679 14.5113C14.2023 14.5293 13.9055 14.2325 13.5682 13.9942C13.4918 13.9402 13.4603 13.8143 13.4963 13.7109C13.5907 13.432 13.4828 13.1577 13.4963 12.8834C13.4963 12.8339 13.5233 12.7755 13.4603 12.7395C13.0511 12.5101 12.6958 12.1684 12.1651 12.1908C11.5176 12.2223 10.87 12.1908 10.2224 12.1998C9.99305 12.1998 9.82665 12.1459 9.67825 11.948C8.92274 10.9676 8.11776 10.0188 7.38924 9.02041C6.85409 8.28738 6.16154 7.99058 5.2891 8.01756C4.31773 8.04904 3.34187 7.9501 2.3705 8.08501C1.58801 8.19744 0.872974 8.89449 0.868477 9.78041C0.845991 12.8429 0.859483 15.9009 0.859483 18.9634C0.859483 19.1973 1.01688 19.4087 1.01688 19.611C1.01688 19.8134 0.859483 20.0248 0.859483 20.2586C0.859483 23.1862 0.859483 26.1183 0.859483 29.0459C0.859483 29.5451 1.00789 29.689 1.50706 29.6935C2.17713 29.698 2.85618 29.7474 3.52175 29.6755C3.98945 29.626 4.42566 29.626 4.89336 29.6755C5.55893 29.7474 6.23799 29.698 6.90805 29.6935C7.40723 29.689 7.55563 29.5451 7.55563 29.0459C7.55563 26.1183 7.58261 23.1862 7.53314 20.2586C7.52415 19.7864 7.53764 19.3232 7.54664 18.8555C7.57362 17.4749 7.56013 16.0943 7.55563 14.7137C7.55563 14.3539 7.63208 14.0302 7.84794 13.7423" stroke="white" stroke-linecap="round" stroke-linejoin="round"/>
</g>
<defs>
<clipPath id="clip0_2_424">
<rect width="25.7503" height="30" fill="white" transform="translate(0.625)"/>
</clipPath>
</defs>
</svg>
