<svg width="30" height="30" viewBox="0 0 30 30" fill="none" xmlns="http://www.w3.org/2000/svg">
<path d="M11.2496 20C11.5496 20 11.7809 19.7325 12.2434 19.1975L16.8521 13.8513C19.2184 11.1088 20.4021 9.73625 19.8771 8.61875C19.3521 7.5 17.5259 7.5 13.8734 7.5H8.62587C4.97462 7.5 3.14462 7.5 2.62212 8.61875C2.09962 9.7375 3.28087 11.1088 5.64587 13.8513L10.2559 19.1975C10.7171 19.7325 10.9496 20 11.2496 20ZM11.2496 20V27.5M10.6246 7.5L10.1234 4.4925C10.086 4.26848 9.98825 4.05887 9.8407 3.88621C9.69314 3.71355 9.50133 3.58435 9.28587 3.5125L6.24962 2.5M9.37462 27.5H13.1246" stroke="white" stroke-linecap="round" stroke-linejoin="round"/>
<path d="M19.825 11.0413C20.2382 11.501 20.7436 11.8685 21.3083 12.1198C21.873 12.3712 22.4844 12.5007 23.1025 12.5C24.2657 12.5027 25.3824 12.0433 26.207 11.2229C27.0316 10.4025 27.4967 9.28822 27.5 8.12502C27.5 5.70877 25.5313 3.75002 23.1025 3.75002C22.0473 3.74724 21.0265 4.12481 20.2271 4.81355C19.4277 5.50229 18.9033 6.45604 18.75 7.50002" stroke="white" stroke-linecap="round" stroke-linejoin="round"/>
</svg>
