<svg width="21" height="20" viewBox="0 0 21 20" fill="none" xmlns="http://www.w3.org/2000/svg">
<g clip-path="url(#clip0_1_1310)">
<path d="M17.5264 9.99355C17.5264 9.76913 17.4411 9.55852 17.2776 9.39427L12.8672 4.98463C12.7978 4.9152 12.7154 4.86012 12.6247 4.82255C12.534 4.78497 12.4368 4.76563 12.3386 4.76562C12.2405 4.76563 12.1433 4.78497 12.0526 4.82255C11.9619 4.86012 11.8795 4.9152 11.8101 4.98463L11.5466 5.2489C11.4772 5.3183 11.4221 5.40069 11.3845 5.49138C11.347 5.58207 11.3276 5.67928 11.3276 5.77744C11.3276 5.87561 11.347 5.97281 11.3845 6.0635C11.4221 6.15419 11.4772 6.23658 11.5466 6.30598L14.3064 9.06658H4.45121C4.35301 9.06647 4.25575 9.08572 4.16499 9.12323C4.07423 9.16073 3.99176 9.21576 3.92228 9.28516C3.85281 9.35456 3.79769 9.43698 3.76009 9.52769C3.72248 9.61841 3.70312 9.71565 3.70313 9.81385V10.1879C3.70313 10.6002 4.03732 10.9344 4.45121 10.9344H14.3064L11.5466 13.6941C11.4772 13.7635 11.4221 13.8459 11.3845 13.9366C11.347 14.0273 11.3276 14.1245 11.3276 14.2227C11.3276 14.3208 11.347 14.418 11.3845 14.5087C11.4221 14.5994 11.4772 14.6818 11.5466 14.7512L11.8109 15.0155C12.1028 15.3074 12.5753 15.3074 12.868 15.0155L17.2776 10.6067C17.4435 10.44 17.5264 10.2188 17.5264 9.99355Z" fill="white"/>
</g>
<defs>
<clipPath id="clip0_1_1310">
<rect width="19.5153" height="19.5153" fill="white" transform="translate(0.859375 0.242188)"/>
</clipPath>
</defs>
</svg>
