<svg width="32" height="32" viewBox="0 0 32 32" fill="none" xmlns="http://www.w3.org/2000/svg">
<g clip-path="url(#clip0_65_213)">
<path d="M10.4077 11.4269C10.4906 10.7636 10.6979 10.1333 10.8306 9.48654C10.9052 9.11338 10.8555 9.03046 10.4989 8.989C9.97651 8.93095 9.43751 8.94754 8.94826 9.18801C8.77413 9.27094 8.59999 9.36215 8.49219 9.56946C8.84876 10.1831 9.20533 10.805 9.57848 11.4352C9.70286 11.6425 9.91017 11.7669 10.0843 11.9162" stroke="white" stroke-linecap="round" stroke-linejoin="round"/>
<path d="M14.6804 22.8555C14.1249 22.8555 13.5941 23.0545 13.0386 23.0959C12.682 23.1208 12.3171 23.1872 11.9606 23.2452C11.5625 23.3033 11.3635 23.5271 11.3635 23.9335C11.3635 24.3978 11.3635 24.8539 11.2474 25.31C11.2308 25.3597 11.2474 25.4261 11.264 25.4924C11.2889 25.6334 11.2889 25.7744 11.1894 25.9153C10.9655 26.2056 10.9157 26.5704 10.7748 26.9021C10.3933 27.8226 9.84602 28.6269 9.17435 29.3483C9.03338 29.4976 8.99192 29.7547 8.72656 29.7713" stroke="white" stroke-linecap="round" stroke-linejoin="round"/>
<path d="M2.93104 24.0469C2.77349 24.5859 2.89787 24.8346 3.41199 25.0337C3.61101 25.1083 3.80173 25.1912 3.97587 25.3073C4.17489 25.44 4.34902 25.5644 4.3739 25.8463C4.40707 26.178 4.6973 26.3936 4.9129 26.6175C5.41873 27.1482 5.92456 27.6789 6.48844 28.1516C6.64599 28.2842 6.81184 28.392 7.02744 28.392C7.16012 28.392 7.20158 28.4833 7.26792 28.5662C7.44205 28.7984 7.58302 29.0388 7.68253 29.3125C7.87325 29.8266 8.13031 29.951 8.66931 29.7934" stroke="white" stroke-linecap="round" stroke-linejoin="round"/>
<path d="M6.13105 16.3945C5.90716 16.6433 5.89887 16.9584 5.92374 17.2652C6.03154 18.5588 6.28861 19.8027 6.87736 20.9719C6.9437 21.1046 6.96028 21.2704 7.00174 21.4197" stroke="white" stroke-linecap="round" stroke-linejoin="round"/>
<path d="M7.17972 28.4161C7.27923 28.1258 7.32069 27.8273 7.27093 27.5205C7.20459 27.0727 7.22118 26.6249 7.27093 26.1771C7.31239 25.7376 6.99729 25.4225 6.5578 25.464C6.03538 25.5137 5.52126 25.5137 4.99884 25.4391C4.77495 25.4059 4.55106 25.464 4.34375 25.5552" stroke="white" stroke-linecap="round" stroke-linejoin="round"/>
<path d="M3.40786 9.00708C3.30835 8.9905 3.27518 9.04025 3.22543 9.12318C2.43766 10.4582 1.86549 11.8845 1.51721 13.402C1.24357 14.6127 1.11089 15.8399 1.13577 17.0838C1.15235 18.0291 1.26015 18.9744 1.46746 19.8949C1.72452 21.0475 2.09767 22.1587 2.62009 23.2201C2.72789 23.4357 2.86057 23.6098 3.043 23.7591" stroke="white" stroke-linecap="round" stroke-linejoin="round"/>
<path d="M25.8323 16.3281C25.5338 16.4276 25.3099 16.6018 25.1026 16.8588C24.8373 17.1988 24.4973 17.4808 24.1822 17.7959C24.0246 17.9534 23.8505 18.111 23.7344 18.3017" stroke="white" stroke-linecap="round" stroke-linejoin="round"/>
<path d="M11.515 7.42104C11.1336 7.15569 10.6941 7.19715 10.2629 7.18057C9.11854 7.13081 8.082 7.4708 7.15326 8.1176C5.8182 9.04634 5.04701 10.3399 4.86458 11.9486C4.73191 13.151 4.9558 14.3119 5.62748 15.3568C5.80991 15.6304 5.97575 15.9124 6.07526 16.2275C6.09184 16.2855 6.07526 16.3601 6.19135 16.385C6.50646 16.4431 6.72206 16.6753 6.97083 16.8577C7.70884 17.3967 8.5132 17.7533 9.42535 17.8776C9.54974 17.8942 9.66583 17.9357 9.78192 17.9689" stroke="white" stroke-linecap="round" stroke-linejoin="round"/>
<path d="M27.6018 12.7461C27.693 13.0197 27.5769 13.2602 27.4525 13.4924C27.0628 14.2221 26.6399 14.927 26.1423 15.5904C26.0345 15.7313 25.9682 15.8972 25.9267 16.0713C25.8853 16.2537 25.8604 16.4113 25.9848 16.5854C26.1092 16.7679 26.1009 16.9918 26.0843 17.2074C26.0179 17.9868 25.9267 18.758 25.6945 19.5126C25.6531 19.6619 25.5867 19.8277 25.4789 19.9272C25.1555 20.2423 25.2468 20.5989 25.338 20.9472C25.6199 22.0003 25.6614 23.0451 25.3297 24.09C24.6912 26.0801 23.3229 27.3074 21.2996 27.7966C21.2416 27.8132 21.1835 27.7966 21.1172 27.7966" stroke="white" stroke-linecap="round" stroke-linejoin="round"/>
<path d="M11.3359 25.7227C11.8915 25.93 12.4471 26.1621 13.011 26.3446C13.8153 26.6099 14.6529 26.726 15.4904 26.8007C15.8055 26.8255 16.0957 26.7758 16.3611 26.5933" stroke="white" stroke-linecap="round" stroke-linejoin="round"/>
<path d="M9.9907 13.457C9.73363 13.5648 9.53462 13.7224 9.39365 13.9629C9.10342 14.4604 8.81319 14.9579 8.53125 15.4555" stroke="white" stroke-linecap="round" stroke-linejoin="round"/>
<path d="M13.4595 10.3818C13.36 10.3652 13.3269 10.4232 13.2771 10.4978C12.4727 11.5758 11.8177 12.7368 11.2787 13.9723C11.146 14.2708 10.9635 14.5362 10.6484 14.6938" stroke="white" stroke-linecap="round" stroke-linejoin="round"/>
<path d="M25.2384 20.1579C24.9399 20.0169 24.7823 19.7267 24.6165 19.4696C24.4423 19.2043 24.2433 18.9721 24.0111 18.7565C23.9199 18.6735 23.837 18.5823 23.8038 18.4579C23.7872 18.3833 23.7458 18.3087 23.6794 18.2838C23.0326 18.035 22.5019 17.5707 21.8302 17.3799C19.8152 16.8244 18.0241 17.1892 16.4734 18.6404C15.553 19.5028 15.0223 20.5642 14.8564 21.808C14.8067 22.1563 14.9145 22.5212 14.7237 22.8612C14.6989 22.9109 14.7735 23.0187 14.8067 23.0933" stroke="white" stroke-linecap="round" stroke-linejoin="round"/>
<path d="M23.1726 20.8125C22.2356 21.2686 21.3732 21.849 20.4527 22.3466C20.2454 22.4627 20.1128 22.471 19.9055 22.3466C19.0182 21.8242 18.1143 21.3183 17.2188 20.8125" stroke="white" stroke-linecap="round" stroke-linejoin="round"/>
<path d="M19.8906 5.17578C19.9901 5.46601 19.9735 5.77283 19.9818 6.07135C20.0316 7.5308 20.3384 8.90732 21.1759 10.1429C22.0881 11.4862 23.3402 12.274 24.9406 12.5393C25.6206 12.6554 26.2923 12.6554 26.9723 12.6306C27.0718 12.6306 27.1713 12.6306 27.2708 12.6471C27.7351 12.7301 27.8264 12.6471 28.0503 12.1745C28.2824 11.6769 28.44 11.1628 28.6141 10.6487C28.6971 10.4082 28.7883 10.1926 29.0039 10.0517" stroke="white" stroke-linecap="round" stroke-linejoin="round"/>
<path d="M16.9313 6.55134C16.8566 6.36891 16.6991 6.25281 16.5415 6.16989C15.8201 5.78844 15.0572 5.52309 14.2363 5.45675C13.9958 5.44017 13.7719 5.36554 13.5148 5.41529C13.1666 5.48163 12.8846 5.60601 12.6773 5.90454C12.4783 6.19477 12.2461 6.46841 12.0886 6.77523C11.9393 7.07375 11.6076 7.2396 11.5496 7.57958C11.4915 7.8864 11.3505 8.16004 11.2427 8.44198C11.1432 8.68246 11.052 8.93952 10.8281 9.09707" stroke="white" stroke-linecap="round" stroke-linejoin="round"/>
<path d="M20.1859 25.9296V19.0802C19.6386 18.8231 19.1494 19.0636 18.6601 19.2709C18.2041 19.4616 17.8226 19.7684 17.4909 20.1333C17.3499 20.2909 17.2173 20.465 17.2173 20.6972C17.2173 20.7469 17.1924 20.8133 17.1592 20.8464C16.7944 21.1201 16.7031 21.5181 16.6534 21.9244C16.5871 22.5381 16.5622 23.16 16.8275 23.7488C16.9105 23.9395 17.01 24.1136 17.2007 24.238C18.1294 23.6907 19.083 23.1766 19.9952 22.5878" stroke="white" stroke-linecap="round" stroke-linejoin="round"/>
<path d="M6.75737 12.5625C6.5003 13.0352 6.7242 13.4829 6.89004 13.9059C7.10564 14.4614 7.4705 14.9424 7.95146 15.3155C7.98463 15.3404 8.0095 15.3985 8.04267 15.3985C8.49046 15.3985 8.72264 15.8297 9.12067 15.9458C9.49383 16.0619 9.88356 16.0701 10.2567 16.1448" stroke="white" stroke-linecap="round" stroke-linejoin="round"/>
<path d="M8.46541 9.56949C8.10884 9.53632 7.87666 9.7768 7.66106 9.9924C7.13035 10.548 6.76549 11.2114 6.65769 11.9908C6.65769 12.0406 6.63281 12.0904 6.63281 12.1401C6.66598 12.4635 6.76549 12.5547 7.10547 12.5547C8.0508 12.5547 8.99612 12.5547 9.94973 12.5547" stroke="white" stroke-linecap="round" stroke-linejoin="round"/>
<path d="M22.667 3.70703C22.5178 3.91434 22.3104 4.02214 22.07 4.10506C21.5558 4.27091 21.0417 4.45334 20.5359 4.65235C20.2457 4.76845 20.0715 5.05868 19.7896 5.12502C19.5408 5.18306 19.3003 5.21623 19.0765 5.34891C18.5126 5.66401 17.9819 6.03717 17.418 6.34398C17.02 6.55958 16.7463 6.87469 16.4063 7.14004C15.8922 7.54637 15.4527 8.01903 14.9718 8.45852C14.7313 8.67412 14.6401 8.90631 14.6815 9.21312" stroke="white" stroke-linecap="round" stroke-linejoin="round"/>
<path d="M17.2296 24.2539C17.1965 24.6105 17.437 24.8427 17.6526 25.0583C18.1667 25.5558 18.7803 25.8875 19.5017 26.0368C19.6925 26.0782 19.8666 26.0782 20.0407 26.0202C20.0988 26.0036 20.1568 25.9455 20.2232 25.9704C20.9031 26.2358 21.4587 25.8875 22.0143 25.6056C22.4289 25.3982 22.7523 25.0748 23.0343 24.71C23.1255 24.5856 23.1835 24.428 23.1586 24.2622" stroke="white" stroke-linecap="round" stroke-linejoin="round"/>
<path d="M14.8359 23.1523C14.9935 24.1972 15.4081 25.1259 16.0466 25.9717C16.3368 26.3532 16.6022 26.6683 17.0334 26.9088C17.6968 27.2736 18.3602 27.6219 19.1065 27.7877C19.1894 27.8043 19.264 27.8043 19.3469 27.8126" stroke="white" stroke-linecap="round" stroke-linejoin="round"/>
<path d="M10.3825 11.4844C10.0923 11.7746 9.95964 12.2058 10.026 12.5209C10.1172 12.9521 9.9016 13.4082 10.2084 13.8311C10.366 14.0384 10.3577 14.3784 10.5567 14.594C10.623 14.6603 10.6147 14.735 10.6147 14.8096C10.5733 15.2491 10.6147 15.7134 10.3162 16.0949C10.2913 16.1281 10.283 16.1695 10.283 16.211C10.283 16.808 10.1338 17.3636 9.83526 17.886C9.81867 17.9109 9.80209 17.9441 9.81038 17.9772C9.93477 18.6406 9.61966 19.246 9.59478 19.8928C9.58649 20.183 9.52015 20.4732 9.47869 20.7635C9.42064 21.1615 9.19675 21.3688 8.79043 21.3605C8.3924 21.3605 7.99437 21.402 7.59634 21.4186C7.12367 21.4351 6.70906 21.6093 6.27786 21.7751C5.84666 21.941 5.43204 22.14 5.02572 22.3473C4.41209 22.6624 3.88968 23.0936 3.38384 23.5497C3.23458 23.6824 2.97752 23.7321 2.96094 23.9975" stroke="white" stroke-linecap="round" stroke-linejoin="round"/>
<path d="M10.7499 0.988871L14.1501 9.02653L13.1767 9.43827L10.1418 2.26403L6.40554 3.8446L6.04029 2.98118L10.7499 0.988871Z" fill="black"/>
<path d="M30.8609 17.4648C30.778 18.1199 30.7365 18.7833 30.6121 19.4384C30.3302 20.9891 29.8078 22.4568 29.0615 23.8333C28.2323 25.3591 27.1543 26.6859 25.8607 27.8385C23.8705 29.6214 21.5404 30.774 18.92 31.2964C17.5932 31.5618 16.2499 31.6447 14.8816 31.5286C12.991 31.371 11.1999 30.8984 9.49994 30.0857C9.28434 29.9862 9.10191 29.8535 8.96094 29.6628" stroke="white" stroke-linecap="round" stroke-linejoin="round"/>
</g>
<defs>
<clipPath id="clip0_65_213">
<rect width="30.5571" height="32" fill="white" transform="translate(0.71875)"/>
</clipPath>
</defs>
</svg>
