<svg width="33" height="33" viewBox="0 0 33 33" fill="none" xmlns="http://www.w3.org/2000/svg">
<g clip-path="url(#clip0_65_256)">
<path d="M1.96094 3.66797C2.96333 4.63638 3.96572 5.59629 4.96811 6.5732C6.14889 7.72 7.32117 8.8668 8.50195 10.0136C8.62088 10.124 8.71432 10.2769 8.89271 10.3024" stroke="white" stroke-linecap="round" stroke-linejoin="round"/>
<path d="M3.39844 2.26562C4.39233 3.24253 5.37773 4.22793 6.37163 5.19634C7.54391 6.34314 8.72469 7.48994 9.90547 8.64524C10.0244 8.75567 10.1688 8.84911 10.2028 9.02751" stroke="white" stroke-linecap="round" stroke-linejoin="round"/>
<path d="M16.3856 13.4629C16.0968 13.3525 15.8589 13.1826 15.6975 12.9193C15.1623 12.0443 14.6356 11.1438 14.4827 10.1414C14.3638 9.35992 13.9221 8.85023 13.4379 8.33205C12.4949 7.33815 11.4416 6.44619 10.4052 5.54574C9.05454 4.37346 7.66989 3.23515 6.27674 2.10534C5.852 1.76555 5.43575 1.41726 5.00251 1.08596C4.6967 0.856601 4.56078 0.856601 4.28895 1.11994C3.95765 1.43425 3.56689 1.71458 3.40549 2.1648C3.3885 2.21577 3.37151 2.24126 3.31204 2.26674C2.70891 2.54707 2.25869 2.98031 1.96986 3.57494C1.94438 3.63441 1.91889 3.6514 1.86792 3.66839C1.4092 3.82979 1.12038 4.21206 0.789081 4.53486C0.525741 4.7982 0.517246 4.93412 0.755101 5.23144C1.0779 5.64768 1.42619 6.04694 1.76599 6.44619C2.70042 7.53353 3.61786 8.62936 4.58627 9.69122C5.25736 10.4388 5.93694 11.1778 6.63352 11.9084C7.24515 12.554 7.87376 13.1656 8.53636 13.7517C8.95261 14.117 9.41133 14.3719 10.006 14.4738C11.1443 14.6607 12.1382 15.2298 13.1151 15.7905C13.4549 15.9859 13.7862 16.1898 13.9646 16.5805C13.6502 17.1497 13.0811 17.5234 12.5884 17.9482C11.518 18.8826 10.4137 19.7831 9.32638 20.692C8.1456 21.6774 6.95632 22.6543 5.75855 23.6227C4.33992 24.7865 2.92128 25.9418 1.51114 27.0971C0.857039 27.6408 0.474772 28.3374 0.440793 29.1698C0.406814 29.8664 0.636174 30.5035 1.11188 31.0557C1.63856 31.6588 2.31815 32.0071 3.10817 32.0666C3.90668 32.1176 4.64573 31.8712 5.23187 31.3105C5.852 30.7074 6.37018 30.0193 6.93933 29.3737C8.07764 28.057 9.23294 26.7403 10.3712 25.4151C11.4331 24.1919 12.461 22.9431 13.5568 21.7539C14.4997 20.7345 15.3577 19.6302 16.3941 18.6872" stroke="white" stroke-linecap="round" stroke-linejoin="round"/>
<path d="M14 16.5877C14.5437 16.6132 14.8835 16.9784 15.2318 17.3012C15.665 17.7005 16.1662 18.0573 16.3786 18.6349C16.3955 18.6774 16.4125 18.6859 16.4465 18.7029C17.1516 19.0427 17.5423 19.7053 18.0435 20.2405C18.8336 21.0814 19.5811 21.9734 20.3371 22.8484C21.7133 24.4284 23.0895 26.0169 24.4571 27.597C25.451 28.7438 26.4364 29.8906 27.4303 31.0374C27.9825 31.6745 28.7045 32.0398 29.554 32.0822C30.2251 32.1162 30.8622 31.9293 31.3804 31.5131C31.9666 31.0374 32.4168 30.4597 32.4677 29.6697C32.4762 29.4998 32.5952 29.3724 32.5527 29.16C32.4168 28.5144 32.2469 27.8943 31.7457 27.4101C31.1001 26.79 30.378 26.2548 29.6899 25.6856C28.3817 24.6068 27.0735 23.5364 25.7653 22.4661C24.5081 21.4297 23.2509 20.3849 22.0021 19.34C21.0932 18.5755 20.1418 17.8619 19.3093 17.0209C18.893 16.6047 18.4343 16.2564 18.0096 15.8656C17.5593 15.4494 17.1516 14.9992 16.7693 14.5234C16.5484 14.2601 16.4805 13.9373 16.3786 13.6315C16.3616 13.572 16.3616 13.4956 16.438 13.4361C17.0496 12.9604 17.1346 12.2638 17.1431 11.5927C17.1431 11.083 17.3045 10.7008 17.6528 10.344C18.7571 9.20568 20.0058 8.22878 21.2546 7.25187C23.6331 5.38301 26.0796 3.61609 28.6111 1.9596C28.9934 1.71325 29.3586 1.44141 29.7579 1.22904C30.8962 0.634405 32.2384 1.28001 32.4762 2.43531C32.6376 3.20834 32.3403 3.80297 31.7797 4.27868C31.4739 4.53353 31.185 4.80536 30.8792 5.06021C30.2761 5.5699 29.7154 6.13905 29.1378 6.67422C26.8527 8.80643 24.5846 10.9556 22.3334 13.1133C21.331 14.0732 20.2862 14.9907 19.2668 15.9251C19.1054 16.0695 18.961 16.2224 18.8081 16.3668" stroke="white" stroke-linecap="round" stroke-linejoin="round"/>
</g>
<defs>
<clipPath id="clip0_65_256">
<rect width="32.9854" height="32" fill="white" transform="translate(0.0078125 0.5)"/>
</clipPath>
</defs>
</svg>
