<svg width="27" height="22" viewBox="0 0 27 22" fill="none" xmlns="http://www.w3.org/2000/svg">
<path d="M6.625 17.6625C7.44322 18.7033 8.48726 19.5446 9.67826 20.1228C10.8693 20.7009 12.1761 21.0009 13.5 21C14.6643 21.0014 15.8171 20.7698 16.8905 20.3187C17.9639 19.8677 18.9362 19.2064 19.75 18.3738M9.125 4.67C10.4547 3.90117 11.964 3.49754 13.5 3.5C15.9488 3.5 18.1625 4.505 19.75 6.12625M3.5 7.25C4.88125 7.25 6 6.475 6 4.75C6 3.025 4.88125 1 3.5 1C2.11875 1 1 3.025 1 4.75C1 6.475 2.11875 7.25 3.5 7.25ZM3.5 7.25V21M22.875 12.25V1H23.5C24.163 1 24.7989 1.26339 25.2678 1.73223C25.7366 2.20107 26 2.83696 26 3.5V12.25H22.875ZM22.875 12.25V21M18.5 12.25C18.5 13.5761 17.9732 14.8479 17.0355 15.7855C16.0979 16.7232 14.8261 17.25 13.5 17.25C12.1739 17.25 10.9021 16.7232 9.96447 15.7855C9.02678 14.8479 8.5 13.5761 8.5 12.25C8.5 10.9239 9.02678 9.65215 9.96447 8.71447C10.9021 7.77678 12.1739 7.25 13.5 7.25C14.8261 7.25 16.0979 7.77678 17.0355 8.71447C17.9732 9.65215 18.5 10.9239 18.5 12.25Z" stroke="white" stroke-linecap="round" stroke-linejoin="round"/>
</svg>
