<svg width="32" height="32" viewBox="0 0 32 32" fill="none" xmlns="http://www.w3.org/2000/svg">
<g clip-path="url(#clip0_65_263)">
<path d="M18.3185 0.445027C17.9228 0.478702 17.5187 0.360838 17.1398 0.579728C17.1062 0.596566 17.0472 0.596566 17.0051 0.579728C16.3316 0.369257 15.6665 0.369257 14.993 0.579728C14.9509 0.596566 14.892 0.596566 14.8583 0.579728C14.4879 0.360838 14.0754 0.478702 13.6797 0.445027" stroke="white" stroke-linecap="round" stroke-linejoin="round"/>
<path d="M22.542 16.6855C22.3315 16.5845 22.1042 16.5508 21.8685 16.5508C18.2905 16.5508 14.7125 16.5508 11.1344 16.5508C10.8987 16.5508 10.6798 16.5929 10.4609 16.6855" stroke="white" stroke-linecap="round" stroke-linejoin="round"/>
<path d="M17.1838 29.2983C16.6197 29.4162 16.485 29.7866 16.544 30.3086C16.5692 30.5527 16.544 30.7968 16.544 31.0494C16.5524 31.4535 16.6787 31.5714 17.0828 31.5882C17.4616 31.5966 17.8405 31.5882 18.2193 31.5882C19.5832 31.5882 20.947 31.5882 22.3109 31.5882C22.8918 31.5882 22.976 31.4956 22.9844 30.9147C22.9844 30.6032 23.0012 30.2917 22.9844 29.9718C22.976 29.7866 22.976 29.593 22.7571 29.4583C22.555 29.3404 22.4035 29.2646 22.1762 29.3909C22.0667 29.4498 21.9152 29.433 21.7805 29.433C20.7197 29.433 19.6589 29.433 18.5897 29.433C18.2698 29.433 17.9668 29.3993 17.6889 29.2562C17.5374 29.1804 17.3943 29.1215 17.2512 29.2562" stroke="white" stroke-linecap="round" stroke-linejoin="round"/>
<path d="M22.6778 16.7545C23.4945 16.4599 24.3195 16.4935 25.1614 16.6451C25.3803 16.6872 25.4392 16.7966 25.5066 16.9818C25.7339 17.6217 25.4897 18.1689 25.2287 18.7329C24.6899 19.8947 24.1511 21.0565 23.6207 22.2183C23.545 22.3783 23.5197 22.5467 23.5197 22.7235C23.5197 23.7085 23.5029 24.6935 23.5197 25.6785C23.5365 26.4025 23.3092 27.0087 22.7704 27.4801C22.501 27.7158 22.4084 27.9852 22.4337 28.322C22.4589 28.6335 22.4337 28.945 22.4337 29.2649" stroke="white" stroke-linecap="round" stroke-linejoin="round"/>
<path d="M7.92188 16.8534C8.6459 16.4998 9.39517 16.4409 10.1697 16.6766C10.3128 16.7187 10.3633 16.7692 10.3802 16.9123C10.4054 17.1228 10.498 17.3248 10.5991 17.5185C11.0958 18.4866 11.5757 19.4548 12.0471 20.4314C12.1734 20.6924 12.3418 20.8608 12.6196 20.9702C14.2444 21.61 15.8693 22.2583 17.4857 22.9234C17.6204 22.9739 17.7214 22.9655 17.8224 22.9402C18.336 22.8223 18.8495 22.6708 19.3715 22.5445C19.6493 22.4772 19.8429 22.3341 19.9777 22.0731C20.8111 20.524 21.653 18.9834 22.4865 17.4427C22.6127 17.2154 22.739 16.9797 22.6212 16.7018" stroke="white" stroke-linecap="round" stroke-linejoin="round"/>
<path d="M8.98754 20.9105C9.11383 20.5232 9.07173 20.1612 8.89494 19.7992C8.64237 19.2941 8.42348 18.7721 8.18775 18.2586C8.01938 17.8881 7.8931 17.5009 7.91835 17.0883C7.91835 16.9368 7.851 16.8442 7.7163 16.7853C7.05963 16.499 6.38612 16.4738 5.7042 16.6506C5.55266 16.6927 5.41796 16.7516 5.46847 16.9536C5.46847 16.9621 5.46847 16.9789 5.46847 16.9873C5.15697 17.7787 5.50215 18.3091 6.09988 18.8058C6.79023 19.3783 7.43006 20.0013 8.08673 20.6074C8.24669 20.7505 8.42348 20.8937 8.62553 20.9021C8.97071 20.9189 9.13908 21.1041 9.29904 21.3735C9.87152 22.2912 10.6797 22.9815 11.5048 23.6635C12.5066 24.5053 13.4748 25.3809 14.4598 26.2396C15.3101 26.9805 16.152 27.7213 17.0107 28.4538C17.238 28.6474 17.3475 28.8916 17.4064 29.161" stroke="white" stroke-linecap="round" stroke-linejoin="round"/>
<path d="M5.3719 16.6878C5.16143 16.5868 4.93412 16.5447 4.6984 16.5531C3.83967 16.5531 2.97253 16.5363 2.11381 16.5615C1.4824 16.5784 0.960432 16.048 0.96885 15.4166C0.985688 14.4063 0.960432 14.4147 1.97911 14.4063C2.52634 14.4063 3.0904 14.5242 3.62078 14.28C3.66288 14.2632 3.73865 14.28 3.78916 14.3137C3.98279 14.4147 4.18485 14.4147 4.39532 14.4147C12.1491 14.4147 19.8944 14.4232 27.6481 14.3895C28.2964 14.3895 28.9446 14.4568 29.5929 14.4147C29.896 14.3979 30.1991 14.4063 30.5021 14.4147C30.9062 14.4232 31.0325 14.5494 31.0325 14.9536C31.0325 15.2819 31.0914 15.6102 30.9399 15.9301C30.7294 16.3511 30.4011 16.57 29.9297 16.57C28.7005 16.57 27.4714 16.57 26.2422 16.57C26.0065 16.57 25.7876 16.6121 25.5687 16.7047" stroke="white" stroke-linecap="round" stroke-linejoin="round"/>
<path d="M28.3538 14.2363C28.3958 13.0577 28.3285 11.8959 28.0423 10.7509C27.7981 9.7743 27.4193 8.83981 26.9057 7.96425C25.7692 6.02792 24.1864 4.57146 22.1743 3.61171C20.76 2.93821 19.253 2.62671 17.6787 2.58462C17.2746 2.5762 16.8789 2.55936 16.4664 2.58462C15.9781 2.60987 15.4645 2.71932 14.9931 2.46675C14.9678 2.44991 14.9257 2.45833 14.892 2.46675C13.8902 2.71932 12.8378 2.61829 11.836 2.89611C10.851 3.17393 9.89966 3.52753 9.0241 4.04108C6.93623 5.27023 5.404 7.00451 4.46109 9.24392C3.78759 10.8435 3.58553 12.5188 3.65288 14.2447" stroke="white" stroke-linecap="round" stroke-linejoin="round"/>
</g>
<defs>
<clipPath id="clip0_65_263">
<rect width="30.914" height="32" fill="white" transform="translate(0.546875)"/>
</clipPath>
</defs>
</svg>
