<svg width="29" height="30" viewBox="0 0 29 30" fill="none" xmlns="http://www.w3.org/2000/svg">
<g clip-path="url(#clip0_769_795)">
<path d="M14.5078 0.847656V17.7068" stroke="white" stroke-linecap="round" stroke-linejoin="round"/>
<path d="M7.98494 23.0956C7.8091 23.1542 7.73793 22.9867 7.63327 22.9114C7.48674 22.8067 7.37789 22.6518 7.23974 22.5346C7.16019 22.4676 7.10996 22.3964 7.12252 22.2918C7.18113 21.8898 6.96343 21.5759 6.79178 21.2493C6.64525 20.973 6.46105 20.7176 6.32289 20.4413C6.11775 20.0394 6.25172 19.5705 6.61595 19.311C7.01367 19.0305 7.49093 19.0514 7.80073 19.4365C8.37847 20.1524 8.91853 20.9018 9.47534 21.6345C9.52139 21.6973 9.57581 21.7559 9.62187 21.8145C10.0489 22.3211 10.3545 22.8904 10.522 23.5393C10.6601 24.0668 10.8694 24.5734 11.0495 25.0883C11.2504 25.6661 11.2546 26.2773 11.3467 26.876C11.4304 27.4202 11.4723 27.9729 11.5644 28.5129C11.6063 28.7557 11.4932 28.9944 11.5853 29.2288" stroke="white" stroke-linecap="round" stroke-linejoin="round"/>
<path d="M21.2021 14.3406C19.8833 13.273 18.506 12.2934 17.1496 11.2719C16.5425 10.8155 15.9229 10.376 15.3368 9.8945C14.9516 9.57633 14.0557 9.59307 13.658 9.8945C11.8913 11.2426 10.1078 12.5613 8.33275 13.8926C8.14854 14.0308 7.97271 14.1899 7.79688 14.3364" stroke="white" stroke-linecap="round" stroke-linejoin="round"/>
<path d="M21.0259 23.0941C21.1013 23.0857 21.1682 23.1066 21.2394 23.0355C21.4111 22.8596 21.5869 22.688 21.7753 22.5289C21.8674 22.4494 21.9051 22.3698 21.8925 22.2568C21.8548 21.947 21.9804 21.6832 22.1311 21.4237C22.3154 21.1097 22.4996 20.7957 22.667 20.4691C22.9015 20.0128 22.7968 19.5858 22.4033 19.3095C21.9972 19.0248 21.5074 19.0583 21.1892 19.4644C20.5654 20.2556 19.9918 21.0846 19.3597 21.8674C18.9536 22.374 18.6605 22.9141 18.4972 23.5379C18.3842 23.9733 18.2168 24.3961 18.0535 24.8189C17.8023 25.4804 17.7688 26.1837 17.6683 26.8745C17.593 27.4188 17.5469 27.9714 17.4506 28.5114C17.4088 28.7543 17.5218 28.9929 17.4297 29.2273" stroke="white" stroke-linecap="round" stroke-linejoin="round"/>
<path d="M7.11204 22.413C6.58872 22.5177 6.14914 22.346 5.77235 21.9944C5.383 21.6259 5.01878 21.2366 4.6378 20.8682C4.50384 20.7384 4.42429 20.5793 4.34056 20.4202C3.66653 19.0805 2.9925 17.7409 2.31429 16.4012C2.1552 16.0872 1.87889 15.9155 1.60258 15.9574C1.28022 16.0034 1.04577 16.1835 0.95367 16.4933C0.911804 16.6314 0.928551 16.7905 0.974602 16.937C1.43512 18.4274 1.89982 19.9137 2.33941 21.4041C2.50268 21.9609 2.76643 22.4507 3.08879 22.9238C3.51163 23.535 3.93028 24.1504 4.33638 24.77C4.44104 24.9291 4.56245 25.0547 4.72572 25.1594C5.4165 25.6073 6.09471 26.072 6.78549 26.5242C7.18739 26.7879 7.37997 27.1396 7.35485 27.6294C7.33392 28.0271 7.34648 28.4248 7.35485 28.8226C7.36323 29.1826 7.47208 29.2956 7.82793 29.2956C8.92061 29.2998 10.0133 29.2956 11.106 29.2956C11.2567 29.2956 11.3948 29.2538 11.5246 29.1784" stroke="white" stroke-linecap="round" stroke-linejoin="round"/>
<path d="M21.8886 22.4127C22.4119 22.5174 22.8515 22.3457 23.2283 21.9941C23.6176 21.6257 23.9818 21.2363 24.3628 20.8679C24.4968 20.7381 24.5763 20.579 24.6601 20.4199C25.3341 19.0803 26.0165 17.7406 26.6822 16.3967C26.8329 16.0911 27.0631 15.9529 27.3729 15.9613C27.6785 15.9697 27.913 16.1371 28.026 16.4302C28.093 16.5976 28.0763 16.7693 28.026 16.9368C27.532 18.5569 27.0338 20.1729 26.5398 21.7931C26.4728 22.015 26.3765 22.2243 26.2468 22.4211C25.7151 23.1998 25.1876 23.9868 24.6684 24.7739C24.5638 24.933 24.4424 25.0586 24.2791 25.1633C23.5967 25.6112 22.9352 26.0885 22.2486 26.5239C21.8174 26.796 21.6248 27.156 21.6541 27.6626C21.6751 28.0478 21.6625 28.4371 21.6541 28.8223C21.6458 29.1823 21.5369 29.2954 21.1811 29.2954C20.0884 29.2995 18.9957 29.2954 17.903 29.2954C17.7523 29.2954 17.6142 29.2535 17.4844 29.1781" stroke="white" stroke-linecap="round" stroke-linejoin="round"/>
<path d="M14.501 0.817607C13.9986 0.604095 13.5005 0.754809 13.0106 0.851099C9.56094 1.53769 7.31697 3.58908 6.25778 6.92574C5.83075 8.26961 5.80982 9.65116 6.10288 11.0327C6.31639 12.0291 6.69318 12.9669 7.23324 13.8335C7.2458 13.8502 7.24998 13.8754 7.26254 13.8921C7.45093 14.1935 7.77748 14.3652 7.93238 14.721C8.1124 15.1313 8.50175 15.4118 8.84086 15.709C9.15066 15.9812 9.47302 16.2365 9.82469 16.4542C10.1554 16.6552 10.4736 16.8813 10.8378 17.0236C11.1769 17.1576 11.5035 17.3292 11.851 17.4339C12.4622 17.6181 13.0818 17.773 13.7265 17.8065C13.9735 17.8191 14.2122 17.8944 14.4424 17.7395C14.4634 17.7269 14.501 17.7311 14.5303 17.7395C15.5435 17.9907 16.4938 17.6516 17.4148 17.3376C18.7796 16.8687 19.9477 16.0649 20.9106 14.9722C21.078 14.7838 21.1115 14.5033 21.2748 14.3568C21.4632 14.1977 21.639 14.0428 21.7688 13.8335C22.7108 12.3096 23.1671 10.6475 23.0708 8.85991C22.9704 6.98016 22.3256 5.28881 21.1157 3.82353C20.0105 2.48384 18.6247 1.57118 16.9711 1.06043C16.431 0.892964 15.8742 0.792488 15.3048 0.750623C15.0369 0.72969 14.7773 0.675266 14.5303 0.817607" stroke="white" stroke-linecap="round" stroke-linejoin="round"/>
</g>
<defs>
<clipPath id="clip0_769_795">
<rect width="27.5515" height="29" fill="white" transform="translate(0.726562 0.5)"/>
</clipPath>
</defs>
</svg>
