<svg width="30" height="29" viewBox="0 0 30 29" fill="none" xmlns="http://www.w3.org/2000/svg">
<g clip-path="url(#clip0_2_389)">
<path d="M14.7655 3.33398C14.7474 4.20927 14.8018 5.08455 14.7383 5.95983C14.7383 6.00519 14.7564 6.05054 14.7655 6.09589" stroke="white" stroke-linecap="round" stroke-linejoin="round"/>
<path d="M25.4367 22.0508H22.3438" stroke="white" stroke-linecap="round" stroke-linejoin="round"/>
<path d="M25.5196 6.09693C25.252 6.04705 25.0479 6.21485 24.8393 6.32369C24.2543 6.62301 23.6874 6.95408 23.1114 7.27607C22.9935 7.3441 22.862 7.37131 22.7305 7.35771" stroke="white" stroke-linecap="round" stroke-linejoin="round"/>
<path d="M14.7656 19.2617V21.9964" stroke="white" stroke-linecap="round" stroke-linejoin="round"/>
<path d="M14.7656 13.9512V16.6859" stroke="white" stroke-linecap="round" stroke-linejoin="round"/>
<path d="M20.2137 22.0781C19.157 22.0191 18.0958 22.0645 17.0391 22.0508" stroke="white" stroke-linecap="round" stroke-linejoin="round"/>
<path d="M14.7655 8.64453C14.7474 9.51981 14.8018 10.3951 14.7383 11.2704C14.7383 11.3157 14.7564 11.3611 14.7655 11.4064" stroke="white" stroke-linecap="round" stroke-linejoin="round"/>
<path d="M7.48531 15.4297C7.52612 15.5975 7.44449 15.6837 7.29483 15.7608C6.6327 16.1009 5.97964 16.4546 5.32204 16.7948C5.17238 16.8719 5.09075 16.958 5.13156 17.1258" stroke="white" stroke-linecap="round" stroke-linejoin="round"/>
<path d="M12.3833 13.1582C12.22 13.1582 12.0703 13.1763 11.9161 13.2625C11.2585 13.6299 10.5873 13.9791 9.92068 14.3373C9.83905 14.3782 9.76195 14.3963 9.67578 14.3918" stroke="white" stroke-linecap="round" stroke-linejoin="round"/>
<path d="M20.6187 8.36914C20.6459 8.53241 20.5915 8.61857 20.4328 8.70474C19.7026 9.08116 18.9861 9.48479 18.2695 9.87481" stroke="white" stroke-linecap="round" stroke-linejoin="round"/>
<path d="M17.418 0.953125C17.418 2.60392 17.418 4.25471 17.418 5.90551C17.418 6.4724 18.0756 6.85335 18.5109 6.69009C18.8601 6.55857 19.2003 6.38623 19.5223 6.20029C20.7377 5.50641 21.9849 4.87149 23.2184 4.20483C24.8148 3.34315 26.4112 2.4724 28.0075 1.60619C28.2479 1.47467 28.4973 1.39303 28.774 1.44292" stroke="white" stroke-linecap="round" stroke-linejoin="round"/>
<path d="M28.8869 24.709C25.3494 24.7679 21.8075 24.7226 18.2701 24.7317C17.8574 24.7317 17.4265 25.0899 17.422 25.5571C17.4129 26.387 17.422 27.2169 17.422 28.0469" stroke="white" stroke-linecap="round" stroke-linejoin="round"/>
<path d="M1.327 22.0779C1.3134 21.9827 1.34968 21.9282 1.43585 21.8829C2.00274 21.5836 2.56963 21.2843 3.13199 20.9804C4.54696 20.223 5.96192 19.4702 7.37235 18.7083C8.50614 18.1006 9.63086 17.4793 10.7692 16.8761C11.4268 16.5269 12.107 16.9623 12.107 17.7242V28.0416" stroke="white" stroke-linecap="round" stroke-linejoin="round"/>
<path d="M28.776 7.41238C28.3225 7.33528 28.0096 7.64821 27.6559 7.82962C26.4132 8.47814 25.1887 9.15388 23.9552 9.82054C22.1048 10.8183 20.25 11.8115 18.3996 12.8047C18.1865 12.9181 17.9643 13.0133 17.7692 13.1584C17.5198 13.3398 17.411 13.5666 17.4155 13.875C17.42 15.3897 17.4382 16.9044 17.4064 18.4192C17.3974 18.9271 17.733 19.4215 18.4314 19.4305C19.0527 19.4396 19.674 19.4305 20.2908 19.4305C22.8622 19.4305 25.4336 19.4305 28.0096 19.4305C28.2999 19.4305 28.5946 19.4124 28.8849 19.4033" stroke="white" stroke-linecap="round" stroke-linejoin="round"/>
<path d="M12.1116 0.953125C12.1116 3.8012 12.1116 6.64474 12.1116 9.49281C12.1116 9.93272 11.9665 10.2456 11.5629 10.4543C10.5833 10.9622 9.60824 11.4883 8.63318 12.0098C7.29078 12.7354 5.95291 13.4747 4.61051 14.1958C3.55835 14.7581 2.49713 15.3023 1.46312 15.8919C1.35881 15.9509 1.23182 15.9645 1.10938 15.9509" stroke="white" stroke-linecap="round" stroke-linejoin="round"/>
</g>
<defs>
<clipPath id="clip0_2_389">
<rect width="28.6848" height="28" fill="white" transform="translate(0.65625 0.5)"/>
</clipPath>
</defs>
</svg>
