<svg width="31" height="32" viewBox="0 0 31 32" fill="none" xmlns="http://www.w3.org/2000/svg">
<g clip-path="url(#clip0_65_242)">
<path d="M12.5025 12.7107C12.5025 12.5094 12.4958 12.355 12.2878 12.1872C11.5763 11.61 10.5025 11.5295 9.75755 12.1C9.64346 12.1872 9.50252 12.2476 9.375 12.3282" stroke="white" stroke-linecap="round" stroke-linejoin="round"/>
<path d="M25.363 13.8599C25.5845 12.8465 24.6247 11.5847 23.2288 11.7257C22.8999 11.7592 22.571 11.8129 22.2422 11.7525" stroke="white" stroke-linecap="round" stroke-linejoin="round"/>
<path d="M9.38415 12.712C9.38415 12.3094 9.14925 12.0476 8.5855 11.853C7.7667 11.5711 7.03516 11.7389 6.38415 12.3026C6.25664 12.4167 6.34388 12.5778 6.31704 12.7187" stroke="white" stroke-linecap="round" stroke-linejoin="round"/>
<path d="M7.53125 6.36328C7.53125 6.76597 7.53125 7.16865 7.53125 7.57805C7.53125 8.63174 8.13528 9.29617 9.09501 9.57805C10.142 9.88677 11.491 9.26932 11.7259 7.92033C11.8131 7.41697 11.7393 6.88006 11.7393 6.36328" stroke="white" stroke-linecap="round" stroke-linejoin="round"/>
<path d="M6.3126 12.3289C6.02401 12.2081 5.76226 12.0202 5.48709 11.8726C4.95018 11.584 4.46025 11.6914 3.95018 11.886C3.19179 12.1813 2.77569 12.7451 2.67501 13.5437C2.66159 13.6444 2.69515 13.7585 2.70186 13.8591" stroke="white" stroke-linecap="round" stroke-linejoin="round"/>
<path d="M29.767 4.00781C29.1227 4.75949 28.3509 5.38365 27.6529 6.07493C26.0086 7.7058 24.3375 9.30983 22.6798 10.9273C22.4784 11.1219 22.2637 11.3098 22.2637 11.632C22.2637 11.6722 22.2368 11.7394 22.2033 11.7595C21.8006 11.981 21.8945 12.3635 21.8878 12.7192" stroke="white" stroke-linecap="round" stroke-linejoin="round"/>
<path d="M21.8825 12.0719C21.4329 12.0719 21.0302 11.8505 20.6074 11.7431C20.0168 11.5954 19.5336 11.8102 19.0772 12.1122C18.7148 12.3471 18.7215 12.3807 18.406 12.1323C18.057 11.8572 17.6477 11.7162 17.2248 11.7028C16.8356 11.6894 16.453 11.8035 16.1107 12.0115C15.9362 12.1122 15.7752 12.233 15.6007 12.3471C15.2651 12.1525 14.9899 11.884 14.6074 11.7766C13.9497 11.5887 13.3658 11.7498 12.8221 12.1055C12.7148 12.1726 12.6409 12.3001 12.5 12.327" stroke="white" stroke-linecap="round" stroke-linejoin="round"/>
<path d="M26.7967 16.918H1.36719" stroke="white" stroke-linecap="round" stroke-linejoin="round"/>
<path d="M23.3853 0.335938C23.1773 0.335938 23.2243 0.517146 23.1974 0.624528C22.6739 2.57755 22.1773 4.54399 21.6202 6.4903C21.2578 7.75876 20.9088 9.02721 20.5464 10.289C20.4189 10.7252 20.2578 11.1614 20.2578 11.6312" stroke="white" stroke-linecap="round" stroke-linejoin="round"/>
<path d="M14.1307 11.6223C14.0703 11.4075 14.1307 11.1995 14.1307 10.9847C14.1307 9.98469 14.1777 8.98469 14.0972 7.98469C14.0435 7.32026 13.6206 6.88402 13.077 6.55516C12.6743 6.30684 12.2582 6.14577 11.7683 6.32026C11.6408 6.36053 11.4864 6.23301 11.3253 6.23301C10.1978 6.23301 9.07031 6.19946 7.9428 6.25315C7.48642 6.27328 7.01662 6.15919 6.56696 6.36053C5.89582 6.65583 5.3589 7.07194 5.20454 7.83033C5.15085 8.09879 5.14414 8.38066 5.13743 8.65583C5.13072 9.49476 5.13743 10.3337 5.13743 11.1726C5.13743 11.327 5.13072 11.4746 5.07031 11.6223" stroke="white" stroke-linecap="round" stroke-linejoin="round"/>
<path d="M8.07305 28.1804C7.91197 27.8381 7.56298 27.7307 7.27439 27.5428C5.97238 26.7039 4.81801 25.7173 3.85157 24.4891C2.79788 23.1536 2.06634 21.677 1.63681 20.0462C1.49587 19.5025 1.40191 18.9522 1.32808 18.3885C1.28781 18.0797 1.24083 17.7576 1.26768 17.4623C1.32808 16.7173 1.18043 15.9723 1.27439 15.2274C1.34822 14.6636 1.65694 14.3012 2.14687 14.0864C2.42204 13.9656 2.71063 13.8046 3.03949 13.9455C3.09318 13.9656 3.16701 13.9455 3.22741 13.9455C10.4355 13.9455 17.6502 13.9522 24.8583 13.9321C25.4422 13.9321 25.959 13.9858 26.422 14.3549C26.7576 14.6234 26.9321 14.9656 26.9254 15.375C26.9187 15.8717 26.9992 16.375 26.8583 16.8784C26.8113 17.0529 26.959 17.2878 26.9321 17.5093C26.8381 18.3683 26.7308 19.2207 26.4959 20.0663C26.0462 21.677 25.3415 23.1603 24.3079 24.4556C23.2811 25.7374 22.0932 26.865 20.6167 27.6569C20.4153 27.7643 20.2207 27.8851 20.073 28.073C20.0596 28.0932 20.0529 28.1334 20.0395 28.1334C19.0798 28.3213 18.2207 28.8113 17.2677 29.0395C15.9187 29.3616 14.5563 29.4958 13.1804 29.4019C11.6569 29.2945 10.1737 28.9522 8.77103 28.3012C8.18043 28.0327 7.9254 27.9723 7.94553 28.8046C7.95895 29.3885 7.93211 29.9723 7.96566 30.5562C7.99922 31.12 8.59654 31.6368 9.18714 31.6368C10.4288 31.6368 11.6771 31.6368 12.9187 31.6368C14.9321 31.6368 16.9388 31.6234 18.9522 31.6435C19.4824 31.6435 20.1334 31.1737 20.1603 30.4556C20.1871 29.8381 20.1603 29.2207 20.1603 28.6032C20.1603 28.4421 20.1066 28.2945 20.0328 28.1536" stroke="white" stroke-linecap="round" stroke-linejoin="round"/>
</g>
<defs>
<clipPath id="clip0_65_242">
<rect width="29.2013" height="32" fill="white" transform="translate(0.898438)"/>
</clipPath>
</defs>
</svg>
