<svg width="31" height="30" viewBox="0 0 31 30" fill="none" xmlns="http://www.w3.org/2000/svg">
<g clip-path="url(#clip0_2_356)">
<path d="M13.4168 12.6767C13.5182 12.6234 13.6249 12.57 13.7263 12.522C14.0304 12.3779 14.2118 12.1378 14.2172 11.807C14.2225 11.4388 14.2972 11.0546 13.9771 10.7505C13.721 10.5051 13.4115 10.441 13.1073 10.5477C12.8245 10.6491 12.6058 10.8626 12.5684 11.2201C12.5257 11.6843 12.4831 12.1431 12.9206 12.458C13.0593 12.554 13.2301 12.6074 13.3848 12.6821" stroke="white" stroke-linecap="round" stroke-linejoin="round"/>
<path d="M12.0825 20.0713C12.2266 20.0073 12.392 19.9753 12.5147 19.8793C12.7602 19.6872 12.9096 19.4471 12.8989 19.1056C12.8829 18.7427 12.9309 18.3746 12.5841 18.1078C12.3333 17.9103 12.0505 17.8623 11.7784 17.9637C11.4903 18.0704 11.2662 18.2892 11.2235 18.6093C11.1915 18.8441 11.1808 19.0949 11.2235 19.319C11.3142 19.7565 11.661 19.9433 12.0558 20.066" stroke="white" stroke-linecap="round" stroke-linejoin="round"/>
<path d="M30.3785 23.3047C30.4425 23.7636 30.5652 24.2171 30.3464 24.6706C30.0263 25.3483 29.5354 25.7965 28.7617 25.8819" stroke="white" stroke-linecap="round" stroke-linejoin="round"/>
<path d="M25.0966 7.18076C24.9952 7.13274 24.8885 7.14875 24.7871 7.14875C18.5923 7.14875 12.4028 7.14875 6.20791 7.14875C6.10653 7.14875 5.99448 7.1274 5.89844 7.18076" stroke="white" stroke-linecap="round" stroke-linejoin="round"/>
<path d="M3.88226 4.87978C3.89293 4.61832 3.90894 4.36221 3.91428 4.10075C3.91961 3.75926 3.98898 3.46579 4.25043 3.19367C5.01345 2.37729 4.63461 1.04868 3.54077 0.760551C2.77242 0.557791 1.99339 0.88861 1.7106 1.80636C1.54519 2.33461 1.67858 2.80949 2.05209 3.19901C2.2922 3.44979 2.38291 3.72725 2.3669 4.07407C2.35623 4.34086 2.30287 4.61832 2.42026 4.87978" stroke="white" stroke-linecap="round" stroke-linejoin="round"/>
<path d="M28.5819 4.88135C28.6939 4.59856 28.6406 4.29975 28.6406 4.01162C28.6406 3.71815 28.6886 3.47804 28.918 3.25927C29.2168 2.97648 29.3822 2.59764 29.3556 2.17611C29.3075 1.38641 28.8433 0.826155 28.0536 0.71944C27.1305 0.596716 26.5649 1.18365 26.3889 1.89865C26.2821 2.32551 26.3568 2.81107 26.6983 3.12588C27.0398 3.44603 27.0985 3.80886 27.0932 4.22505C27.0932 4.44382 27.1092 4.66259 27.1199 4.87602" stroke="white" stroke-linecap="round" stroke-linejoin="round"/>
<path d="M8.44827 21.3153C8.54965 21.262 8.65103 21.2086 8.75775 21.1606C9.05655 21.0272 9.2433 20.8084 9.24864 20.4776C9.25931 20.1735 9.318 19.8533 9.15259 19.5812C8.95517 19.2557 8.64036 19.1063 8.26152 19.181C7.95738 19.2397 7.62656 19.5012 7.59988 19.8907C7.56787 20.3442 7.50917 20.7978 7.95204 21.1019C8.09077 21.1979 8.26152 21.2513 8.41626 21.3207" stroke="white" stroke-linecap="round" stroke-linejoin="round"/>
<path d="M28.7347 25.9144C28.58 26.2239 28.644 26.4693 28.8841 26.7254C29.7432 27.6378 29.3964 28.8597 28.2065 29.2386C27.3474 29.5107 26.451 28.8331 26.371 27.9633C26.3283 27.4884 26.4617 27.0829 26.8085 26.7521C26.9632 26.6027 27.0326 26.4266 26.9579 26.2239C26.9259 26.1438 26.9099 26.0531 26.9366 26.0104C27.1607 25.6689 27.0753 25.2848 27.086 24.9166C27.0966 24.5111 27.3101 24.1803 27.6462 24.0789C27.9504 23.9828 28.3559 24.1589 28.5426 24.4844C28.6387 24.6551 28.6387 24.8526 28.6387 25.0393C28.6387 25.3114 28.6013 25.5889 28.7294 25.845" stroke="white" stroke-linecap="round" stroke-linejoin="round"/>
<path d="M15.7151 20.6313C15.8485 20.5673 15.9925 20.5193 16.1152 20.4446C16.5688 20.1671 16.5474 19.7082 16.5154 19.2654C16.4834 18.7691 16.1579 18.4863 15.683 18.4863C15.2082 18.4863 14.872 18.7691 14.8507 19.2654C14.824 19.9857 14.776 20.2631 15.683 20.6313" stroke="white" stroke-linecap="round" stroke-linejoin="round"/>
<path d="M5.62079 22.9593C5.73817 22.7672 5.78086 22.5644 5.78086 22.3403C5.78086 17.4527 5.77553 12.5652 5.78086 7.67758C5.78086 7.30941 5.81288 6.94657 5.7115 6.58908C5.51407 5.90076 5.05519 5.45789 4.40956 5.1911C4.39889 5.1911 4.38822 5.16976 4.37755 5.15908C3.89733 4.82827 3.34774 4.983 2.82483 4.93498C2.28592 4.88696 1.8804 5.17509 1.45887 5.4152C0.95731 5.698 0.669177 6.16221 0.525111 6.7118C0.503768 6.79184 0.525111 6.87721 0.525111 6.95725C0.525111 12.0956 0.525111 17.2286 0.525111 22.367C0.525111 22.6018 0.594476 22.7992 0.717199 22.9859C1.10671 22.8686 1.35216 22.5377 1.70966 22.3563C2.65409 21.8814 4.35621 21.9135 5.16191 22.7672C5.2953 22.9059 5.51407 22.8846 5.63146 23.0446" stroke="white" stroke-linecap="round" stroke-linejoin="round"/>
<path d="M23.9148 16.2829C23.9415 16.0801 23.8721 15.9521 23.6694 15.872C23.4186 15.7707 23.1785 15.7386 22.9544 15.9094C22.4848 16.2722 22.1593 16.1975 21.8392 15.9307C21.7218 15.8347 21.5884 15.8027 21.4603 15.7867C21.3376 15.7707 21.1669 15.776 21.0975 15.8507C20.9321 16.0161 20.7507 16.0001 20.5586 15.9948" stroke="white" stroke-linecap="round" stroke-linejoin="round"/>
<path d="M9.06749 15.2852C8.74734 15.4986 8.55526 15.8347 8.32582 16.1282C8.00567 16.5337 7.6375 16.9072 7.38672 17.3661" stroke="white" stroke-linecap="round" stroke-linejoin="round"/>
<path d="M0.61464 23.3047C0.529267 23.7636 0.438559 24.2224 0.646654 24.6706C0.961466 25.3483 1.45236 25.8018 2.23138 25.8819" stroke="white" stroke-linecap="round" stroke-linejoin="round"/>
<path d="M18.6328 14.6656C18.7609 14.6602 18.8836 14.6762 19.0117 14.5802C19.2624 14.3881 19.5933 14.3988 19.844 14.5749C20.3349 14.911 20.463 14.9217 20.9272 14.5749C21.1513 14.4041 21.5782 14.4094 21.8343 14.6069C21.9143 14.6709 21.8876 14.7509 21.893 14.8256" stroke="white" stroke-linecap="round" stroke-linejoin="round"/>
<path d="M24.2906 12.4312C23.8851 12.1217 23.597 12.1378 23.2021 12.4312C22.9247 12.6393 22.6579 12.666 22.4018 12.4579C22.0176 12.1431 21.6601 12.1378 21.2812 12.4312" stroke="white" stroke-linecap="round" stroke-linejoin="round"/>
<path d="M5.71111 23.3633C5.77514 23.6407 5.82316 23.9342 5.81249 24.201C5.79648 24.4945 5.6204 24.7879 5.42831 25.0387C5.31092 25.1935 5.16152 25.3269 5.02813 25.4763C4.91607 25.6043 4.77734 25.7164 4.77734 25.9085" stroke="white" stroke-linecap="round" stroke-linejoin="round"/>
<path d="M9.06762 14.9121C9.05695 15.1202 9.11565 15.2749 9.27572 15.451C9.79863 16.038 10.2842 16.6622 10.7751 17.2759C10.8018 17.3079 10.7751 17.3772 10.7751 17.4306" stroke="white" stroke-linecap="round" stroke-linejoin="round"/>
<path d="M23.3296 20.9096C23.2442 20.8989 23.1695 20.9149 23.0788 20.8562C22.7533 20.6321 22.4385 20.6374 22.1131 20.9042C21.8516 21.123 21.4621 21.0963 21.1846 20.9096C20.7524 20.6161 20.5603 20.6161 20.1602 20.9096" stroke="white" stroke-linecap="round" stroke-linejoin="round"/>
<path d="M22.4546 11.0917C22.3319 11.1184 22.2625 11.0223 22.1718 10.9743C21.8837 10.8196 21.5956 10.7662 21.3021 11.0223C20.9499 11.3318 20.6031 11.2784 20.2829 11.0223C19.9308 10.7342 19.6106 10.8302 19.2852 11.0597" stroke="white" stroke-linecap="round" stroke-linejoin="round"/>
<path d="M25.2807 23.3633C25.222 23.7261 25.206 24.0889 25.2807 24.4518C25.3554 24.82 25.5741 25.1027 25.8356 25.3535C26.001 25.5083 26.1878 25.6577 26.2091 25.9138" stroke="white" stroke-linecap="round" stroke-linejoin="round"/>
<path d="M11.6753 13.7969C11.2324 14.053 10.971 14.4692 10.7095 14.8854C10.6455 14.9868 10.5655 15.0721 10.4961 15.1682" stroke="white" stroke-linecap="round" stroke-linejoin="round"/>
<path d="M24.1022 24.266C23.4992 24.266 22.9016 24.266 22.2987 24.266C21.9412 24.266 21.589 24.2713 21.2422 24.1699" stroke="white" stroke-linecap="round" stroke-linejoin="round"/>
<path d="M11.7102 13.6426C11.7102 13.6853 11.6942 13.744 11.7102 13.7653C12.3825 14.3362 12.8094 15.1099 13.3857 15.7556" stroke="white" stroke-linecap="round" stroke-linejoin="round"/>
<path d="M23.7295 19.3242C23.5588 19.3509 23.404 19.4149 23.2653 19.511C22.8811 19.7778 22.7424 19.8098 22.3636 19.543C22.0327 19.3082 21.6859 19.2602 21.3391 19.511C21.2751 19.559 21.211 19.527 21.1523 19.5377" stroke="white" stroke-linecap="round" stroke-linejoin="round"/>
<path d="M7.66819 13.5771C7.6842 13.5077 7.64151 13.4277 7.7002 13.3583C8.03636 12.9474 8.36184 12.5259 8.698 12.1204C8.75135 12.0564 8.83139 11.9763 8.98079 11.9977C9.39165 12.2965 9.64777 12.7767 9.99459 13.1715C10.3307 13.5504 10.5762 14.0039 10.987 14.3187" stroke="white" stroke-linecap="round" stroke-linejoin="round"/>
<path d="M25.094 8.97816C23.013 8.97816 20.9321 8.97816 18.8511 8.97816C18.7017 8.97816 18.5523 8.95682 18.4189 9.04219C18.3549 9.07954 18.2962 9.10622 18.2322 9.06887C17.9654 8.91947 17.6719 8.97816 17.3945 8.97816C14.0703 8.97816 10.7461 8.97816 7.42188 8.97816" stroke="white" stroke-linecap="round" stroke-linejoin="round"/>
<path d="M2.2641 25.9145C2.40817 26.24 2.3388 26.4908 2.08268 26.7576C1.20228 27.6753 1.7572 28.9986 2.78701 29.2547C3.70476 29.4842 4.56916 28.7745 4.62785 27.9314C4.65987 27.4672 4.52647 27.0724 4.19032 26.7522C4.03558 26.6028 3.96622 26.4268 4.04092 26.224C4.07293 26.144 4.08894 26.0479 4.06226 26.0106C3.82215 25.6531 3.91286 25.2369 3.89685 24.858C3.87017 24.3725 3.46465 24.111 3.13917 24.0843C2.77634 24.0523 2.46686 24.3565 2.38682 24.7673C2.31746 25.1302 2.44552 25.509 2.26944 25.8558" stroke="white" stroke-linecap="round" stroke-linejoin="round"/>
<path d="M4.09375 26.0362C4.2645 26.0255 4.4299 25.9935 4.59531 25.9508C4.66468 25.9348 4.74472 25.8868 4.8461 25.9668C5.04886 26.1216 5.30497 26.1002 5.55576 26.1002C12.2255 26.1002 18.8952 26.1002 25.565 26.1002C25.6557 26.1002 25.7784 26.1376 25.8424 26.0949C26.1892 25.8601 26.5467 26.0042 26.9042 26.0415" stroke="white" stroke-linecap="round" stroke-linejoin="round"/>
<path d="M18.2918 9.13281C18.3398 9.95452 17.9876 10.4774 17.2086 10.7922C16.5416 11.0644 16.024 11.5286 15.7306 12.2329C15.5438 12.6918 15.6025 13.06 15.9013 13.4174C15.992 13.5242 16.0988 13.6149 16.2108 13.6949C16.643 13.999 16.8298 14.4206 16.8671 14.9381C16.8938 15.285 16.9471 15.6371 17.0539 15.9626C17.2353 16.4909 17.6781 16.7416 18.1957 16.8644C18.6226 16.9657 19.0601 16.9978 19.4976 16.9924C19.8765 16.9871 19.9352 17.0511 19.9352 17.4246C19.9352 17.7928 19.7911 18.0969 19.5297 18.3584C19.1188 18.7586 18.82 19.2388 18.6653 19.7884C18.3558 20.8822 18.6973 21.816 19.4123 22.643C19.7004 22.9738 20.0259 23.278 20.3994 23.5181C20.6075 23.6515 20.7889 23.8169 20.901 24.0517C20.6715 24.2331 20.4101 24.2651 20.1219 24.2651C15.5011 24.2651 10.8857 24.2651 6.26489 24.2651C6.1315 24.2651 5.99811 24.2438 5.85938 24.2331" stroke="white" stroke-linecap="round" stroke-linejoin="round"/>
<path d="M25.3137 23.3061C25.3724 23.1353 25.4044 22.9806 25.287 22.8045C25.2016 22.6765 25.2177 22.5057 25.2177 22.3457C25.2177 18.0557 25.2283 13.771 25.207 9.48107C25.207 8.85145 25.2977 8.21115 25.207 7.58687C25.1536 7.22937 25.1963 6.88788 25.287 6.5624C25.4738 5.89009 25.9433 5.45255 26.5836 5.1911C26.5943 5.1911 26.605 5.16976 26.6156 5.15908C27.0958 4.82827 27.6454 4.983 28.1683 4.93498C28.7073 4.88696 29.1128 5.17509 29.5343 5.4152C30.0359 5.698 30.324 6.16221 30.4681 6.7118C30.4894 6.79184 30.4681 6.87721 30.4681 6.95725C30.4681 12.0956 30.4681 17.2286 30.4681 22.367C30.4681 22.6018 30.3987 22.7992 30.276 22.9859C30.0732 22.9326 29.9025 22.8259 29.7424 22.6818C29.3476 22.3243 28.8727 22.1696 28.3498 22.0842C27.4 21.9295 26.5676 22.1482 25.8259 22.7672C25.7085 22.8686 25.5698 22.9806 25.3937 22.9913" stroke="white" stroke-linecap="round" stroke-linejoin="round"/>
</g>
<defs>
<clipPath id="clip0_2_356">
<rect width="30.366" height="29" fill="white" transform="translate(0.316406 0.5)"/>
</clipPath>
</defs>
</svg>
