<svg width="20" height="22" viewBox="0 0 20 22" fill="none" xmlns="http://www.w3.org/2000/svg">
<path d="M6 10.5C8.7615 10.5 11 8.2615 11 5.5C11 2.7385 8.7615 0.5 6 0.5C3.2385 0.5 1 2.7385 1 5.5C1 8.2615 3.2385 10.5 6 10.5Z" stroke="white" stroke-linejoin="round"/>
<path d="M11.0031 6.10156C11.0101 6.10856 13.3644 9.06923 18.0661 14.9836C18.1457 15.0794 18.1867 15.2016 18.1809 15.3261C18.1752 15.4506 18.1232 15.5684 18.0351 15.6566L15.9931 17.6986C15.9049 17.7867 15.7871 17.8387 15.6626 17.8444C15.5381 17.8502 15.4159 17.8092 15.3201 17.7296L6.91406 10.5006M11.2381 10.7356L12.6526 12.1501" stroke="white" stroke-linecap="round" stroke-linejoin="round"/>
<path d="M6.5 20.5431C7.45867 19.2941 8.62367 18.6696 9.995 18.6696C12.053 18.6696 14.4815 21.2546 16.553 20.8991C18.625 20.5431 19.218 18.5001 17.943 17.3691" stroke="white" stroke-linecap="round" stroke-linejoin="round"/>
</svg>
