<svg width="31" height="30" viewBox="0 0 31 30" fill="none" xmlns="http://www.w3.org/2000/svg">
<g clip-path="url(#clip0_2_417)">
<path d="M3.7767 8.5918C3.79722 8.78161 3.74079 8.92011 3.60741 9.07401C3.13546 9.62805 2.69941 10.2231 2.23258 10.7823C1.95044 11.126 1.80167 11.5005 1.82219 11.9417" stroke="white" stroke-linecap="round" stroke-linejoin="round"/>
<path d="M0.871094 11.9731C1.08655 11.9628 1.30714 11.9782 1.5226 11.9474C1.84066 11.9012 2.03046 12.0141 2.13819 12.3322C2.28183 12.7374 2.53833 13.0298 2.87691 13.2863C3.3899 13.6711 3.86699 14.0917 4.3646 14.497" stroke="white" stroke-linecap="round" stroke-linejoin="round"/>
<path d="M18.3917 4.02661C17.7248 4.08817 17.0733 4.20103 16.432 4.40623C14.9649 4.87819 13.7644 5.7195 12.7897 6.89939C11.9177 7.95103 11.3585 9.15657 11.143 10.4904C10.8147 12.5321 11.2046 14.4507 12.3794 16.1744C13.313 17.5389 14.5647 18.5187 16.114 19.1036C16.6936 19.3242 17.2939 19.4678 17.9197 19.5345C18.2788 19.5755 18.6328 19.5858 18.9867 19.5806C20.3821 19.5653 21.6851 19.1908 22.8701 18.4521C24.6759 17.3286 25.8558 15.7332 26.3893 13.6812C26.6252 12.7732 26.656 11.8395 26.5534 10.8956C26.3688 9.19248 25.6659 7.72531 24.522 6.48899C23.3934 5.26806 21.998 4.48831 20.3513 4.16512C19.7101 4.03687 19.0688 4.02148 18.4224 4.02148" stroke="white" stroke-linecap="round" stroke-linejoin="round"/>
<path d="M18.6855 29.4875V28.4512C18.6855 26.9687 18.6855 25.4861 18.6855 24.0036C18.6855 23.5419 18.824 23.4034 19.2754 23.3828C20.7118 23.311 22.0867 22.9776 23.3948 22.3774C25.6366 21.3514 27.3603 19.7508 28.6068 17.6322C29.2994 16.4574 29.7303 15.18 29.9663 13.8411C30.1304 12.9228 30.1612 11.9841 30.0791 11.0555C29.8585 8.5316 28.9249 6.29494 27.2423 4.3866C25.5699 2.49364 23.4769 1.28297 21.0196 0.749456C19.9834 0.523738 18.9266 0.467309 17.8493 0.549388C15.2997 0.744326 13.0733 1.67285 11.1496 3.35035C9.38488 4.8842 8.20499 6.78742 7.59453 9.03947C7.38933 9.79357 7.29699 10.5682 7.2303 11.348C7.19439 11.8096 7.14309 11.9276 6.58392 11.9379C5.46046 11.9533 4.33187 11.9584 3.20328 11.9379C2.80827 11.9328 2.4697 12.0969 2.10547 12.1841" stroke="white" stroke-linecap="round" stroke-linejoin="round"/>
</g>
<defs>
<clipPath id="clip0_2_417">
<rect width="30.2821" height="30" fill="white" transform="translate(0.359375)"/>
</clipPath>
</defs>
</svg>
