<svg width="28" height="30" viewBox="0 0 28 30" fill="none" xmlns="http://www.w3.org/2000/svg">
<g clip-path="url(#clip0_2_407)">
<path d="M14 0.847656V17.7068" stroke="white" stroke-linecap="round" stroke-linejoin="round"/>
<path d="M7.47713 23.0956C7.30129 23.1542 7.23012 22.9867 7.12546 22.9114C6.97893 22.8067 6.87008 22.6518 6.73193 22.5346C6.65238 22.4676 6.60214 22.3964 6.6147 22.2918C6.67331 21.8898 6.45561 21.5759 6.28397 21.2493C6.13744 20.973 5.95323 20.7176 5.81508 20.4413C5.60994 20.0394 5.74391 19.5705 6.10813 19.311C6.50585 19.0305 6.98312 19.0514 7.29292 19.4365C7.87066 20.1524 8.41072 20.9018 8.96752 21.6345C9.01358 21.6973 9.068 21.7559 9.11405 21.8145C9.54108 22.3211 9.84669 22.8904 10.0142 23.5393C10.1523 24.0668 10.3616 24.5734 10.5417 25.0883C10.7426 25.6661 10.7468 26.2773 10.8389 26.876C10.9226 27.4202 10.9645 27.9729 11.0566 28.5129C11.0985 28.7557 10.9854 28.9944 11.0775 29.2288" stroke="white" stroke-linecap="round" stroke-linejoin="round"/>
<path d="M20.6982 14.3406C19.3794 13.273 18.0021 12.2934 16.6456 11.2719C16.0386 10.8155 15.419 10.376 14.8329 9.8945C14.4477 9.57633 13.5518 9.59307 13.1541 9.8945C11.3874 11.2426 9.60393 12.5613 7.82884 13.8926C7.64464 14.0308 7.4688 14.1899 7.29297 14.3364" stroke="white" stroke-linecap="round" stroke-linejoin="round"/>
<path d="M20.522 23.0941C20.5974 23.0857 20.6643 23.1066 20.7355 23.0355C20.9072 22.8596 21.083 22.688 21.2714 22.5289C21.3635 22.4494 21.4012 22.3698 21.3886 22.2568C21.3509 21.947 21.4765 21.6832 21.6272 21.4237C21.8114 21.1097 21.9957 20.7957 22.1631 20.4691C22.3976 20.0128 22.2929 19.5858 21.8994 19.3095C21.4933 19.0248 21.0034 19.0583 20.6853 19.4644C20.0615 20.2556 19.4879 21.0846 18.8558 21.8674C18.4497 22.374 18.1566 22.9141 17.9933 23.5379C17.8803 23.9733 17.7128 24.3961 17.5496 24.8189C17.2984 25.4804 17.2649 26.1837 17.1644 26.8745C17.0891 27.4188 17.043 27.9714 16.9467 28.5114C16.9048 28.7543 17.0179 28.9929 16.9258 29.2273" stroke="white" stroke-linecap="round" stroke-linejoin="round"/>
<path d="M6.61204 22.413C6.08872 22.5177 5.64914 22.346 5.27235 21.9944C4.883 21.6259 4.51878 21.2366 4.1378 20.8682C4.00384 20.7384 3.92429 20.5793 3.84056 20.4202C3.16653 19.0805 2.4925 17.7409 1.81429 16.4012C1.6552 16.0872 1.37889 15.9155 1.10258 15.9574C0.780218 16.0034 0.545773 16.1835 0.45367 16.4933C0.411804 16.6314 0.428551 16.7905 0.474602 16.937C0.935119 18.4274 1.39982 19.9137 1.83941 21.4041C2.00268 21.9609 2.26643 22.4507 2.58879 22.9238C3.01163 23.535 3.43028 24.1504 3.83638 24.77C3.94104 24.9291 4.06245 25.0547 4.22572 25.1594C4.9165 25.6073 5.59471 26.072 6.28549 26.5242C6.68739 26.7879 6.87997 27.1396 6.85485 27.6294C6.83392 28.0271 6.84648 28.4248 6.85485 28.8226C6.86323 29.1826 6.97208 29.2956 7.32793 29.2956C8.42061 29.2998 9.51329 29.2956 10.606 29.2956C10.7567 29.2956 10.8948 29.2538 11.0246 29.1784" stroke="white" stroke-linecap="round" stroke-linejoin="round"/>
<path d="M21.3847 22.4127C21.908 22.5174 22.3476 22.3457 22.7244 21.9941C23.1137 21.6257 23.4779 21.2363 23.8589 20.8679C23.9929 20.7381 24.0724 20.579 24.1562 20.4199C24.8302 19.0803 25.5126 17.7406 26.1782 16.3967C26.329 16.0911 26.5592 15.9529 26.869 15.9613C27.1746 15.9697 27.4091 16.1371 27.5221 16.4302C27.5891 16.5976 27.5724 16.7693 27.5221 16.9368C27.0281 18.5569 26.5299 20.1729 26.0359 21.7931C25.9689 22.015 25.8726 22.2243 25.7428 22.4211C25.2112 23.1998 24.6837 23.9868 24.1645 24.7739C24.0599 24.933 23.9385 25.0586 23.7752 25.1633C23.0928 25.6112 22.4313 26.0885 21.7447 26.5239C21.3135 26.796 21.1209 27.156 21.1502 27.6626C21.1712 28.0478 21.1586 28.4371 21.1502 28.8223C21.1419 29.1823 21.033 29.2954 20.6772 29.2954C19.5845 29.2995 18.4918 29.2954 17.3991 29.2954C17.2484 29.2954 17.1103 29.2535 16.9805 29.1781" stroke="white" stroke-linecap="round" stroke-linejoin="round"/>
<path d="M14.001 0.817607C13.4986 0.604095 13.0005 0.754809 12.5106 0.851099C9.06094 1.53769 6.81697 3.58908 5.75778 6.92574C5.33075 8.26961 5.30982 9.65116 5.60288 11.0327C5.81639 12.0291 6.19318 12.9669 6.73324 13.8335C6.7458 13.8502 6.74998 13.8754 6.76254 13.8921C6.95093 14.1935 7.27748 14.3652 7.43238 14.721C7.6124 15.1313 8.00175 15.4118 8.34086 15.709C8.65066 15.9812 8.97302 16.2365 9.32469 16.4542C9.65542 16.6552 9.9736 16.8813 10.3378 17.0236C10.6769 17.1576 11.0035 17.3292 11.351 17.4339C11.9622 17.6181 12.5818 17.773 13.2265 17.8065C13.4735 17.8191 13.7122 17.8944 13.9424 17.7395C13.9634 17.7269 14.001 17.7311 14.0303 17.7395C15.0435 17.9907 15.9938 17.6516 16.9148 17.3376C18.2796 16.8687 19.4477 16.0649 20.4106 14.9722C20.578 14.7838 20.6115 14.5033 20.7748 14.3568C20.9632 14.1977 21.139 14.0428 21.2688 13.8335C22.2108 12.3096 22.6671 10.6475 22.5708 8.85991C22.4704 6.98016 21.8256 5.28881 20.6157 3.82353C19.5105 2.48384 18.1247 1.57118 16.4711 1.06043C15.931 0.892964 15.3742 0.792488 14.8048 0.750623C14.5369 0.72969 14.2773 0.675266 14.0303 0.817607" stroke="white" stroke-linecap="round" stroke-linejoin="round"/>
</g>
<defs>
<clipPath id="clip0_2_407">
<rect width="27.5515" height="29" fill="white" transform="translate(0.222656 0.5)"/>
</clipPath>
</defs>
</svg>
