<svg width="29" height="28" viewBox="0 0 29 28" fill="none" xmlns="http://www.w3.org/2000/svg">
<g clip-path="url(#clip0_2_334)">
<path d="M8.89453 12.1172C9.01678 12.3209 9.17073 12.493 9.3609 12.6424C9.89065 13.059 10.28 13.6023 10.6513 14.1502C10.7419 14.2815 10.8279 14.4128 10.9819 14.4807" stroke="white" stroke-linecap="round" stroke-linejoin="round"/>
<path d="M12.4147 17.5547C12.4102 17.7358 12.4283 17.9124 12.5007 18.0754C12.7317 18.5961 12.7498 19.1258 12.6094 19.6692C12.5641 19.8503 12.5822 20.0359 12.5822 20.217" stroke="white" stroke-linecap="round" stroke-linejoin="round"/>
<path d="M1.5625 18.8984C1.74361 18.9482 1.92925 18.9165 2.11037 18.9256" stroke="white" stroke-linecap="round" stroke-linejoin="round"/>
<path d="M15.0226 17.3594C14.4114 17.3594 13.7956 17.3639 13.1843 17.3594C12.9398 17.3594 12.718 17.4047 12.4961 17.4997" stroke="white" stroke-linecap="round" stroke-linejoin="round"/>
<path d="M19.0039 27.0039V27.7736" stroke="white" stroke-linecap="round" stroke-linejoin="round"/>
<path d="M8.15625 4.25977C8.37359 4.35938 8.59998 4.40013 8.84448 4.40013C9.42857 4.40013 10.0172 4.36843 10.6013 4.42277" stroke="white" stroke-linecap="round" stroke-linejoin="round"/>
<path d="M14.9404 11.293C13.5595 11.3473 12.174 11.3247 10.793 11.293" stroke="white" stroke-linecap="round" stroke-linejoin="round"/>
<path d="M9.17167 23.7344C8.92264 23.9427 8.64192 24.074 8.32044 24.1509C7.96727 24.2415 7.62316 24.3819 7.27452 24.5041C7.07077 24.5765 6.85796 24.5901 6.64062 24.5856" stroke="white" stroke-linecap="round" stroke-linejoin="round"/>
<path d="M22.1912 14.5615C21.8109 14.6747 21.7565 14.7426 21.752 15.1366C21.752 15.4671 21.7475 15.7976 21.752 16.1236C21.7611 16.4904 21.906 16.6398 22.2727 16.6443C23.3186 16.6489 24.36 16.6489 25.406 16.6443C25.7727 16.6443 25.9176 16.4904 25.9267 16.1236C25.9357 15.7931 25.9448 15.4626 25.9267 15.1366C25.8995 14.643 25.8497 14.5751 25.3516 14.5661C24.3102 14.5479 23.2643 14.5615 22.2184 14.5615" stroke="white" stroke-linecap="round" stroke-linejoin="round"/>
<path d="M7.46727 15.8516C7.48991 16.0372 7.43105 16.164 7.28163 16.2953C6.87865 16.653 6.53454 17.065 6.48021 17.6355C6.46662 17.7985 6.47115 17.9661 6.48021 18.1291C6.49379 18.3736 6.43946 18.5954 6.33984 18.8173" stroke="white" stroke-linecap="round" stroke-linejoin="round"/>
<path d="M15.0227 14.3398H11.5906C11.5906 14.3398 11.5544 14.3398 11.5363 14.3398C10.9069 14.444 10.8798 14.4757 11.0156 15.0235C11.1379 15.5216 11.2646 16.0151 11.2601 16.5358C11.2601 16.6445 11.2692 16.7668 11.3688 16.8347C11.6903 17.052 11.9483 17.3644 12.3287 17.4957" stroke="white" stroke-linecap="round" stroke-linejoin="round"/>
<path d="M27.8468 19.3379H19.7148" stroke="white" stroke-linecap="round" stroke-linejoin="round"/>
<path d="M22.1912 9.94825C21.8109 10.0614 21.7565 10.1294 21.752 10.5233C21.752 10.8538 21.7475 11.1843 21.752 11.5103C21.7611 11.8862 21.8969 12.0265 22.2727 12.031C23.3186 12.0356 24.36 12.0356 25.406 12.031C25.7818 12.031 25.9176 11.8862 25.9267 11.5103C25.9357 11.1798 25.9448 10.8493 25.9267 10.5233C25.8995 10.0298 25.8497 9.96183 25.3516 9.95278C24.3102 9.93467 23.2643 9.94825 22.2184 9.94825" stroke="white" stroke-linecap="round" stroke-linejoin="round"/>
<path d="M7.96172 4.15231C8.01606 3.89423 8.1202 3.66331 8.26056 3.43692C8.78578 2.56758 8.63637 1.46279 7.88475 0.770036C7.27349 0.208588 6.18682 -0.0132752 5.32653 0.579868C5.06392 0.760981 4.84659 0.982844 4.67453 1.24546C4.56586 1.40393 4.43908 1.44921 4.25797 1.44015C3.9365 1.42204 3.62408 1.44015 3.32071 1.59863C2.6506 1.95632 2.40609 2.61286 2.56004 3.30561C2.68682 3.89423 3.27996 4.44209 4.00894 4.41493C4.82395 4.38323 5.63895 4.39682 6.45396 4.41493C6.9158 4.42398 7.36405 4.35607 7.79872 4.2157C7.91644 4.17948 8.007 4.16137 8.10208 4.2474" stroke="white" stroke-linecap="round" stroke-linejoin="round"/>
<path d="M17.0559 22.4172C17.0468 22.2542 17.0287 22.0866 17.0287 21.9236C17.0287 17.7852 17.0287 13.6468 17.0287 9.50836C17.0287 8.94691 16.9291 8.85183 16.3722 8.8473C16.0869 8.8473 15.8062 8.85183 15.5209 8.8473C15.1451 8.83824 15.0138 8.70241 15.0002 8.3266C14.9912 8.09568 15.0093 7.86929 15.0002 7.63837C14.9821 7.2852 14.8599 7.14937 14.5067 7.14937C13.5559 7.14031 12.6005 7.14031 11.6497 7.14937C11.2965 7.14937 11.1742 7.28973 11.1561 7.63837C11.1471 7.86476 11.1561 8.09568 11.1561 8.3266C11.1471 8.70241 11.0112 8.83824 10.6354 8.8473C10.323 8.85636 10.0106 8.83824 9.7027 8.8473C9.19106 8.87447 9.09145 8.96502 9.07786 9.47667C9.05522 10.0698 9.06428 10.6675 9.07786 11.2606C9.07786 11.5051 9.03258 11.727 8.9375 11.9489" stroke="white" stroke-linecap="round" stroke-linejoin="round"/>
<path d="M8.89329 12.0028C8.64426 12.1432 8.42692 12.0028 8.20959 11.9168C7.66625 11.7085 7.11386 11.55 6.5343 11.5093C5.54271 11.4368 4.59639 11.6225 3.73611 12.116C2.2691 12.9582 1.36353 14.2033 1.12356 15.9012C1.00131 16.7615 1.09187 17.5946 1.40428 18.4006C1.52654 18.7175 1.53559 18.962 1.30014 19.2609C0.761335 19.9446 0.97867 20.7369 1.39976 21.2033C1.84801 21.7059 2.74905 21.9006 3.37388 21.4161C3.68177 21.1761 3.93533 21.1761 4.29303 21.3256C4.97673 21.6199 5.71024 21.7285 6.45732 21.6968" stroke="white" stroke-linecap="round" stroke-linejoin="round"/>
<path d="M22.1912 5.32911C21.8109 5.4423 21.7565 5.51022 21.752 5.90414C21.752 6.23467 21.7475 6.5652 21.752 6.8912C21.7611 7.26701 21.8969 7.40738 22.2727 7.4119C23.3186 7.41643 24.36 7.41643 25.406 7.4119C25.7818 7.4119 25.9176 7.26701 25.9267 6.8912C25.9357 6.56067 25.9448 6.23014 25.9267 5.90414C25.8995 5.41061 25.8497 5.34269 25.3516 5.33364C24.3102 5.31553 23.2643 5.32911 22.2184 5.32911" stroke="white" stroke-linecap="round" stroke-linejoin="round"/>
<path d="M15.0199 20.385C14.4721 20.385 13.9197 20.385 13.3718 20.385C13.1364 20.385 12.9009 20.394 12.6836 20.2763C12.5342 20.1948 12.4481 20.308 12.353 20.385C12.2308 20.4891 12.1085 20.5978 11.9953 20.7155C11.4158 21.3041 10.714 21.5124 9.90802 21.4037C9.68163 21.372 9.45524 21.3041 9.2198 21.372C9.1383 21.3947 9.08396 21.3449 9.0251 21.2905C8.84399 21.1139 8.64929 21.1366 8.41837 21.2C8.01087 21.3132 7.64412 21.535 7.21397 21.5667C6.974 21.5848 6.73855 21.6256 6.51216 21.6165C6.38086 21.8157 6.48047 21.9923 6.47594 22.1689C6.46689 22.7168 6.47594 23.2692 6.47141 23.817C6.47141 24.0253 6.48952 24.2245 6.55291 24.4238C6.6163 24.6094 6.44425 24.9716 6.24955 24.9943C5.34399 25.1075 4.60143 25.6146 3.80453 25.9904C3.64606 26.0628 3.48758 26.1489 3.33817 26.2394C3.18422 26.33 3.07555 26.4703 2.98047 26.6243" stroke="white" stroke-linecap="round" stroke-linejoin="round"/>
<path d="M9.14312 21.3977C9.01181 22.1674 9.01634 22.9371 9.14765 23.6933C9.51893 23.8472 9.85851 23.725 10.1845 23.6389C11.0041 23.4216 11.8281 23.2496 12.6612 23.1092C13.7887 22.919 14.9206 22.7651 16.0661 22.6836C16.3831 22.6609 16.7182 22.6655 16.9989 22.4662C17.0442 22.4345 17.0668 22.4436 17.1121 22.4662C17.4562 22.6383 17.8229 22.5794 18.1806 22.5477C18.4387 22.5251 18.7013 22.5704 18.9504 22.516C19.3715 22.421 19.7744 22.5025 20.1865 22.5115C21.1464 22.5342 22.1108 22.5296 23.0707 22.5885C24.5196 22.6745 25.9685 22.8058 27.4083 23.005C27.594 23.0322 27.7389 22.9507 27.8928 22.9417C28.0015 22.7334 28.015 22.5115 28.015 22.2806C28.0105 21.5199 28.0377 20.7593 28.0015 20.0031C27.9834 19.5684 27.9924 19.1428 27.9924 18.7127C28.0196 13.5102 28.0105 8.31229 28.0105 3.10983C28.0105 2.57555 27.9109 2.48047 27.3812 2.48047C24.9814 2.48047 22.5817 2.48047 20.1865 2.48047C19.6522 2.48047 19.5571 2.58008 19.5571 3.10983C19.5571 8.31229 19.5435 13.5102 19.5752 18.7127C19.5752 19.1428 19.5843 19.573 19.5661 20.0031C19.5299 20.7909 19.5571 21.5788 19.5571 22.3666" stroke="white" stroke-linecap="round" stroke-linejoin="round"/>
</g>
<defs>
<clipPath id="clip0_2_334">
<rect width="27.4929" height="28" fill="white" transform="translate(0.753906)"/>
</clipPath>
</defs>
</svg>
