<svg width="30" height="30" viewBox="0 0 30 30" fill="none" xmlns="http://www.w3.org/2000/svg">
<path d="M19.2475 5.51267C19.9253 5.05963 20.7135 4.79919 21.5278 4.75917C22.3421 4.71915 23.152 4.90105 23.871 5.28544C24.59 5.66984 25.1911 6.24229 25.6101 6.94168C26.0291 7.64107 26.2503 8.44112 26.25 9.25642C26.2506 10.4016 25.8146 11.504 25.0308 12.339C24.2469 13.1739 23.1742 13.6786 22.0313 13.7502H21.25M19.2475 5.51267C18.9382 4.6331 18.3634 3.87125 17.6026 3.3323C16.8418 2.79336 15.9324 2.50391 15 2.50391C14.0676 2.50391 13.1582 2.79336 12.3974 3.3323C11.6366 3.87125 11.0618 4.6331 10.7525 5.51267M19.2475 5.51267C19.5431 6.35444 19.5818 7.26509 19.3588 8.12892M10.7525 5.51267C11.3256 5.89629 11.8029 6.4065 12.1475 7.00392M10.7525 5.51267C10.0747 5.05963 9.28651 4.79919 8.4722 4.75917C7.65789 4.71915 6.848 4.90105 6.12901 5.28544C5.41002 5.66984 4.80893 6.24229 4.38993 6.94168C3.97092 7.64107 3.74974 8.44112 3.75 9.25642C3.74935 10.4016 4.18537 11.504 4.96922 12.339C5.75307 13.1739 6.82576 13.6786 7.96875 13.7502H8.75M21.25 17.5002V12.5002M8.75 17.5002V12.5002M22.5 18.1252C20.5013 17.3477 17.875 16.8752 15 16.8752C12.125 16.8752 9.5 17.3477 7.5 18.1252M21.25 21.2502C21.25 22.9078 20.5915 24.4975 19.4194 25.6696C18.2473 26.8417 16.6576 27.5002 15 27.5002C13.3424 27.5002 11.7527 26.8417 10.5806 25.6696C9.40848 24.4975 8.75 22.9078 8.75 21.2502" stroke="white" stroke-width="0.828444" stroke-linecap="round" stroke-linejoin="round"/>
</svg>
