<svg width="20" height="20" viewBox="0 0 20 20" fill="none" xmlns="http://www.w3.org/2000/svg">
<path d="M8.93375 8.04239C6.55929 7.92787 4.90875 8.77438 3.98213 10.5819C2.59262 13.2936 3.74101 17.7307 8.3773 17.7307C13.0144 17.7307 13.1483 13.2501 13.1483 12.7807V7.53231C14.1402 8.16027 14.9762 8.53836 15.6563 8.66658C16.3372 8.79454 16.77 8.85126 16.9547 8.83674V6.22545C16.3251 6.14965 15.7808 6.00502 15.3217 5.79158C14.6325 5.47142 13.2668 4.58311 13.2668 3.2811C13.2676 3.28755 13.2676 2.95166 13.2668 2.27344H10.3967C10.3883 8.65086 10.3883 12.1533 10.3967 12.7807C10.4092 13.7218 9.67891 15.0388 8.19907 15.0388C6.71842 15.0388 5.98818 13.723 5.98818 12.8746C5.98818 12.3553 6.16681 11.6025 6.90431 11.0448C7.34181 10.7142 7.94867 10.5819 8.93375 10.5819V8.04239Z" stroke="black" stroke-width="1.9165" stroke-linejoin="round"/>
</svg>
