<svg width="20" height="19" viewBox="0 0 20 19" fill="none" xmlns="http://www.w3.org/2000/svg">
<path fill-rule="evenodd" clip-rule="evenodd" d="M16.4317 2.97735C15.5944 2.13513 14.5983 1.46734 13.5012 1.0126C12.4041 0.557874 11.2277 0.325235 10.0401 0.328152C5.06149 0.328152 1.00529 4.38057 1.00529 9.35915C1.00217 10.9443 1.41791 12.5022 2.21043 13.875L0.929688 18.5557L5.72001 17.2977C7.04462 18.0192 8.52868 18.3978 10.037 18.3992H10.0408C15.0202 18.3992 19.0718 14.3476 19.0748 9.3652C19.0748 6.95265 18.1358 4.6845 16.4317 2.97659V2.97735ZM10.0401 16.8728H10.037C8.69246 16.8727 7.37254 16.5116 6.21522 15.8271L5.94078 15.6646L3.09652 16.4093L3.85559 13.6384L3.67868 13.3549C2.92596 12.1582 2.52752 10.7729 2.52949 9.35915C2.52949 5.22205 5.89919 1.85537 10.0431 1.85537C11.0293 1.85278 12.0062 2.04591 12.9173 2.42356C13.8283 2.80122 14.6554 3.3559 15.3506 4.05547C16.049 4.75171 16.6027 5.57937 16.9797 6.4907C17.3567 7.40203 17.5494 8.37899 17.5469 9.3652C17.5469 13.5061 14.1779 16.8728 10.0401 16.8728ZM14.1568 11.2493C13.9322 11.1374 12.8216 10.5915 12.6152 10.5174C12.4088 10.4403 12.2576 10.4048 12.1071 10.6293C11.9559 10.8561 11.525 11.3649 11.3926 11.5154C11.2626 11.6628 11.1295 11.684 10.905 11.5713C10.6782 11.4595 9.95161 11.2198 9.08896 10.4494C8.41835 9.85209 7.96396 9.11117 7.83392 8.88662C7.70086 8.6598 7.8188 8.53884 7.93145 8.42543C8.03427 8.32563 8.15827 8.16308 8.27092 8.03002C8.38281 7.90073 8.42213 7.80623 8.49773 7.65502C8.57182 7.50456 8.53402 7.3715 8.47732 7.2596C8.42137 7.14771 7.97001 6.03405 7.781 5.58193C7.59728 5.14191 7.41129 5.20391 7.27293 5.19559C7.14289 5.18954 6.99244 5.18954 6.84199 5.18954C6.69078 5.18954 6.44582 5.24549 6.23866 5.47306C6.03226 5.69761 5.4501 6.24423 5.4501 7.35411C5.4501 8.46474 6.25907 9.53909 6.37248 9.6903C6.48438 9.83773 7.96396 12.1172 10.2283 13.0955C10.648 13.2768 11.077 13.4355 11.5136 13.5711C12.0542 13.742 12.5471 13.7185 12.9372 13.6618C13.3712 13.5976 14.2717 13.116 14.4607 12.5875C14.6474 12.062 14.6474 11.6099 14.5907 11.5154C14.5348 11.4209 14.3843 11.3642 14.1568 11.2493Z" fill="black"/>
</svg>
