<svg width="20" height="18" viewBox="0 0 20 18" fill="none" xmlns="http://www.w3.org/2000/svg">
<g clip-path="url(#clip0_755_5210)">
<rect width="19.213" height="17.3611" transform="translate(0.1875 0.636719)" fill="white"/>
<path d="M8.45393 11.6106L3.27919 17.4978H1.67316L7.81733 10.4562L8.08589 10.1484L7.83786 9.82385L1.19891 1.13672H6.03456L10.0898 6.49404L10.4619 6.98562L10.866 6.52004L15.539 1.13672H17.146L11.4613 7.67755L11.1952 7.98376L11.44 8.30727L18.3951 17.4978H13.7063L9.22673 11.6371L8.85646 11.1527L8.45393 11.6106ZM13.8721 16.5268L14.0222 16.7231H14.2693H15.8897H16.8924L16.289 15.9223L5.79517 1.99479L5.64514 1.79567H5.39583H3.62114H2.60948L3.22393 2.59935L13.8721 16.5268Z" stroke="black"/>
</g>
<defs>
<clipPath id="clip0_755_5210">
<rect width="19.213" height="17.3611" fill="white" transform="translate(0.1875 0.636719)"/>
</clipPath>
</defs>
</svg>
